<svg xmlns="http://www.w3.org/2000/svg" version="1.0" viewBox="0 0 2083 2083"><path fill="#BFBFBF" fill-opacity=".1" d="M1178.4 433.9c0 2.1.7 3.6 1.6 3.8 1 .3 1.1.2.3-.4-.6-.4-1.3-2.2-1.6-3.8-.4-2.7-.5-2.7-.3.4zm-328.7 28.8c26 .2 68.6.2 94.5 0 26-.1 4.8-.2-47.2-.2s-73.2.1-47.3.2zm328.5 65.3c0 1.9.2 2.7.5 1.7.2-.9.2-2.5 0-3.5-.3-.9-.5-.1-.5 1.8zm227.6 452.7c.7.3 1.6.2 1.9-.1.4-.3-.2-.6-1.3-.5-1.1 0-1.4.3-.6.6zm96.2 36.8c1.3 1.4 2.6 2.5 2.8 2.5.3 0-.5-1.1-1.8-2.5s-2.6-2.5-2.8-2.5c-.3 0 .5 1.1 1.8 2.5zm15.2 32c0 1.6.2 2.2.5 1.2.2-.9.2-2.3 0-3-.3-.6-.5.1-.5 1.8zm.1 8.5c0 3 .2 4.3.4 2.7.2-1.5.2-3.9 0-5.5-.2-1.5-.4-.2-.4 2.8zM1133 1184l-3.5.7 3.2.2c1.7 0 3.5-.4 3.8-.9.3-.6.5-.9.3-.9-.2.1-1.9.5-3.8.9zm-98.2.7c.7.3 1.6.2 1.9-.1.4-.3-.2-.6-1.3-.5-1.1 0-1.4.3-.6.6zm8 0c.6.2 1.8.2 2.5 0 .6-.3.1-.5-1.3-.5-1.4 0-1.9.2-1.2.5zm374.1 240c-1.3 1.6-1.2 1.7.4.4.9-.7 1.7-1.5 1.7-1.7 0-.8-.8-.3-2.1 1.3zm-7 7c-1.3 1.6-1.2 1.7.4.4.9-.7 1.7-1.5 1.7-1.7 0-.8-.8-.3-2.1 1.3zm-122.6 15c16.9.2 44.5.2 61.5 0 16.9-.1 3-.2-30.8-.2s-47.7.1-30.7.2z"/><path fill="#8080BF" fill-opacity=".2" d="M1203.2 481c0 1.9.2 2.7.5 1.7.2-.9.2-2.5 0-3.5-.3-.9-.5-.1-.5 1.8zM847.3 634.7c24.1.2 63.3.2 87 0 23.8-.1 4.1-.2-43.8-.2-47.8 0-67.3.1-43.2.2z"/><path fill="gray" fill-opacity=".3" d="M1081.2 447c0 1.4.2 1.9.5 1.2.2-.6.2-1.8 0-2.5-.3-.6-.5-.1-.5 1.3zm-74.7 76c0 23.9.1 33.7.2 21.7.2-11.9.2-31.5 0-43.5-.1-11.9-.2-2.1-.2 21.8zm74.7-9c0 1.4.2 1.9.5 1.2.2-.6.2-1.8 0-2.5-.3-.6-.5-.1-.5 1.3zm266.3 362.5c0 58.3.1 82.3.2 53.3.2-28.9.2-76.6 0-106-.1-29.3-.2-5.6-.2 52.7zm-548.2 759.2c.9.2 2.5.2 3.5 0 .9-.3.1-.5-1.8-.5-1.9 0-2.7.2-1.7.5z"/><g fill="#80BFBF" fill-opacity=".1" stroke-opacity=".1" stroke-width="0"><path d="M886.3 764c0 4.1.2 5.8.4 3.7.2-2 .2-5.4 0-7.5-.2-2-.4-.3-.4 3.8zm481.5 216.7c1.2.2 3 .2 4 0 .9-.3-.1-.5-2.3-.4-2.2 0-3 .2-1.7.4zm32 0c1.2.2 3 .2 4 0 .9-.3-.1-.5-2.3-.4-2.2 0-3 .2-1.7.4zm-43 1c.6.2 1.8.2 2.5 0 .6-.3.1-.5-1.3-.5-1.4 0-1.9.2-1.2.5zm55 0c.6.2 1.8.2 2.5 0 .6-.3.1-.5-1.3-.5-1.4 0-1.9.2-1.2.5zm-63 1c.6.2 1.8.2 2.5 0 .6-.3.1-.5-1.3-.5-1.4 0-1.9.2-1.2.5zm71 0c.7.3 1.6.2 1.9-.1.4-.3-.2-.6-1.3-.5-1.1 0-1.4.3-.6.6zm6 1c.7.3 1.6.2 1.9-.1.4-.3-.2-.6-1.3-.5-1.1 0-1.4.3-.6.6zm-842.1 4.5c-3.6 6.3-8.9 17-8.5 17.3.2.2 2.9-4.6 6-10.6 5.8-11 7.1-14.5 2.5-6.7zm5.4-1.6c0 1.1.3 1.4.6.6.3-.7.2-1.6-.1-1.9-.3-.4-.6.2-.5 1.3zm846.7-.9c.7.3 1.6.2 1.9-.1.4-.3-.2-.6-1.3-.5-1.1 0-1.4.3-.6.6zm4 1c.7.3 1.6.2 1.9-.1.4-.3-.2-.6-1.3-.5-1.1 0-1.4.3-.6.6zm4 1c.7.3 1.6.2 1.9-.1.4-.3-.2-.6-1.3-.5-1.1 0-1.4.3-.6.6zm9.2 2.8c4.6 1.8 6.4 1.7 2.5 0-1.6-.8-3.7-1.4-4.5-1.4-.8 0 .1.7 2 1.4zm-862.9 1.1c0 1.1.3 1.4.6.6.3-.7.2-1.6-.1-1.9-.3-.4-.6.2-.5 1.3zM1463 994c.8.5 2 1 2.5 1 .6 0 .3-.5-.5-1s-1.9-1-2.5-1c-.5 0-.3.5.5 1zm4.1 1.4c1 .9 14.9 7.6 14.9 7.1s-13.6-7.5-14.6-7.5c-.4 0-.5.2-.3.4zm-875 2.6c0 .8.6 2.8 1.4 4.5 1.7 3.9 1.8 2.1 0-2.5-.7-1.9-1.4-2.8-1.4-2zm891.4 5.7c.6.5 4 3 7.6 5.5 7 5 17 15.1 19.4 19.9.9 1.6 1.8 2.9 2.1 2.9.2 0-.2-1.3-1.1-3-2.4-4.6-13.2-15.7-20-20.4-6.4-4.6-9.7-6.6-8-4.9zm-888.5 2.8c0 .5.5 1.7 1 2.5s1 1 1 .5c0-.6-.5-1.7-1-2.5s-1-1.1-1-.5zm-21.4 2c-.9 2.6-.7 3.2.5 1.2.6-1 .9-2.1.6-2.3-.2-.3-.7.2-1.1 1.1zm-2 5c-.9 2.6-.7 3.2.5 1.2.6-1 .9-2.1.6-2.3-.2-.3-.7.2-1.1 1.1zm26.4.1c0 .6.7 1.9 1.6 3 1.4 1.8 1.4 1.8.3-.6-1.4-3.1-1.9-3.6-1.9-2.4zm-28.4 6c-.4 1.4-.5 2.8-.3 3.1.3.2.8-.8 1.1-2.3.4-1.4.5-2.8.3-3.1-.3-.2-.8.8-1.1 2.3z"/><path d="M602.6 1022.2c4.2 8.1 24.8 35.7 26.7 35.8.5 0-1.3-2.6-4-5.8-6.9-8-17-21.7-20.5-28-3.3-5.7-4.9-7.2-2.2-2zm-34.5 3.4c0 1.1.3 1.4.6.6.3-.7.2-1.6-.1-1.9-.3-.4-.6.2-.5 1.3zm-1 4c0 1.1.3 1.4.6.6.3-.7.2-1.6-.1-1.9-.3-.4-.6.2-.5 1.3zm-.9 5.4c0 1.4.2 1.9.5 1.2.2-.6.2-1.8 0-2.5-.3-.6-.5-.1-.5 1.3zm946.8-1.5c0 .5.5 1.7 1 2.5s1 1 1 .5c0-.6-.5-1.7-1-2.5s-1-1.1-1-.5zM565.2 1044c0 1.9.2 2.7.5 1.7.2-.9.2-2.5 0-3.5-.3-.9-.5-.1-.5 1.8zm950.9-1.4c0 1.1.3 1.4.6.6.3-.7.2-1.6-.1-1.9-.3-.4-.6.2-.5 1.3zM565.2 1056c0 1.9.2 2.7.5 1.7.2-.9.2-2.5 0-3.5-.3-.9-.5-.1-.5 1.8zm.9 8.6c0 1.1.3 1.4.6.6.3-.7.2-1.6-.1-1.9-.3-.4-.6.2-.5 1.3zm1 5c0 1.1.3 1.4.6.6.3-.7.2-1.6-.1-1.9-.3-.4-.6.2-.5 1.3zm949.2 4.9c0 2.2.2 3 .4 1.7.2-1.2.2-3 0-4-.3-.9-.5.1-.4 2.3zm-948.2-.9c0 1.1.3 1.4.6.6.3-.7.2-1.6-.1-1.9-.3-.4-.6.2-.5 1.3zm1.9 5.9c0 .5.5 1.7 1 2.5s1 1 1 .5c0-.6-.5-1.7-1-2.5s-1-1.1-1-.5zm2 5c0 2.2 8.9 16.9 14.8 24.4s13.1 14.3 22.8 21.9c2.3 1.8 4.5 3.2 4.9 3.2.3 0-2.7-2.6-6.7-5.9-14.2-11.4-24.4-23.3-32-37.6-2.1-3.9-3.8-6.6-3.8-6zm943.2 2.5c0 1.9.2 2.7.5 1.7.2-.9.2-2.5 0-3.5-.3-.9-.5-.1-.5 1.8zm-1 10.5c0 1.6.2 2.2.5 1.2.2-.9.2-2.3 0-3-.3-.6-.5.1-.5 1.8zm-710.8 1c-.9 1.4-1.4 2.8-1 3.2.3.3.6.1.6-.5s1-2 2.2-3.2c1.2-1.1 1.7-2 1-2-.6 0-1.9 1.1-2.8 2.5zm-.4 5.4c0 .6.4 1.3 1 1.6.6.3.7-.1.4-.9-.7-1.8-1.4-2.1-1.4-.7zm710.2 2.6c0 1.6.2 2.2.5 1.2.2-.9.2-2.3 0-3-.3-.6-.5.1-.5 1.8zm-703.7 9.5c2.5 4.9 4.7 9 5 9 .3 0-1.5-4.1-4-9-2.5-5-4.7-9-5-9-.3 0 1.5 4 4 9zm702.7-1c0 1.4.2 1.9.5 1.2.2-.6.2-1.8 0-2.5-.3-.6-.5-.1-.5 1.3zm-1 8c0 1.4.2 1.9.5 1.2.2-.6.2-1.8 0-2.5-.3-.6-.5-.1-.5 1.3zm-691.7 12c2.5 4.9 4.7 9 5 9 .3 0-1.5-4.1-4-9-2.5-5-4.7-9-5-9-.3 0 1.5 4 4 9zm690.7-4c0 1.4.2 1.9.5 1.2.2-.6.2-1.8 0-2.5-.3-.6-.5-.1-.5 1.3zm-1 7c0 1.4.2 1.9.5 1.2.2-.6.2-1.8 0-2.5-.3-.6-.5-.1-.5 1.3zm-1 7c0 1.4.2 1.9.5 1.2.2-.6.2-1.8 0-2.5-.3-.6-.5-.1-.5 1.3zm-678.7 9c2.5 4.9 4.7 9 5 9 .3 0-1.5-4.1-4-9-2.5-5-4.7-9-5-9-.3 0 1.5 4 4 9zm677.6-2.4c0 1.1.3 1.4.6.6.3-.7.2-1.6-.1-1.9-.3-.4-.6.2-.5 1.3zm-.9 6.4c0 1.4.2 1.9.5 1.2.2-.6.2-1.8 0-2.5-.3-.6-.5-.1-.5 1.3zm-1 6c0 1.4.2 1.9.5 1.2.2-.6.2-1.8 0-2.5-.3-.6-.5-.1-.5 1.3zm-665.7 9c2.5 4.9 4.7 9 5 9 .3 0-1.5-4.1-4-9-2.5-5-4.7-9-5-9-.3 0 1.5 4 4 9zm-135.4-5.4c0 1.1.3 1.4.6.6.3-.7.2-1.6-.1-1.9-.3-.4-.6.2-.5 1.3zm800 3c0 1.1.3 1.4.6.6.3-.7.2-1.6-.1-1.9-.3-.4-.6.2-.5 1.3zm-800.9 3.4c0 1.4.2 1.9.5 1.2.2-.6.2-1.8 0-2.5-.3-.6-.5-.1-.5 1.3zm800 2c0 1.4.2 1.9.5 1.2.2-.6.2-1.8 0-2.5-.3-.6-.5-.1-.5 1.3zm-801 4c0 1.4.2 1.9.5 1.2.2-.6.2-1.8 0-2.5-.3-.6-.5-.1-.5 1.3zm799.9 1.6c0 1.1.3 1.4.6.6.3-.7.2-1.6-.1-1.9-.3-.4-.6.2-.5 1.3zM849.5 1192c2.5 4.9 4.7 9 5 9 .3 0-1.5-4.1-4-9-2.5-5-4.7-9-5-9-.3 0 1.5 4 4 9zm-148.3-6c0 1.4.2 1.9.5 1.2.2-.6.2-1.8 0-2.5-.3-.6-.5-.1-.5 1.3zm799.9 1.6c0 1.1.3 1.4.6.6.3-.7.2-1.6-.1-1.9-.3-.4-.6.2-.5 1.3zm-801 5c0 1.1.3 1.4.6.6.3-.7.2-1.6-.1-1.9-.3-.4-.6.2-.5 1.3zm800 0c0 1.1.3 1.4.6.6.3-.7.2-1.6-.1-1.9-.3-.4-.6.2-.5 1.3zm-.9 5.4c0 1.4.2 1.9.5 1.2.2-.6.2-1.8 0-2.5-.3-.6-.5-.1-.5 1.3zm-800.1.6c0 1.1.3 1.4.6.6.3-.7.2-1.6-.1-1.9-.3-.4-.6.2-.5 1.3zm160.4 12.4c2.5 4.9 4.7 9 5 9 .3 0-1.5-4.1-4-9-2.5-5-4.7-9-5-9-.3 0 1.5 4 4 9zm638.6-7.4c0 1.1.3 1.4.6.6.3-.7.2-1.6-.1-1.9-.3-.4-.6.2-.5 1.3zm-800 1c0 1.1.3 1.4.6.6.3-.7.2-1.6-.1-1.9-.3-.4-.6.2-.5 1.3zm799 4c0 1.1.3 1.4.6.6.3-.7.2-1.6-.1-1.9-.3-.4-.6.2-.5 1.3zm-800 2c0 1.1.3 1.4.6.6.3-.7.2-1.6-.1-1.9-.3-.4-.6.2-.5 1.3zm799 3c0 1.1.3 1.4.6.6.3-.7.2-1.6-.1-1.9-.3-.4-.6.2-.5 1.3zm-800.1 3.2c0 1-.7 2.9-1.6 4.2l-1.6 2.5 2.1-2.4c1.9-2.1 2.9-6.1 1.6-6.1-.3 0-.5.8-.5 1.8zm799.1 1.8c0 1.1.3 1.4.6.6.3-.7.2-1.6-.1-1.9-.3-.4-.6.2-.5 1.3zm-629.5 3.7c.3 1 .9 1.5 1.2 1.2.3-.3 0-1.1-.7-1.8-1-.9-1.1-.8-.5.6zm627.5 5.3c0 1.1.3 1.4.6.6.3-.7.2-1.6-.1-1.9-.3-.4-.6.2-.5 1.3zm-1 5c0 1.1.3 1.4.6.6.3-.7.2-1.6-.1-1.9-.3-.4-.6.2-.5 1.3zm-1 4c0 1.1.3 1.4.6.6.3-.7.2-1.6-.1-1.9-.3-.4-.6.2-.5 1.3zm-1 5c0 1.1.3 1.4.6.6.3-.7.2-1.6-.1-1.9-.3-.4-.6.2-.5 1.3zm-1 4c0 1.1.3 1.4.6.6.3-.7.2-1.6-.1-1.9-.3-.4-.6.2-.5 1.3zm-1 4c0 1.1.3 1.4.6.6.3-.7.2-1.6-.1-1.9-.3-.4-.6.2-.5 1.3zm-7 28c0 1.1.3 1.4.6.6.3-.7.2-1.6-.1-1.9-.3-.4-.6.2-.5 1.3zm-1 4c0 1.1.3 1.4.6.6.3-.7.2-1.6-.1-1.9-.3-.4-.6.2-.5 1.3zm-2 7c0 1.1.3 1.4.6.6.3-.7.2-1.6-.1-1.9-.3-.4-.6.2-.5 1.3zm-2 7c0 1.1.3 1.4.6.6.3-.7.2-1.6-.1-1.9-.3-.4-.6.2-.5 1.3zm-2 7c0 1.1.3 1.4.6.6.3-.7.2-1.6-.1-1.9-.3-.4-.6.2-.5 1.3zm-6.9 21.1c-1.2 3.7-2 6.9-1.8 7.1.2.2 1.4-2.7 2.6-6.3 1.2-3.6 2-6.8 1.8-7-.2-.3-1.4 2.6-2.6 6.2zm-6.6 18.8c-.9 2.6-.7 3.2.5 1.2.6-1 .9-2.1.6-2.3-.2-.3-.7.2-1.1 1.1zm-2.5 6.6c-.6 1.8-.9 3.4-.7 3.6.2.2.9-1 1.5-2.8.6-1.8.9-3.4.7-3.6-.2-.2-.9 1-1.5 2.8zm-2.9 7.4c-1.7 3.7-1.4 4.5.4 1.2.9-1.6 1.4-3.1 1.1-3.3-.2-.2-.9.7-1.5 2.1zm-2.6 6c-.9 2.6-.7 3.2.5 1.2.6-1 .9-2.1.6-2.3-.2-.3-.7.2-1.1 1.1zm-3.9 9c-2.4 5-2 5.8.4 1.2 1.1-2.2 1.9-4.1 1.7-4.3-.3-.2-1.2 1.2-2.1 3.1zm-5.1 11.2c-.6 1.4-.5 1.5.5.6.7-.7 1-1.5.7-1.8-.3-.3-.9.2-1.2 1.2zm-8.6 15.4c-11.2 19.4-26 35.6-38.4 42-3.6 1.8-6.3 3.5-6.1 3.7.2.2 3-1 6.3-2.8 11.4-6.1 22.3-16.9 32.7-32.5 5.7-8.7 12-19.5 11.2-19.5-.2 0-2.8 4.1-5.7 9.1zm-48.2 46.6c.7.3 1.6.2 1.9-.1.4-.3-.2-.6-1.3-.5-1.1 0-1.4.3-.6.6zm-4 1c.7.3 1.6.2 1.9-.1.4-.3-.2-.6-1.3-.5-1.1 0-1.4.3-.6.6zM1254.5 1574c0 40.4.1 57 .2 36.7.2-20.2.2-53.2 0-73.5-.1-20.2-.2-3.6-.2 36.8zm.7 79c0 1.4.2 1.9.5 1.2.2-.6.2-1.8 0-2.5-.3-.6-.5-.1-.5 1.3zm-454.2 7.3c0 .2 1.5 1.6 3.3 3.3l3.2 2.9-2.9-3.3c-2.8-3-3.6-3.7-3.6-2.9zm456.1.7c0 .8.4 2.2.9 3 1.2 1.8 1.2.2 0-2.5-.6-1.3-.9-1.5-.9-.5zm1.9 5.5c0 .5.5 1.7 1 2.5s1 1 1 .5c0-.6-.5-1.7-1-2.5s-1-1.1-1-.5zm-40.8 8.9c-4.1 7.6-11.1 14.4-31.2 30.1-10.9 8.6-20.4 16.3-21.1 17.2-3 3.6 40-30.9 44.7-35.9 4.8-5.1 11.1-14.4 10.2-15.3-.2-.2-1.4 1.5-2.6 3.9zm44.7-.8c3.8 7.9 11 15.1 31.1 30.9 19.2 15.1 25.7 19.9 22 16.3-.8-.8-9.7-7.9-19.8-15.8-19.4-15.2-25.7-20.9-30-27.6-4.8-7.5-5.3-8-3.3-3.8zm54.2 51c0 1.1.3 1.4.6.6.3-.7.2-1.6-.1-1.9-.3-.4-.6.2-.5 1.3zm-150.9 3c1 1 2 1.6 2.2 1.3.3-.3-.5-1.1-1.7-1.8-2.1-1.3-2.1-1.2-.5.5zm148.8.4c-.9.6-1 1-.3 1 .6 0 1.5-.5 1.8-1 .8-1.2.4-1.2-1.5 0z"/></g><path fill="gray" fill-opacity=".4" d="M1074.4 478.4c-.3.8-.4 2.3-.2 3.3.3 1.1.6.6.9-1.5.6-3.4.2-4.2-.7-1.8zm-237.9 617.3c75.7.7 134.3.7 133.8 0-.2-.4-37-.6-81.6-.5-44.7.2-68.1.4-52.2.5z"/><path fill="#404080" fill-opacity=".7" d="M1188.2 447c0 1.4.2 1.9.5 1.2.2-.6.2-1.8 0-2.5-.3-.6-.5-.1-.5 1.3zm0 67c0 1.4.2 1.9.5 1.2.2-.6.2-1.8 0-2.5-.3-.6-.5-.1-.5 1.3zM886.3 999c0 4.1.2 5.8.4 3.7.2-2 .2-5.4 0-7.5-.2-2-.4-.3-.4 3.8zm122 17.7c36.1.2 95.3.2 131.5 0 36.1-.1 6.5-.2-65.8-.2s-101.9.1-65.7.2zm-94.3 28-27.5 27.8 27.8-27.5c25.7-25.5 28.2-28 27.4-28-.1 0-12.6 12.5-27.7 27.7zm-100 627.7c0 .2.8 1 1.8 1.7 1.5 1.3 1.6 1.2.3-.4s-2.1-2.1-2.1-1.3z"/><path fill="#000040" fill-opacity=".8" d="M1098.2 434c0 1.9.2 2.7.5 1.7.2-.9.2-2.5 0-3.5-.3-.9-.5-.1-.5 1.8zm92.8 1.5c1.3 1.4 2.6 2.5 2.8 2.5.3 0-.5-1.1-1.8-2.5s-2.6-2.5-2.8-2.5c-.3 0 .5 1.1 1.8 2.5zm-2.9 16.1c0 1.1.3 1.4.6.6.3-.7.2-1.6-.1-1.9-.3-.4-.6.2-.5 1.3zm7 1c0 1.1.3 1.4.6.6.3-.7.2-1.6-.1-1.9-.3-.4-.6.2-.5 1.3zM1090.2 466c0 1.9.2 2.7.5 1.7.2-.9.2-2.5 0-3.5-.3-.9-.5-.1-.5 1.8zm-6.9 1.5c0 2.2.2 3 .4 1.7.2-1.2.2-3 0-4-.3-.9-.5.1-.4 2.3zm-291.4 1.2-2.4 2.8 2.8-2.4c1.5-1.4 2.7-2.6 2.7-2.8 0-.8-.8-.1-3.1 2.4zm289 7c-1.3 1.6-1.2 1.7.4.4.9-.7 1.7-1.5 1.7-1.7 0-.8-.8-.3-2.1 1.3zm114.1-1.3c0 .2.8 1 1.8 1.7 1.5 1.3 1.6 1.2.3-.4s-2.1-2.1-2.1-1.3zm-108.6 2.8-1.9 2.3 2.3-1.9c2.1-1.8 2.7-2.6 1.9-2.6-.2 0-1.2 1-2.3 2.2zm104.1-.2c1 1.1 2 2 2.3 2 .3 0-.3-.9-1.3-2s-2-2-2.3-2c-.3 0 .3.9 1.3 2zm-.1 7.2-1.9 2.3 2.3-1.9c1.2-1.1 2.2-2.1 2.2-2.3 0-.8-.8-.2-2.6 1.9zm-107.1 9.3c0 2.2.2 3 .4 1.7.2-1.2.2-3 0-4-.3-.9-.5.1-.4 2.3zm6.9 2.5c0 1.9.2 2.7.5 1.7.2-.9.2-2.5 0-3.5-.3-.9-.5-.1-.5 1.8zm95.7 26.7c-1.3 1.6-1.2 1.7.4.4.9-.7 1.7-1.5 1.7-1.7 0-.8-.8-.3-2.1 1.3zm-100.4 3.3c1 1.1 2 2 2.3 2 .3 0-.3-.9-1.3-2s-2-2-2.3-2c-.3 0 .3.9 1.3 2zm12.7 2c0 1.9.2 2.7.5 1.7.2-.9.2-2.5 0-3.5-.3-.9-.5-.1-.5 1.8zm92.7-1.3c-1.3 1.6-1.2 1.7.4.4.9-.7 1.7-1.5 1.7-1.7 0-.8-.8-.3-2.1 1.3zM792 628.5c1.3 1.4 2.6 2.5 2.8 2.5.3 0-.5-1.1-1.8-2.5s-2.6-2.5-2.8-2.5c-.3 0 .5 1.1 1.8 2.5zm209.7 143.2c63.4.2 167.2.2 230.5 0 63.4-.1 11.6-.2-115.2-.2s-178.6.1-115.3.2zm76.2 728c-1.3 1.6-1.2 1.7.4.4.9-.7 1.7-1.5 1.7-1.7 0-.8-.8-.3-2.1 1.3zm-5.5 4.5-1.9 2.3 2.3-1.9c2.1-1.8 2.7-2.6 1.9-2.6-.2 0-1.2 1-2.3 2.2zm-6 5-1.9 2.3 2.3-1.9c2.1-1.8 2.7-2.6 1.9-2.6-.2 0-1.2 1-2.3 2.2zm-4.2 4.8c0 1.4.2 1.9.5 1.2.2-.6.2-1.8 0-2.5-.3-.6-.5-.1-.5 1.3zm.9 10.6c0 1.1.3 1.4.6.6.3-.7.2-1.6-.1-1.9-.3-.4-.6.2-.5 1.3zm2 19c0 1.1.3 1.4.6.6.3-.7.2-1.6-.1-1.9-.3-.4-.6.2-.5 1.3zm-106.2 79.1c-1.3 1.6-1.2 1.7.4.4.9-.7 1.7-1.5 1.7-1.7 0-.8-.8-.3-2.1 1.3zm-4 5c-1.3 1.6-1.2 1.7.4.4.9-.7 1.7-1.5 1.7-1.7 0-.8-.8-.3-2.1 1.3zm-4.5 5.5-1.9 2.3 2.3-1.9c2.1-1.8 2.7-2.6 1.9-2.6-.2 0-1.2 1-2.3 2.2zm-4.5 5.5c-1.3 1.6-1.2 1.7.4.4.9-.7 1.7-1.5 1.7-1.7 0-.8-.8-.3-2.1 1.3zm-4.5 5.5-1.9 2.3 2.3-1.9c1.2-1.1 2.2-2.1 2.2-2.3 0-.8-.8-.2-2.6 1.9zm-5 6-1.9 2.3 2.3-1.9c1.2-1.1 2.2-2.1 2.2-2.3 0-.8-.8-.2-2.6 1.9zm-5.5 6.5c-1.3 1.6-1.2 1.7.4.4 1.6-1.3 2.1-2.1 1.3-2.1-.2 0-1 .8-1.7 1.7zm-7 8-2.4 2.8 2.8-2.4c1.5-1.4 2.7-2.6 2.7-2.8 0-.8-.8-.1-3.1 2.4z"/><path fill="#000040" d="M1090.1 433.2c-3.4 1.6-4.8 3.2-6.4 6.7-1.8 4.2-1.9 5.3-.9 17 .6 6.9.9 13.9.5 15.4-.6 3-3.7 5.7-6.5 5.7-3.2 0-2.2 4.3 1.5 6 5.3 2.5 6 5.3 4.7 18.6-.6 6.4-.8 13.4-.5 15.6.8 4.7 5.4 10.3 9.3 11.2 1.5.4 3.5.9 4.5 1.2 1.3.4 1.7-.1 1.7-2.5 0-2.6-.4-3.1-2.3-3.1-1.3 0-3.2-.9-4.3-2.1-1.7-1.9-1.9-3.8-1.9-19.1v-17.1l-3.6-3-3.6-3.1 4-3.8 4-3.8-.7-15c-.8-17.8.1-20.9 6.2-21 1.8 0 2.2-.6 2.2-3 0-3.7-1.7-3.9-7.9-.8zm89.1.5c.2 2.1.9 2.9 2.8 3.1 6.3.9 7.7 5.5 6.1 20.2-1.4 12.6-.5 16.8 4.4 20.7l3.4 2.7-3.5 3c-4.8 4.2-5.6 8.5-4.3 21.4.6 5.7.8 11.9.5 13.7-.7 3.8-3.8 6.5-7.3 6.5-1.7 0-2.3.6-2.3 2.3 0 3.3.6 3.6 5.3 2.5 9.7-2.2 12.3-8.6 10.6-26.8-1.4-14.2-.6-17.2 4.7-19.2 4.6-1.6 4.7-5 .2-6.3-5.5-1.6-6.3-4.7-4.9-19.4 1.3-14.4.6-18.3-3.7-22.4-2.6-2.5-7.8-4.7-11-4.7-.9 0-1.2 1-1 2.7zm-379.5 30.8c-4.8 1.7-8.5 5-10.3 9.2-2.1 4.8-2.1 144.8 0 149.6 1.7 4.1 6.2 8.1 10.5 9.6 2.4.8 30 1.1 98 1.1h94.7l4.4-2.3c3.3-1.6 5.1-3.4 6.8-6.7l2.2-4.4V549c0-67.2-.2-71.7-1.9-75.5-2.2-4.9-4.8-7.3-9.8-9.1-5.7-2-189-2-194.6.1zm38.1 56.8c.6.7 1.3 6 1.4 11.8l.3 10.4 6.8.3 6.7.3V534c0-10.7.9-14 3.8-14 4 0 4.2 1.5 4.2 28.5s-.2 28.5-4.2 28.5c-2.9 0-3.8-3.4-3.8-15v-11.1l-6.7.3-6.8.3-.3 11.4c-.3 11.7-1 14.1-4.3 14.1-3.5 0-3.9-3.2-3.9-28.5 0-15.1.4-25.4 1-26.6 1.2-2.2 4.2-2.5 5.8-.6zm55.1.4c1.6 3-.5 5.3-4.8 5.3-2.6 0-4.1.5-4.5 1.6-.3.9-.6 11.9-.6 24.5 0 20.3-.2 23-1.6 23.6-.9.3-2.4.2-3.3-.4-1.4-.9-1.7-4.4-2.1-24.9l-.5-23.9-4.5-.5c-3.3-.4-4.6-1-4.8-2.3-.8-4 1.4-4.7 13.9-4.7 10.1 0 11.9.2 12.8 1.7zm14.9-.5c.5.7 3.2 10.2 6 21.1l5 19.8 4.7-19.8c2.6-10.9 5.2-20.4 5.7-21.1 1.4-1.6 5.3-1.6 6.6.1.7.8 1.8 12.4 2.7 27.1 1.6 26.3 1.4 28.6-2 28.6-2.6 0-3.3-2.9-3.9-16.5-1.2-25.6-1.1-25.6-6.7-4-2.7 10.5-4.9 19.1-4.9 19.3 0 .2-1.2.2-2.7 0-2.7-.3-2.8-.8-8-20.8l-5.2-20.5-.2 11.5c-.2 19.9-1.2 29.1-3.1 30.4-1.3.8-2.1.7-3.2-.4-1.2-1.3-1.2-4.9.1-27.5.9-14.3 2-26.6 2.5-27.3.6-.6 2.1-1.2 3.3-1.2 1.2 0 2.7.6 3.3 1.2zm46.1.1c.7.9 1.2 9.6 1.3 24.8l.3 23.4 6.7.5c7.4.6 9.9 2 8.2 4.8-.9 1.3-2.9 1.8-9.5 2-4.6.2-9.4 0-10.6-.3l-2.3-.5v-27.4c0-21 .3-27.6 1.3-27.9 2.1-.9 3.4-.7 4.6.6zM887 921.7v149.8l27.8-27.8 27.7-27.7h130.8c71.9 0 130.7-.2 130.7-.5s-1.8-4.2-4.1-8.6c-4-8.1-11.9-29.8-11.9-33.1 0-.9-.5-2-1-2.3-1.5-.9-9.2 3-15.2 7.7l-5 4-3-2.9c-5.3-4.9-7.8-11.6-7.8-20.9 0-8.4 2.6-20.7 5.6-26.6 4.4-8.6 14.1-16.4 23-18.2 2.9-.6 3.2-1.1 3.7-5.2.8-7.1 6.9-18.5 12.8-23.8 9.9-8.9 24.4-13.8 40.9-14 8.5-.1 10.1.2 15.3 2.8 5.4 2.6 8.1 5.4 12.3 12.2.7 1.1 1.5 1.6 1.8 1.3.8-.7-3-12.9-4.5-14.3-2.7-2.9 1.1-3.5 6.9-1 7.8 3.2 12.2 10.5 13.6 22.5.4 3.1 1.3 6.4 2 7.4 1.1 1.6 1.4 1.6 4.7-.4 3.3-2 9.1-2.7 12.3-1.5 2 .8 2.1 2.4.1 2.4-1.9 0-8.7 6.1-10.4 9.4-1.3 2.3-1.1 2.7 4.1 7.8 14.7 14.3 15.3 26.6 2.8 53.7-4.4 9.6-5.5 12.7-7.4 21.3l-.6 2.7 7.2-3.4c9.4-4.2 20.8-7.8 34.2-10.6l10.6-2.2V772H887v149.7zm406.4-131.1c.9.8 1.6 2.5 1.6 3.7 0 3.1-69.6 72.7-72.7 72.7-2.6 0-5.3-2.5-5.3-4.8 0-2.2 71-73.2 73.2-73.2.9 0 2.4.7 3.2 1.6zm-123.6 5.6c1.7 1.7 1.5 5.4-.4 7.2-1.4 1.4-14.6 1.6-131 1.6-128.1 0-129.4 0-131.4-2-2.4-2.4-2.5-3.8-.3-6.2 1.5-1.7 6.9-1.8 131.8-1.8 99.8 0 130.4.3 131.3 1.2zm-.4 28.4c1.9 1.8 2.1 5.5.4 7.2-.9.9-31.4 1.2-131.2 1.2-119.5 0-130.1-.1-131.8-1.7-2.3-2.1-2.3-3.8.2-6.3 2-2 3.3-2 131.4-2 116.4 0 129.6.2 131 1.6zm-121.6 28.6c.7.7 1.2 2.1 1.2 3.3 0 1.2-.5 2.6-1.2 3.3-.9.9-18 1.2-71 1.2H907l-1.1-2.4c-.8-1.7-.8-2.9 0-4.5l1.2-2.1h69.7c53 0 70.1.3 71 1.2zm122 0c.7.7 1.2 2.1 1.2 3.3 0 4.5.3 4.5-53 4.5s-53 0-53-4.5c0-1.2.5-2.6 1.2-3.3 1.7-1.7 101.9-1.7 103.6 0zm-.4 56.4c1.9 1.8 2.1 5.5.4 7.2-.9.9-31.5 1.2-131.4 1.2-117.1 0-130.4-.2-131.8-1.6-2.1-2.1-2-4 .4-6.4 2-2 3.3-2 131.4-2 116.4 0 129.6.2 131 1.6zm-121.6 28.6c1.9 1.9 1.4 5.5-1 7.2-2 1.4-10.2 1.6-69 1.6-39.3 0-67.7-.4-69.1-.9-3-1.2-4.2-4.3-2.7-7.1 1.1-2 1.7-2 70.8-2 53 0 70.1.3 71 1.2zm-.4 28.4c.9.8 1.6 2.4 1.6 3.4s-.7 2.6-1.6 3.4c-1.4 1.4-9.1 1.6-70.4 1.6h-69l-1.6-2.5c-1.5-2.3-1.5-2.7 0-5l1.6-2.5h69c61.3 0 69 .2 70.4 1.6zm88.6 333.8c-109 36.8-170 66.1-180.5 86.6-3.4 6.8-4.5 13.7-4.5 29.3 0 15.9 1.9 34.6 5.6 54.4 1.3 7.3 2.4 13.9 2.4 14.7 0 .8-4.4 8.3-9.8 16.8-13.9 21.5-28.2 44.8-38 61.8-24.9 43-31.9 55.3-35.8 63.4l-4.3 8.8 2.9 3.6c1.7 2 3 3.9 3 4.3 0 1.3-11.8 5.8-17.9 6.8-8 1.3-18.8-.1-25.1-3.2-3.7-1.8-4.7-2.9-5.4-5.9-1.1-4.4-1.7-4.6-21.5-5.4-14.6-.6-14.6-.6-12.6 1.3 7.1 7.1 99.8 82.3 100.7 81.7 1.3-.8 14.3-27.8 18.7-39.1 2.5-6.2 4.7-9.7 9.1-14.5 5.9-6.4 29.4-34.5 50.7-60.6 6.4-7.9 11.9-13.9 12.3-13.5.4.4 1.7 4.4 3 8.8 6.3 22 18.2 56.6 20.2 58.4 2.8 2.7 9.9 4.1 21.6 4.3l9.7.2-8.7.3-8.8.4v4.1c0 2.3-.5 7.1-1.1 10.7-1.5 8.5-3.3 10.1-20.2 18.4-16.9 8.3-22.9 10.2-26.6 8.2-1.5-.7-3.3-2.1-4-2.9-.8-.9-2.2-1.6-3.2-1.6-2.9 0-29 13.6-33.4 17.5l-4 3.4 77 .1h77l-.7-14.7c-1.3-26.5-3.8-49.5-6-53.6-.8-1.5-16.1-140.9-15.5-141.2.1-.1 4.3-3.5 9.3-7.6 5-4.1 23.2-18.7 40.4-32.4l31.3-25-43.7-.5c-40.9-.5-43.7-.6-42-2.2 1.1-.9 14.7-9.9 30.4-20l28.5-18.3 49.5-3.3c54-3.6 56-3.8 56-5.7 0-.6 1.4-3.9 3-7.2 5.2-10.4 12.4-14.1 32.5-16.8 6.4-.8 12.5-2 13.6-2.5 7-3.8 9.5-23.4 6.3-49.6l-.6-5.1-9.2-1.2c-34.6-4.5-67.6-13.1-85.8-22.2-4.2-2.1-8.8-3.9-10-3.9-1.3.1-17.4 5.2-35.8 11.4zm-253.4 347.8 2.9 3.3-3.2-2.9c-1.8-1.7-3.3-3.1-3.3-3.3 0-.8.8-.1 3.6 2.9zm5.9 4.8c1 1.1 1.6 2 1.3 2-.3 0-1.3-.9-2.3-2-1-1.1-1.6-2-1.3-2 .3 0 1.3.9 2.3 2zm185 2c-.3.5-1.2 1-1.8 1-.7 0-.6-.4.3-1 1.9-1.2 2.3-1.2 1.5 0zm-179.4 2.7c1.3 1.6 1.2 1.7-.3.4-1-.7-1.8-1.5-1.8-1.7 0-.8.8-.3 2.1 1.3zm4 3c1.3 1.6 1.2 1.7-.3.4-1-.7-1.8-1.5-1.8-1.7 0-.8.8-.3 2.1 1.3zm163.6-1.1c-.3.3-1.2.4-1.9.1-.8-.3-.5-.6.6-.6 1.1-.1 1.7.2 1.3.5zm-4 1c-.3.3-1.2.4-1.9.1-.8-.3-.5-.6.6-.6 1.1-.1 1.7.2 1.3.5zm-5 1c-.3.3-1.2.4-1.9.1-.8-.3-.5-.6.6-.6 1.1-.1 1.7.2 1.3.5zm-5.4 1.1c-.7.2-2.1.2-3 0-1-.3-.4-.5 1.2-.5 1.7 0 2.4.2 1.8.5zm-134.3 7.9c0 .2-.9 0-2-.6s-2-1.3-2-1.6c0-.2.9 0 2 .6s2 1.3 2 1.6z"/><path fill="#404080" fill-opacity=".6" d="M1089.1 449.6c0 1.1.3 1.4.6.6.3-.7.2-1.6-.1-1.9-.3-.4-.6.2-.5 1.3zm105 19c0 1.1.3 1.4.6.6.3-.7.2-1.6-.1-1.9-.3-.4-.6.2-.5 1.3zm0 25c0 1.1.3 1.4.6.6.3-.7.2-1.6-.1-1.9-.3-.4-.6.2-.5 1.3zM919.9 1669.7l-2.4 2.8 2.8-2.4c1.5-1.4 2.7-2.6 2.7-2.8 0-.8-.8-.1-3.1 2.4z"/><path fill="#404080" fill-opacity=".5" d="M787.5 548.5c0 39 .1 55.2.2 35.8.2-19.3.2-51.3 0-71-.1-19.7-.2-3.9-.2 35.2zm301.6-33.9c0 1.1.3 1.4.6.6.3-.7.2-1.6-.1-1.9-.3-.4-.6.2-.5 1.3zM886.5 912.5c0 44 .1 61.9.2 39.7.2-22.2.2-58.2 0-80-.1-21.8-.2-3.7-.2 40.3zm-.1 127.5c0 17.9.2 25.2.3 16.2.2-8.9.2-23.5 0-32.5-.1-8.9-.3-1.6-.3 16.3z"/><path fill="#408080" fill-opacity=".4" d="M966.7 1730.7c21.5.2 57.1.2 79 0 21.9-.1 4.3-.2-39.2-.2-43.4 0-61.4.1-39.8.2z"/><path fill="#80BFBF" fill-opacity=".2" d="M1470.3 875.7c28 .2 73.4.2 101 0 27.6-.1 4.8-.2-50.8-.2-55.5 0-78.1.1-50.2.2zm-882.7 107c-.6 1.4-.5 1.5.5.6.7-.7 1-1.5.7-1.8-.3-.3-.9.2-1.2 1.2zm102.3 96c-1.3 1.6-1.2 1.7.4.4.9-.7 1.7-1.5 1.7-1.7 0-.8-.8-.3-2.1 1.3zm-86.7 87.3c0 1.4.2 1.9.5 1.2.2-.6.2-1.8 0-2.5-.3-.6-.5-.1-.5 1.3zm.9 6.6c0 1.1.3 1.4.6.6.3-.7.2-1.6-.1-1.9-.3-.4-.6.2-.5 1.3zm1 6c0 1.1.3 1.4.6.6.3-.7.2-1.6-.1-1.9-.3-.4-.6.2-.5 1.3zm1 6c0 1.1.3 1.4.6.6.3-.7.2-1.6-.1-1.9-.3-.4-.6.2-.5 1.3zm1.1 6.4c0 1.4.2 1.9.5 1.2.2-.6.2-1.8 0-2.5-.3-.6-.5-.1-.5 1.3zm1 6c0 1.4.2 1.9.5 1.2.2-.6.2-1.8 0-2.5-.3-.6-.5-.1-.5 1.3zm1 6c0 1.4.2 1.9.5 1.2.2-.6.2-1.8 0-2.5-.3-.6-.5-.1-.5 1.3zm.9 6.6c0 1.1.3 1.4.6.6.3-.7.2-1.6-.1-1.9-.3-.4-.6.2-.5 1.3zm1 6c0 1.1.3 1.4.6.6.3-.7.2-1.6-.1-1.9-.3-.4-.6.2-.5 1.3zm.9 4.3c0 1 2.9 3.6 3.4 3 .1-.2-.6-1.2-1.6-2.2-1-.9-1.8-1.3-1.8-.8zm642.2 253.8c.2 27.9.6 24.7 1-9.5.2-10 0-18.2-.4-18.2-.5 0-.7 12.5-.6 27.7zm-718.9-3.2c0 2.7.2 3.8.4 2.2.2-1.5.2-3.7 0-5-.2-1.2-.4 0-.4 2.8zm918 97.5c0 4.1.2 5.8.4 3.7.2-2 .2-5.4 0-7.5-.2-2-.4-.3-.4 3.8z"/><path fill="#BFBF80" fill-opacity=".1" d="M1047.3 1184.7c.9.2 2.5.2 3.5 0 .9-.3.1-.5-1.8-.5-1.9 0-2.7.2-1.7.5zm71.5 0c2.3.2 5.9.2 8 0 2-.2.1-.4-4.3-.4-4.4 0-6.1.2-3.7.4zm152 546c1.8.2 4.5.2 6 0s0-.4-3.3-.4-4.5.2-2.7.4z"/><path fill="#FF4000" fill-opacity=".9" d="M1138 457.4c0 .2.7.7 1.6 1 .8.3 1.2.2.9-.4-.6-1-2.5-1.4-2.5-.6zm21 23.4.5 12.7.3-11.9c.1-6.6-.1-12.3-.5-12.7-.4-.5-.6 4.9-.3 11.9zm132.8 128.9c.7.3 1.6.2 1.9-.1.4-.3-.2-.6-1.3-.5-1.1 0-1.4.3-.6.6zm25.8 5.6c.3 1 .9 1.5 1.2 1.2.3-.3 0-1.1-.7-1.8-1-.9-1.1-.8-.5.6zm-52.7 4.4c-1.3 1.6-1.2 1.7.4.4.9-.7 1.7-1.5 1.7-1.7 0-.8-.8-.3-2.1 1.3zm-5.5 4.5-2.9 3.3 3.3-2.9c1.7-1.7 3.2-3.1 3.2-3.3 0-.8-.8-.1-3.6 2.9zm1.1 2-4 4.3 4.3-4c3.9-3.6 4.7-4.5 3.9-4.5-.2 0-2.1 1.9-4.2 4.2zm82.3.5c.6.2.9 1 .6 1.5-.4.7-.2.8.5.4 1.3-.9.5-2.6-1.2-2.5-.9 0-.8.2.1.6zm-88.9 4c-1.3 1.6-1.2 1.7.4.4 1.6-1.3 2.1-2.1 1.3-2.1-.2 0-1 .8-1.7 1.7zm83.1 1.7c0 .2.8 1 1.8 1.7 1.5 1.3 1.6 1.2.3-.4s-2.1-2.1-2.1-1.3zm-7.9 2.2c0 1.1.3 1.4.6.6.3-.7.2-1.6-.1-1.9-.3-.4-.6.2-.5 1.3zm-79.1 2.5c-.7 1.1-1 2.3-.7 2.5.2.2.9-.7 1.5-2.1 1.4-3 .7-3.3-.8-.4zm80.2.5c-.7.8-.8 1.4-.3 1.4 1 0 2.5-1.9 2-2.5-.2-.1-1 .3-1.7 1.1zm-830.4 22.1c14.5.2 37.9.2 52 0 14.1-.1 2.3-.2-26.3-.2s-40.2.1-25.7.2zm845.5 3.3c0 2.5.2 3.5.4 2.2.2-1.2.2-3.2 0-4.5-.2-1.2-.4-.2-.4 2.3zm-761.7 2.3c.3 1 .9 1.5 1.2 1.2.3-.3 0-1.1-.7-1.8-1-.9-1.1-.8-.5.6zm763.5 3.3c0 1.1.3 1.4.6.6.3-.7.2-1.6-.1-1.9-.3-.4-.6.2-.5 1.3zm-765.2 7.1c-1.3 1.6-1.2 1.7.4.4 1.6-1.3 2.1-2.1 1.3-2.1-.2 0-1 .8-1.7 1.7zm759.7 10c-.6 1.4-.5 1.5.5.6.7-.7 1-1.5.7-1.8-.3-.3-.9.2-1.2 1.2zm-85.6 3.7c0 .2.8 1 1.8 1.7 1.5 1.3 1.6 1.2.3-.4s-2.1-2.1-2.1-1.3zm78.9 3.3c-1.3 1.6-1.2 1.7.4.4 1.6-1.3 2.1-2.1 1.3-2.1-.2 0-1 .8-1.7 1.7zm-2.9 5.8c-2.4 2.5-4.2 4.5-3.9 4.5.3 0 2.5-2 4.9-4.5 2.4-2.5 4.2-4.5 3.9-4.5-.3 0-2.5 2-4.9 4.5zm-81.2-1.8c.7.3 1.6.2 1.9-.1.4-.3-.2-.6-1.3-.5-1.1 0-1.4.3-.6.6zm9 1c.7.3 1.6.2 1.9-.1.4-.3-.2-.6-1.3-.5-1.1 0-1.4.3-.6.6zm67.1 3c-1.3 1.6-1.2 1.7.4.4.9-.7 1.7-1.5 1.7-1.7 0-.8-.8-.3-2.1 1.3zm-858 9c-1.3 1.6-1.2 1.7.4.4.9-.7 1.7-1.5 1.7-1.7 0-.8-.8-.3-2.1 1.3zm112.6.3c1 1.1 2 2 2.3 2 .3 0-.3-.9-1.3-2s-2-2-2.3-2c-.3 0 .3.9 1.3 2zm-113 13c1 1.1 2 2 2.3 2 .3 0-.3-.9-1.3-2s-2-2-2.3-2c-.3 0 .3.9 1.3 2zm513.5 9.5c1.3 1.4 2.6 2.5 2.8 2.5.3 0-.5-1.1-1.8-2.5s-2.6-2.5-2.8-2.5c-.3 0 .5 1.1 1.8 2.5zm197.8 5.2c.7.3 1.6.2 1.9-.1.4-.3-.2-.6-1.3-.5-1.1 0-1.4.3-.6.6zm139.5 21.9c-.3.8-.2 1.9.3 2.4s.9-.1.9-1.6c0-2.8-.3-3-1.2-.8zm4.2.9c0 1.3.3 2.1.8 1.8.4-.2.7-1 .7-1.8s-.3-1.6-.7-1.8c-.5-.3-.8.5-.8 1.8zm-557.2 464.2c18.6.2 48.8.2 67 0 18.3-.1 3.1-.2-33.8-.2-36.8 0-51.8.1-33.2.2zM664 1251.4c0 .2.8 1 1.8 1.7 1.5 1.3 1.6 1.2.3-.4s-2.1-2.1-2.1-1.3zm4 5c0 .2.8 1 1.8 1.7 1.5 1.3 1.6 1.2.3-.4s-2.1-2.1-2.1-1.3zm4 5c0 .2.8 1 1.8 1.7 1.5 1.3 1.6 1.2.3-.4s-2.1-2.1-2.1-1.3zm4 5c0 .2.8 1 1.8 1.7 1.5 1.3 1.6 1.2.3-.4s-2.1-2.1-2.1-1.3zm4 5c0 .2.8 1 1.8 1.7 1.5 1.3 1.6 1.2.3-.4s-2.1-2.1-2.1-1.3zm4 5c0 .2.8 1 1.8 1.7 1.5 1.3 1.6 1.2.3-.4s-2.1-2.1-2.1-1.3zm4 5c0 .2.8 1 1.8 1.7 1.5 1.3 1.6 1.2.3-.4s-2.1-2.1-2.1-1.3zm5.5 6.6c1 1.1 2 2 2.3 2 .3 0-.3-.9-1.3-2s-2-2-2.3-2c-.3 0 .3.9 1.3 2zm4 5c1 1.1 2 2 2.3 2 .3 0-.3-.9-1.3-2s-2-2-2.3-2c-.3 0 .3.9 1.3 2zm4 5c1 1.1 2 2 2.3 2 .3 0-.3-.9-1.3-2s-2-2-2.3-2c-.3 0 .3.9 1.3 2zm3.5 4.4c0 .2.8 1 1.8 1.7 1.5 1.3 1.6 1.2.3-.4s-2.1-2.1-2.1-1.3zm4 5c0 .2.8 1 1.8 1.7 1.5 1.3 1.6 1.2.3-.4s-2.1-2.1-2.1-1.3zm4 5c0 .2.8 1 1.8 1.7 1.5 1.3 1.6 1.2.3-.4s-2.1-2.1-2.1-1.3zm4 5c0 .2.8 1 1.8 1.7 1.5 1.3 1.6 1.2.3-.4s-2.1-2.1-2.1-1.3zm4 5c0 .2.8 1 1.8 1.7 1.5 1.3 1.6 1.2.3-.4s-2.1-2.1-2.1-1.3zm4 5c0 .2.8 1 1.8 1.7 1.5 1.3 1.6 1.2.3-.4s-2.1-2.1-2.1-1.3zm4 5c0 .2.8 1 1.8 1.7 1.5 1.3 1.6 1.2.3-.4s-2.1-2.1-2.1-1.3zm5.5 6.6c1 1.1 2 2 2.3 2 .3 0-.3-.9-1.3-2s-2-2-2.3-2c-.3 0 .3.9 1.3 2zm4 5c1 1.1 2 2 2.3 2 .3 0-.3-.9-1.3-2s-2-2-2.3-2c-.3 0 .3.9 1.3 2zm4 5c1 1.1 2 2 2.3 2 .3 0-.3-.9-1.3-2s-2-2-2.3-2c-.3 0 .3.9 1.3 2zm3.5 4.4c0 .2.8 1 1.8 1.7 1.5 1.3 1.6 1.2.3-.4s-2.1-2.1-2.1-1.3zm4 5c0 .2.8 1 1.8 1.7 1.5 1.3 1.6 1.2.3-.4s-2.1-2.1-2.1-1.3zm4 5c0 .2.8 1 1.8 1.7 1.5 1.3 1.6 1.2.3-.4s-2.1-2.1-2.1-1.3zm4 5c0 .2.8 1 1.8 1.7 1.5 1.3 1.6 1.2.3-.4s-2.1-2.1-2.1-1.3zm4 5c0 .2.8 1 1.8 1.7 1.5 1.3 1.6 1.2.3-.4s-2.1-2.1-2.1-1.3zm4 5c0 .2.8 1 1.8 1.7 1.5 1.3 1.6 1.2.3-.4s-2.1-2.1-2.1-1.3zm5.5 6.6c1 1.1 2 2 2.3 2 .3 0-.3-.9-1.3-2s-2-2-2.3-2c-.3 0 .3.9 1.3 2zm4 5c1 1.1 2 2 2.3 2 .3 0-.3-.9-1.3-2s-2-2-2.3-2c-.3 0 .3.9 1.3 2zm4 5c1 1.1 2 2 2.3 2 .3 0-.3-.9-1.3-2s-2-2-2.3-2c-.3 0 .3.9 1.3 2zm3.5 4.4c0 .2.8 1 1.8 1.7 1.5 1.3 1.6 1.2.3-.4s-2.1-2.1-2.1-1.3zm4 5c0 .2.8 1 1.8 1.7 1.5 1.3 1.6 1.2.3-.4s-2.1-2.1-2.1-1.3zm4 5c0 .2.8 1 1.8 1.7 1.5 1.3 1.6 1.2.3-.4s-2.1-2.1-2.1-1.3zm4 5c0 .2.8 1 1.8 1.7 1.5 1.3 1.6 1.2.3-.4s-2.1-2.1-2.1-1.3zm4 5c0 .2.8 1 1.8 1.7 1.5 1.3 1.6 1.2.3-.4s-2.1-2.1-2.1-1.3zm4 5c0 .2.8 1 1.8 1.7 1.5 1.3 1.6 1.2.3-.4s-2.1-2.1-2.1-1.3zm5.5 6.6c1 1.1 2 2 2.3 2 .3 0-.3-.9-1.3-2s-2-2-2.3-2c-.3 0 .3.9 1.3 2zm4 5c1 1.1 2 2 2.3 2 .3 0-.3-.9-1.3-2s-2-2-2.3-2c-.3 0 .3.9 1.3 2zm4 5c1 1.1 2 2 2.3 2 .3 0-.3-.9-1.3-2s-2-2-2.3-2c-.3 0 .3.9 1.3 2zm3.5 4.4c0 .2.8 1 1.8 1.7 1.5 1.3 1.6 1.2.3-.4s-2.1-2.1-2.1-1.3zm4 5c0 .2.8 1 1.8 1.7 1.5 1.3 1.6 1.2.3-.4s-2.1-2.1-2.1-1.3zm4 5c0 .2.8 1 1.8 1.7 1.5 1.3 1.6 1.2.3-.4s-2.1-2.1-2.1-1.3zm4 5c0 .2.8 1 1.8 1.7 1.5 1.3 1.6 1.2.3-.4s-2.1-2.1-2.1-1.3zm4 5c0 .2.8 1 1.8 1.7 1.5 1.3 1.6 1.2.3-.4s-2.1-2.1-2.1-1.3zm4 5c0 .2.8 1 1.8 1.7 1.5 1.3 1.6 1.2.3-.4s-2.1-2.1-2.1-1.3zm.9 26.3c-1.3 1.6-1.2 1.7.4.4 1.6-1.3 2.1-2.1 1.3-2.1-.2 0-1 .8-1.7 1.7zm8 4c-1.3 1.6-1.2 1.7.4.4.9-.7 1.7-1.5 1.7-1.7 0-.8-.8-.3-2.1 1.3zm-12 1c-1.3 1.6-1.2 1.7.4.4.9-.7 1.7-1.5 1.7-1.7 0-.8-.8-.3-2.1 1.3zm28.1-.3c0 .2.8 1 1.8 1.7 1.5 1.3 1.6 1.2.3-.4s-2.1-2.1-2.1-1.3zm-20.1 4.3c-1.3 1.6-1.2 1.7.4.4.9-.7 1.7-1.5 1.7-1.7 0-.8-.8-.3-2.1 1.3zm-12 1c-1.3 1.6-1.2 1.7.4.4.9-.7 1.7-1.5 1.7-1.7 0-.8-.8-.3-2.1 1.3zm36.1-.3c0 .2.8 1 1.8 1.7 1.5 1.3 1.6 1.2.3-.4s-2.1-2.1-2.1-1.3zm-28.1 4.3c-1.3 1.6-1.2 1.7.4.4 1.6-1.3 2.1-2.1 1.3-2.1-.2 0-1 .8-1.7 1.7zm-12 1c-1.3 1.6-1.2 1.7.4.4 1.6-1.3 2.1-2.1 1.3-2.1-.2 0-1 .8-1.7 1.7zm44.1-.3c0 .2.8 1 1.8 1.7 1.5 1.3 1.6 1.2.3-.4s-2.1-2.1-2.1-1.3zm-36.1 4.3c-1.3 1.6-1.2 1.7.4.4 1.6-1.3 2.1-2.1 1.3-2.1-.2 0-1 .8-1.7 1.7zm-12 1c-1.3 1.6-1.2 1.7.4.4.9-.7 1.7-1.5 1.7-1.7 0-.8-.8-.3-2.1 1.3zm52.1-.3c0 .2.8 1 1.8 1.7 1.5 1.3 1.6 1.2.3-.4s-2.1-2.1-2.1-1.3zm-44.1 4.3c-1.3 1.6-1.2 1.7.4.4.9-.7 1.7-1.5 1.7-1.7 0-.8-.8-.3-2.1 1.3zm-12.5 1.5-1.9 2.3 2.3-1.9c2.1-1.8 2.7-2.6 1.9-2.6-.2 0-1.2 1-2.3 2.2zm62.1.8c1 1.1 2 2 2.3 2 .3 0-.3-.9-1.3-2s-2-2-2.3-2c-.3 0 .3.9 1.3 2zm-53.6 2.7c-1.3 1.6-1.2 1.7.4.4 1.6-1.3 2.1-2.1 1.3-2.1-.2 0-1 .8-1.7 1.7zm-12.5 1.5-1.9 2.3 2.3-1.9c2.1-1.8 2.7-2.6 1.9-2.6-.2 0-1.2 1-2.3 2.2zm70.1.8c1 1.1 2 2 2.3 2 .3 0-.3-.9-1.3-2s-2-2-2.3-2c-.3 0 .3.9 1.3 2zm-62.1 3.2-1.9 2.3 2.3-1.9c2.1-1.8 2.7-2.6 1.9-2.6-.2 0-1.2 1-2.3 2.2zm-12 1-1.9 2.3 2.3-1.9c2.1-1.8 2.7-2.6 1.9-2.6-.2 0-1.2 1-2.3 2.2zm78.1.8c1 1.1 2 2 2.3 2 .3 0-.3-.9-1.3-2s-2-2-2.3-2c-.3 0 .3.9 1.3 2zm-70.1 3.2-1.9 2.3 2.3-1.9c2.1-1.8 2.7-2.6 1.9-2.6-.2 0-1.2 1-2.3 2.2zm-12.5 1.5c-1.3 1.6-1.2 1.7.4.4 1.6-1.3 2.1-2.1 1.3-2.1-.2 0-1 .8-1.7 1.7zm86.1-.3c0 .2.8 1 1.8 1.7 1.5 1.3 1.6 1.2.3-.4s-2.1-2.1-2.1-1.3zm-77.6 3.8-1.9 2.3 2.3-1.9c2.1-1.8 2.7-2.6 1.9-2.6-.2 0-1.2 1-2.3 2.2zm-12.5 1.5c-1.3 1.6-1.2 1.7.4.4 1.6-1.3 2.1-2.1 1.3-2.1-.2 0-1 .8-1.7 1.7zm94.1-.3c0 .2.8 1 1.8 1.7 1.5 1.3 1.6 1.2.3-.4s-2.1-2.1-2.1-1.3zm-86.1 4.3c-1.3 1.6-1.2 1.7.4.4.9-.7 1.7-1.5 1.7-1.7 0-.8-.8-.3-2.1 1.3zm-12 1c-1.3 1.6-1.2 1.7.4.4.9-.7 1.7-1.5 1.7-1.7 0-.8-.8-.3-2.1 1.3zm102.1-.3c0 .2.8 1 1.8 1.7 1.5 1.3 1.6 1.2.3-.4s-2.1-2.1-2.1-1.3zm-94.1 4.3c-1.3 1.6-1.2 1.7.4.4 1.6-1.3 2.1-2.1 1.3-2.1-.2 0-1 .8-1.7 1.7zm-12 1c-1.3 1.6-1.2 1.7.4.4 1.6-1.3 2.1-2.1 1.3-2.1-.2 0-1 .8-1.7 1.7zm110.1-.3c0 .2.8 1 1.8 1.7 1.5 1.3 1.6 1.2.3-.4s-2.1-2.1-2.1-1.3zm-102.1 4.3c-1.3 1.6-1.2 1.7.4.4 1.6-1.3 2.1-2.1 1.3-2.1-.2 0-1 .8-1.7 1.7zm-12 1c-1.3 1.6-1.2 1.7.4.4.9-.7 1.7-1.5 1.7-1.7 0-.8-.8-.3-2.1 1.3zm8 4c-1.3 1.6-1.2 1.7.4.4.9-.7 1.7-1.5 1.7-1.7 0-.8-.8-.3-2.1 1.3zm-12 1c-1.3 1.6-1.2 1.7.4.4 1.6-1.3 2.1-2.1 1.3-2.1-.2 0-1 .8-1.7 1.7zm8 4c-1.3 1.6-1.2 1.7.4.4 1.6-1.3 2.1-2.1 1.3-2.1-.2 0-1 .8-1.7 1.7zm-12.5 1.5-1.9 2.3 2.3-1.9c2.1-1.8 2.7-2.6 1.9-2.6-.2 0-1.2 1-2.3 2.2zm8.5 3.5c-1.3 1.6-1.2 1.7.4.4.9-.7 1.7-1.5 1.7-1.7 0-.8-.8-.3-2.1 1.3zm-12.5 1.5-1.9 2.3 2.3-1.9c1.2-1.1 2.2-2.1 2.2-2.3 0-.8-.8-.2-2.6 1.9zm8 4-1.9 2.3 2.3-1.9c1.2-1.1 2.2-2.1 2.2-2.3 0-.8-.8-.2-2.6 1.9zm-12 1-1.9 2.3 2.3-1.9c1.2-1.1 2.2-2.1 2.2-2.3 0-.8-.8-.2-2.6 1.9zm8 4-1.9 2.3 2.3-1.9c1.2-1.1 2.2-2.1 2.2-2.3 0-.8-.8-.2-2.6 1.9zm-12.5 1.5c-1.3 1.6-1.2 1.7.4.4.9-.7 1.7-1.5 1.7-1.7 0-.8-.8-.3-2.1 1.3zm8.5 3.5-1.9 2.3 2.3-1.9c1.2-1.1 2.2-2.1 2.2-2.3 0-.8-.8-.2-2.6 1.9zm-12.5 1.5c-1.3 1.6-1.2 1.7.4.4.9-.7 1.7-1.5 1.7-1.7 0-.8-.8-.3-2.1 1.3zm8 4c-1.3 1.6-1.2 1.7.4.4.9-.7 1.7-1.5 1.7-1.7 0-.8-.8-.3-2.1 1.3zm-12 1c-1.3 1.6-1.2 1.7.4.4 1.6-1.3 2.1-2.1 1.3-2.1-.2 0-1 .8-1.7 1.7zm8 4c-1.3 1.6-1.2 1.7.4.4.9-.7 1.7-1.5 1.7-1.7 0-.8-.8-.3-2.1 1.3zm-12 1c-1.3 1.6-1.2 1.7.4.4.9-.7 1.7-1.5 1.7-1.7 0-.8-.8-.3-2.1 1.3zm8 4c-1.3 1.6-1.2 1.7.4.4.9-.7 1.7-1.5 1.7-1.7 0-.8-.8-.3-2.1 1.3zm-12 1c-1.3 1.6-1.2 1.7.4.4.9-.7 1.7-1.5 1.7-1.7 0-.8-.8-.3-2.1 1.3zm8 4c-1.3 1.6-1.2 1.7.4.4 1.6-1.3 2.1-2.1 1.3-2.1-.2 0-1 .8-1.7 1.7zm-12 1c-1.3 1.6-1.2 1.7.4.4 1.6-1.3 2.1-2.1 1.3-2.1-.2 0-1 .8-1.7 1.7zm8 4c-1.3 1.6-1.2 1.7.4.4.9-.7 1.7-1.5 1.7-1.7 0-.8-.8-.3-2.1 1.3zm-12.5 1.5-1.9 2.3 2.3-1.9c1.2-1.1 2.2-2.1 2.2-2.3 0-.8-.8-.2-2.6 1.9zm8.5 3.5c-1.3 1.6-1.2 1.7.4.4.9-.7 1.7-1.5 1.7-1.7 0-.8-.8-.3-2.1 1.3zm-12.5 1.5-1.9 2.3 2.3-1.9c1.2-1.1 2.2-2.1 2.2-2.3 0-.8-.8-.2-2.6 1.9zm8 4-1.9 2.3 2.3-1.9c2.1-1.8 2.7-2.6 1.9-2.6-.2 0-1.2 1-2.3 2.2zm-12 1-1.9 2.3 2.3-1.9c2.1-1.8 2.7-2.6 1.9-2.6-.2 0-1.2 1-2.3 2.2zm226.1.8c1 1.1 2 2 2.3 2 .3 0-.3-.9-1.3-2s-2-2-2.3-2c-.3 0 .3.9 1.3 2zm-218.1 3.2-1.9 2.3 2.3-1.9c1.2-1.1 2.2-2.1 2.2-2.3 0-.8-.8-.2-2.6 1.9zm-12.5 1.5c-1.3 1.6-1.2 1.7.4.4.9-.7 1.7-1.5 1.7-1.7 0-.8-.8-.3-2.1 1.3zm234.6.3c1 1.1 2 2 2.3 2 .3 0-.3-.9-1.3-2s-2-2-2.3-2c-.3 0 .3.9 1.3 2zm-226.1 3.2-1.9 2.3 2.3-1.9c1.2-1.1 2.2-2.1 2.2-2.3 0-.8-.8-.2-2.6 1.9zm-12.5 1.5c-1.3 1.6-1.2 1.7.4.4 1.6-1.3 2.1-2.1 1.3-2.1-.2 0-1 .8-1.7 1.7zm242.1-.3c0 .2.8 1 1.8 1.7 1.5 1.3 1.6 1.2.3-.4s-2.1-2.1-2.1-1.3zm-234.1 4.3c-1.3 1.6-1.2 1.7.4.4 1.6-1.3 2.1-2.1 1.3-2.1-.2 0-1 .8-1.7 1.7zm-12 1c-1.3 1.6-1.2 1.7.4.4 1.6-1.3 2.1-2.1 1.3-2.1-.2 0-1 .8-1.7 1.7zm250.1-.3c0 .2.8 1 1.8 1.7 1.5 1.3 1.6 1.2.3-.4s-2.1-2.1-2.1-1.3zm-242.1 4.3c-1.3 1.6-1.2 1.7.4.4 1.6-1.3 2.1-2.1 1.3-2.1-.2 0-1 .8-1.7 1.7zm-12 1c-1.3 1.6-1.2 1.7.4.4 1.6-1.3 2.1-2.1 1.3-2.1-.2 0-1 .8-1.7 1.7zm258.1-.3c0 .2.8 1 1.8 1.7 1.5 1.3 1.6 1.2.3-.4s-2.1-2.1-2.1-1.3zm-250.1 4.3c-1.3 1.6-1.2 1.7.4.4 1.6-1.3 2.1-2.1 1.3-2.1-.2 0-1 .8-1.7 1.7zm-12 1c-1.3 1.6-1.2 1.7.4.4 1.6-1.3 2.1-2.1 1.3-2.1-.2 0-1 .8-1.7 1.7zm266.1-.3c0 .2.8 1 1.8 1.7 1.5 1.3 1.6 1.2.3-.4s-2.1-2.1-2.1-1.3zm-258.1 4.3c-1.3 1.6-1.2 1.7.4.4.9-.7 1.7-1.5 1.7-1.7 0-.8-.8-.3-2.1 1.3zm-12 1c-1.3 1.6-1.2 1.7.4.4 1.6-1.3 2.1-2.1 1.3-2.1-.2 0-1 .8-1.7 1.7zm274.1-.3c0 .2.8 1 1.8 1.7 1.5 1.3 1.6 1.2.3-.4s-2.1-2.1-2.1-1.3zm-266.1 4.3c-1.3 1.6-1.2 1.7.4.4 1.6-1.3 2.1-2.1 1.3-2.1-.2 0-1 .8-1.7 1.7zm-12 1c-1.3 1.6-1.2 1.7.4.4.9-.7 1.7-1.5 1.7-1.7 0-.8-.8-.3-2.1 1.3zm282.1-.3c0 .2.8 1 1.8 1.7 1.5 1.3 1.6 1.2.3-.4s-2.1-2.1-2.1-1.3zm-274.1 4.3c-1.3 1.6-1.2 1.7.4.4.9-.7 1.7-1.5 1.7-1.7 0-.8-.8-.3-2.1 1.3zm-12.5 1.5-1.9 2.3 2.3-1.9c1.2-1.1 2.2-2.1 2.2-2.3 0-.8-.8-.2-2.6 1.9zm292.1.8c1 1.1 2 2 2.3 2 .3 0-.3-.9-1.3-2s-2-2-2.3-2c-.3 0 .3.9 1.3 2zm-284.1 3.2-1.9 2.3 2.3-1.9c2.1-1.8 2.7-2.6 1.9-2.6-.2 0-1.2 1-2.3 2.2zm-12 1-1.9 2.3 2.3-1.9c2.1-1.8 2.7-2.6 1.9-2.6-.2 0-1.2 1-2.3 2.2zm300.1.8c1 1.1 2 2 2.3 2 .3 0-.3-.9-1.3-2s-2-2-2.3-2c-.3 0 .3.9 1.3 2zm-292.1 3.2-1.9 2.3 2.3-1.9c1.2-1.1 2.2-2.1 2.2-2.3 0-.8-.8-.2-2.6 1.9zm-12 1-1.9 2.3 2.3-1.9c2.1-1.8 2.7-2.6 1.9-2.6-.2 0-1.2 1-2.3 2.2zm8 4-1.9 2.3 2.3-1.9c1.2-1.1 2.2-2.1 2.2-2.3 0-.8-.8-.2-2.6 1.9zm-12.5 1.5c-1.3 1.6-1.2 1.7.4.4 1.6-1.3 2.1-2.1 1.3-2.1-.2 0-1 .8-1.7 1.7zm8 4c-1.3 1.6-1.2 1.7.4.4 1.6-1.3 2.1-2.1 1.3-2.1-.2 0-1 .8-1.7 1.7zm-12 1c-1.3 1.6-1.2 1.7.4.4 1.6-1.3 2.1-2.1 1.3-2.1-.2 0-1 .8-1.7 1.7zm8 4c-1.3 1.6-1.2 1.7.4.4.9-.7 1.7-1.5 1.7-1.7 0-.8-.8-.3-2.1 1.3zm-12 1c-1.3 1.6-1.2 1.7.4.4.9-.7 1.7-1.5 1.7-1.7 0-.8-.8-.3-2.1 1.3zm8 4c-1.3 1.6-1.2 1.7.4.4 1.6-1.3 2.1-2.1 1.3-2.1-.2 0-1 .8-1.7 1.7zm-12 1c-1.3 1.6-1.2 1.7.4.4.9-.7 1.7-1.5 1.7-1.7 0-.8-.8-.3-2.1 1.3zm8 4c-1.3 1.6-1.2 1.7.4.4.9-.7 1.7-1.5 1.7-1.7 0-.8-.8-.3-2.1 1.3zm-12 1c-1.3 1.6-1.2 1.7.4.4.9-.7 1.7-1.5 1.7-1.7 0-.8-.8-.3-2.1 1.3zm7.5 4.5-1.9 2.3 2.3-1.9c1.2-1.1 2.2-2.1 2.2-2.3 0-.8-.8-.2-2.6 1.9zm-11.5.5c-1.3 1.6-1.2 1.7.4.4.9-.7 1.7-1.5 1.7-1.7 0-.8-.8-.3-2.1 1.3zm7.5 4.5-1.9 2.3 2.3-1.9c1.2-1.1 2.2-2.1 2.2-2.3 0-.8-.8-.2-2.6 1.9zm-12 1-1.9 2.3 2.3-1.9c1.2-1.1 2.2-2.1 2.2-2.3 0-.8-.8-.2-2.6 1.9zm8 4-1.9 2.3 2.3-1.9c1.2-1.1 2.2-2.1 2.2-2.3 0-.8-.8-.2-2.6 1.9zm-12 1-1.9 2.3 2.3-1.9c1.2-1.1 2.2-2.1 2.2-2.3 0-.8-.8-.2-2.6 1.9zm8 4-1.9 2.3 2.3-1.9c2.1-1.8 2.7-2.6 1.9-2.6-.2 0-1.2 1-2.3 2.2zm-12 1-1.9 2.3 2.3-1.9c2.1-1.8 2.7-2.6 1.9-2.6-.2 0-1.2 1-2.3 2.2zm8 4-1.9 2.3 2.3-1.9c1.2-1.1 2.2-2.1 2.2-2.3 0-.8-.8-.2-2.6 1.9zm-12 1-1.9 2.3 2.3-1.9c1.2-1.1 2.2-2.1 2.2-2.3 0-.8-.8-.2-2.6 1.9z"/><path fill="#BF8040" fill-opacity=".5" d="M1247.2 660c0 1.4.2 1.9.5 1.2.2-.6.2-1.8 0-2.5-.3-.6-.5-.1-.5 1.3zM656.8 1730.7c1.8.2 4.5.2 6 0s0-.4-3.3-.4-4.5.2-2.7.4z"/><path fill="#BF8080" fill-opacity=".4" d="M500.3 706.7c14.1.2 37.3.2 51.5 0 14.1-.1 2.5-.2-25.8-.2s-39.9.1-25.7.2zm795.5 4c.6.2 1.8.2 2.5 0 .6-.3.1-.5-1.3-.5-1.4 0-1.9.2-1.2.5zm-53.8 324.7c0 .2.8 1 1.8 1.7 1.5 1.3 1.6 1.2.3-.4s-2.1-2.1-2.1-1.3z"/><path fill="#FF4000" d="m1128 463.9-9.5 5.7v22.6l10.2 6 10.2 5.9 10-5.8 10.1-5.8v-23.4l-9.8-5.5c-5.4-3.1-10.2-5.6-10.8-5.5-.5 0-5.2 2.6-10.4 5.8zm-121 130c0 16.6-.4 28.1-1.1 29.8-1.5 4.2-6.8 9.2-10.9 10.3-1.9.5-6.6 1-10.3 1h-6.8l.3 45.9c.3 44.8.4 46 2.4 48.8 3.3 4.4 8 7.1 13.7 7.8 2.9.3 46.4.5 96.7.3 87.7-.3 91.7-.4 95.3-2.2 2.2-1.1 5.1-3.7 6.5-5.9l2.7-4.1.3-70.8c.2-49.8-.1-72.1-.9-75-1.4-5.2-6.3-10.3-11.4-11.7-2.8-.7-30.7-1.1-90.2-1.1H1007v26.9zm94.5 24.6c1.4 1.3 2.5 2.8 2.5 3.3 0 1.6-23.1 61.7-24.6 63.9-2.9 4.5-9.4 2.2-9.4-3.3 0-3.4 23.2-62.9 25.2-64.7 2.7-2.3 3.4-2.2 6.3.8zm-49 2.1c2.5 1 3.7 5.1 2.3 7.7-.6 1.2-5.3 6.7-10.5 12.2-5.1 5.5-9.3 10.2-9.3 10.5 0 .4 4.5 5.4 10 11.3 8 8.6 10 11.3 10 13.7 0 2-.8 3.5-2.5 4.6-2.3 1.5-2.7 1.5-4.9.1-3.1-2.1-24.8-25.2-26-27.7-.5-1.2-.5-2.8 0-4 1.4-3 26.4-29 27.9-29 .7 0 2.1.3 3 .6zm75.9 2.6c1.9 1.8 8 8.2 13.5 14.1 7.8 8.4 10.1 11.5 10.1 13.7 0 2.1-2.2 5.2-9.6 13.1-11.6 12.7-17 17.9-18.3 17.9-.5 0-2.2-1-3.7-2.3-2.1-1.8-2.6-2.9-2.1-4.8.4-1.3 5.2-7.2 10.8-13.1l10.1-10.8-10.6-11.2c-11.1-11.8-12.3-14.3-8.9-18 2.4-2.6 4.9-2.2 8.7 1.4zm160.6-13.1c-25.8 3.8-45.2 27-43.8 52.3.6 9.4 3.3 17.8 8.3 25.3 4.5 6.8 4.5 7.6-.5 6.8-2.4-.4-4-.3-4 .3 0 1.1 4.7 2.2 9.5 2.2 3 0 3.3-.3 3.9-3.8.9-5.6.7-9.4-.4-8.7-.5.3-1 2.2-1 4.1 0 4.9-2.4 4.4-6-1.3-6.8-10.7-9.6-25.4-7.1-37.5 3-14.4 13.1-27 26.8-33.6 7.8-3.7 7.9-3.7 20.8-3.7 11.3 0 13.6.3 17.8 2.2 3 1.4 4.7 1.8 4.5 1-.5-1.6-12-5.3-18.3-6-2.7-.2-7.5-.1-10.5.4zm42.2 16.2c-1.2 1.5-2.2 11.7-1.2 11.7 1.1 0 2-2.7 2-5.6 0-3.5 2.3-2.1 5.9 3.5 8.9 13.9 10.1 32.7 3.1 47.9-5.7 12.3-19.2 23-32.9 26.2-7.2 1.7-21.1.8-27.9-1.8-2.8-1.1-5.4-1.7-5.7-1.2-.5.8 5.2 3.1 12 4.9 5.7 1.6 16.1 1.3 23-.4 24.3-6.4 41.5-31.9 37.6-55.9-1.1-6.7-5.3-16.7-10.2-24.4l-2.2-3.4 4.1.3c4.6.4 6.8-.7 3.1-1.5-6.4-1.3-9.8-1.4-10.7-.3zm-861.5 36.1c-3.5 3.3-4.2 6.7-2.2 10.6 3.1 6 3.3 6 58.7 6 48.5 0 50.4-.1 53.6-2 5.9-3.6 6.7-9.6 1.7-14.6l-2.4-2.4H472.3l-2.6 2.4zm2.8 45.5c-6.6 2.8-7.9 10.5-2.7 15.2l3.2 2.9h52c38.1 0 52.6-.3 54.5-1.2 2.9-1.3 5.5-5.5 5.5-8.7 0-1.2-1.3-3.5-2.9-5.3l-2.9-3.3-52.4-.2c-28.8-.1-53.2.2-54.3.6zm803.6 51.1c-1.4.8-.8 4 .7 4 .5 0 1.5-.6 2.1-1.4 1.5-1.7-.8-3.9-2.8-2.6zm22 .4c-.9 1-.8 1.6.4 2.6 1.9 1.6 4.1-.1 3.2-2.4-.8-2-2.1-2-3.6-.2zm22.2.2c-.8 2.1 1.3 4.2 2.8 2.7 1.3-1.3.5-4.3-1.1-4.3-.6 0-1.3.7-1.7 1.6zm98.7 25.7c-2.4.8-4.1 2.4-5.5 4.9-1.9 3.5-1.9 3.8-.2 7.3 3.3 7-8 6.5 162.7 6.5 170.8 0 159.7.4 162.6-6.5 1.3-3.2 1.3-3.9-.1-6.8-3.1-6.7 9.7-6.2-161-6.4-118.4-.2-155.8.1-158.5 1zm-165.2 39.4c-19.2 19.1-35.1 35.6-35.4 36.6-.7 2.1 1.2 4.7 3.5 4.7 2.1 0 72.1-70 72.1-72.1 0-1.9-2-3.9-3.9-3.9-.9 0-17.2 15.6-36.3 34.7zm34.4 80.3c0 1.4.2 1.9.5 1.2.2-.6.2-1.8 0-2.5-.3-.6-.5-.1-.5 1.3zm-380.6 5.6c-1.9 1.8-1.9 2-.6 4.5 1.1 1.9 3.6 1.9 130.8 1.9 99.6 0 130.1-.3 131-1.2 1.8-1.8 1.4-4.6-.7-5.8-1.3-.7-43.8-1-130.5-1-115.4 0-128.6.2-130 1.6zm-.4 28.6c-1.8 1.8-1.5 3.5 1 5.2 2 1.4 10.2 1.6 69.5 1.6 59.7 0 67.3-.2 68.7-1.6 1.9-1.9 2-3.6.4-5.2-1.7-1.7-137.9-1.7-139.6 0zm265.8 290.4c-6.1 6.1-12.1 9.4-16.8 9.4-3.7 0-17-2.8-44.9-9.4l-19.3-4.6H910.4c-166.3 0-181.8.1-184.4 1.6-7.8 4.7-7.7 17.1.2 21.6 1.9 1 31.9 1.4 157.6 1.8l155.3.5L951 1360l-88 109.4 3.3 3.1c2.9 2.8 3.3 3 4.7 1.5.8-.9 41.7-51.7 90.9-112.8l89.4-111.2h131.4l2.8-6.3c3.3-7.6 6.5-16.5 6.5-18.4 0-1-1.7-1.3-6.7-1.2l-6.8.1-5.5 5.4zm-507.3 22.6c1.8 2.3 177.6 221.3 178.4 222.2.8.9 6.7-3.2 6.8-4.7.1-.4-39.3-49.8-87.5-109.8L675.8 1251h-5.5c-4.3 0-5.3.3-4.6 1.2zM869 1492.8c0 .7-1.4 2.1-3 3.1l-3.1 1.8 23.7 29.4c12.9 16.2 24.1 30 24.8 30.7 1 1 1.7.4 3.5-2.8l2.2-4-22.7-28.2c-25.7-32.1-25.4-31.7-25.4-30zm-119 117.8c-52 64.7-94.6 118-94.8 118.5-.2.5 1.8.9 4.5.9h4.9l11.5-14.3c6.3-7.8 47.6-59.2 91.8-114.2 44.2-55 81.1-100.8 81.9-101.7 1.3-1.5 1.1-2-1.4-4.2-1.6-1.4-3.1-2.5-3.4-2.5-.3 0-43 52.9-95 117.5zm215.1 7.3c-1.2 1.6-2.1 3.2-2.1 3.5 0 .4 9.8 12.8 21.7 27.7 23.1 28.7 23.1 28.7 23.2 19.2.1-4-.8-5.4-19.4-28.5-10.8-13.4-19.9-24.4-20.4-24.6-.5-.2-1.8 1-3 2.7z"/><path fill="#BF4000" fill-opacity=".8" d="m1330.9 696.7-2.4 2.8 2.8-2.4c1.5-1.4 2.7-2.6 2.7-2.8 0-.8-.8-.1-3.1 2.4zm-35.1 17c.6.2 1.8.2 2.5 0 .6-.3.1-.5-1.3-.5-1.4 0-1.9.2-1.2.5z"/><path fill="#BF8080" fill-opacity=".3" d="m1258.4 624.2-1.9 2.3 2.3-1.9c1.2-1.1 2.2-2.1 2.2-2.3 0-.8-.8-.2-2.6 1.9zm89.8 38.3c0 1.6.2 2.2.5 1.2.2-.9.2-2.3 0-3-.3-.6-.5.1-.5 1.8zm-99.2 381.9c0 .2.8 1 1.8 1.7 1.5 1.3 1.6 1.2.3-.4s-2.1-2.1-2.1-1.3z"/><path fill="#BF8080" fill-opacity=".2" d="M1050.3 566.7c24.1.2 63.3.2 87 0 23.8-.1 4.1-.2-43.8-.2-47.8 0-67.3.1-43.2.2zm17.9 618c7 .2 18.7.2 26 0 7.3-.1 1.6-.3-12.7-.3-14.3 0-20.3.2-13.3.3zm-494.9 66c16.3.2 43.1.2 59.5 0 16.3-.1 2.9-.2-29.8-.2s-46.1.1-29.7.2z"/><path fill="#BF4040" fill-opacity=".7" d="M977.5 678.5c0 24.2.1 34 .2 21.7.2-12.3.2-32.1 0-44-.1-11.9-.2-1.9-.2 22.3zm266.7-18.5c0 1.4.2 1.9.5 1.2.2-.6.2-1.8 0-2.5-.3-.6-.5-.1-.5 1.3z"/><path fill="#BFBF80" fill-opacity=".2" d="M1196.5 652.5c0 38.5.1 54.1.2 34.7.2-19.5.2-51 0-70-.1-19.1-.2-3.2-.2 35.3zm-696.2 27.2c14.2.2 37.2.2 51 0 13.9-.1 2.3-.2-25.8-.2-28 0-39.4.1-25.2.2zm998.5 125c42.4.2 112 .2 154.5 0 42.4-.1 7.7-.2-77.3-.2s-119.7.1-77.2.2zm-446 380c.6.2 1.8.2 2.5 0 .6-.3.1-.5-1.3-.5-1.4 0-1.9.2-1.2.5zm56 0c1.2.2 3.2.2 4.5 0 1.2-.2.2-.4-2.3-.4s-3.5.2-2.2.4z"/><path fill="#404080" d="M834.8 520.7c.7.3 1.6.2 1.9-.1.4-.3-.2-.6-1.3-.5-1.1 0-1.4.3-.6.6zm39 0c3.4.2 8.8.2 12 0 3.1-.2.3-.3-6.3-.3s-9.2.1-5.7.3zm29.5 0c.9.2 2.3.2 3 0 .6-.3-.1-.5-1.8-.5-1.6 0-2.2.2-1.2.5zm28.5 0c.6.2 1.8.2 2.5 0 .6-.3.1-.5-1.3-.5-1.4 0-1.9.2-1.2.5zm19 0c.7.3 1.6.2 1.9-.1.4-.3-.2-.6-1.3-.5-1.1 0-1.4.3-.6.6zM853.4 533c0 5.8.1 8.1.3 5.2.2-2.8.2-7.6 0-10.5-.2-2.8-.3-.5-.3 5.3zm7 16c0 14.6.2 20.5.3 13.2.2-7.2.2-19.2 0-26.5-.1-7.2-.3-1.3-.3 13.3zm76.8-14.5c0 1.6.2 2.2.5 1.2.2-.9.2-2.3 0-3-.3-.6-.5.1-.5 1.8zm-6.4 1c-.3 1.4-.1 2.8.3 3.1.5.3.9-.9.9-2.5 0-3.8-.6-4-1.2-.6zm-31.6 3.5c0 1.4.2 1.9.5 1.2.2-.6.2-1.8 0-2.5-.3-.6-.5-.1-.5 1.3zm39 13c0 1.4.2 1.9.5 1.2.2-.6.2-1.8 0-2.5-.3-.6-.5-.1-.5 1.3zm-84.8 11c0 6.3.1 8.9.3 5.7.2-3.1.2-8.3 0-11.5-.2-3.1-.3-.5-.3 5.8zm50.8-7c0 1.9.2 2.7.5 1.7.2-.9.2-2.5 0-3.5-.3-.9-.5-.1-.5 1.8zm-6 0c0 1.4.2 1.9.5 1.2.2-.6.2-1.8 0-2.5-.3-.6-.5-.1-.5 1.3zm34 2.5c0 1.6.2 2.2.5 1.2.2-.9.2-2.3 0-3-.3-.6-.5.1-.5 1.8zm7 11c0 1.6.2 2.2.5 1.2.2-.9.2-2.3 0-3-.3-.6-.5.1-.5 1.8zm-42 3c0 1.6.2 2.2.5 1.2.2-.9.2-2.3 0-3-.3-.6-.5.1-.5 1.8zm-62.4 4.2c.7.3 1.6.2 1.9-.1.4-.3-.2-.6-1.3-.5-1.1 0-1.4.3-.6.6zm21 0c.6.2 1.8.2 2.5 0 .6-.3.1-.5-1.3-.5-1.4 0-1.9.2-1.2.5zm23 0c.7.3 1.6.2 1.9-.1.4-.3-.2-.6-1.3-.5-1.1 0-1.4.3-.6.6zm21 0c.7.3 1.6.2 1.9-.1.4-.3-.2-.6-1.3-.5-1.1 0-1.4.3-.6.6zm36 0c.7.3 1.6.2 1.9-.1.4-.3-.2-.6-1.3-.5-1.1 0-1.4.3-.6.6zm19 0c2.9.2 7.4.2 10 0 2.6-.2.2-.3-5.3-.3s-7.6.1-4.7.3zm5.1 803c-1.3 1.6-1.2 1.7.4.4.9-.7 1.7-1.5 1.7-1.7 0-.8-.8-.3-2.1 1.3zm248.9 21c.7.3 1.6.2 1.9-.1.4-.3-.2-.6-1.3-.5-1.1 0-1.4.3-.6.6zm-15 1c.6.2 1.8.2 2.5 0 .6-.3.1-.5-1.3-.5-1.4 0-1.9.2-1.2.5zm-14 1c.7.3 1.6.2 1.9-.1.4-.3-.2-.6-1.3-.5-1.1 0-1.4.3-.6.6zm-14 1c.7.3 1.6.2 1.9-.1.4-.3-.2-.6-1.3-.5-1.1 0-1.4.3-.6.6zm-15 1c.7.3 1.6.2 1.9-.1.4-.3-.2-.6-1.3-.5-1.1 0-1.4.3-.6.6zm-14 1c.7.3 1.6.2 1.9-.1.4-.3-.2-.6-1.3-.5-1.1 0-1.4.3-.6.6zm-15 1c.6.2 1.8.2 2.5 0 .6-.3.1-.5-1.3-.5-1.4 0-1.9.2-1.2.5zm-171.4 9.3c0 5.2.1 7.4.3 4.7.2-2.6.2-6.8 0-9.5-.2-2.6-.3-.4-.3 4.8zm.7 20.6c0 1.1.3 1.4.6.6.3-.7.2-1.6-.1-1.9-.3-.4-.6.2-.5 1.3zm1 9c0 1.1.3 1.4.6.6.3-.7.2-1.6-.1-1.9-.3-.4-.6.2-.5 1.3zm74.6 218.1c1.8.2 5 .2 7 0 2.1-.2.7-.4-3.2-.4-3.8 0-5.5.2-3.8.4z"/><path fill="#BF4000" fill-opacity=".7" d="M500.3 726.7c14.2.2 37.2.2 51 0 13.9-.1 2.3-.2-25.8-.2-28 0-39.4.1-25.2.2z"/><path fill="#404040" d="M831.4 548.5c0 14.3.2 20 .3 12.7.2-7.3.2-19 0-26-.1-7-.3-1-.3 13.3zm99.7-7.9c0 1.1.3 1.4.6.6.3-.7.2-1.6-.1-1.9-.3-.4-.6.2-.5 1.3zm28.7 30.1c1.8.2 4.5.2 6 0s0-.4-3.3-.4-4.5.2-2.7.4zm299.2 261-34.5 34.8 34.8-34.5c32.2-32.1 35.1-35 34.4-35-.1 0-15.7 15.6-34.7 34.7zm-284.7 77c35.7.2 93.7.2 129 0 35.3-.1 6.2-.2-64.8-.2-70.9 0-99.8.1-64.2.2zm258.5 59c.7.3 1.6.2 1.9-.1.4-.3-.2-.6-1.3-.5-1.1 0-1.4.3-.6.6zm-7.4 3.5-1.9 2.3 2.3-1.9c2.1-1.8 2.7-2.6 1.9-2.6-.2 0-1.2 1-2.3 2.2zm52.7 360.4c0 1.1.3 1.4.6.6.3-.7.2-1.6-.1-1.9-.3-.4-.6.2-.5 1.3zm-72.3 69.1c.7.3 1.6.2 1.9-.1.4-.3-.2-.6-1.3-.5-1.1 0-1.4.3-.6.6zm-15 1c.7.3 1.6.2 1.9-.1.4-.3-.2-.6-1.3-.5-1.1 0-1.4.3-.6.6zm-14 1c.7.3 1.6.2 1.9-.1.4-.3-.2-.6-1.3-.5-1.1 0-1.4.3-.6.6zm-14 1c.7.3 1.6.2 1.9-.1.4-.3-.2-.6-1.3-.5-1.1 0-1.4.3-.6.6zm-15 1c.7.3 1.6.2 1.9-.1.4-.3-.2-.6-1.3-.5-1.1 0-1.4.3-.6.6zm-14 1c.7.3 1.6.2 1.9-.1.4-.3-.2-.6-1.3-.5-1.1 0-1.4.3-.6.6zm-15 1c.7.3 1.6.2 1.9-.1.4-.3-.2-.6-1.3-.5-1.1 0-1.4.3-.6.6zm-110.5 260.8c0 2.2.2 3 .4 1.7.2-1.2.2-3 0-4-.3-.9-.5.1-.4 2.3z"/><path fill="#BFBFBF" d="M948.4 548.5c0 14.3.2 20 .3 12.7.2-7.3.2-19 0-26-.1-7-.3-1-.3 13.3zM936.2 528c0 1.9.2 2.7.5 1.7.2-.9.2-2.5 0-3.5-.3-.9-.5-.1-.5 1.8zm-36 4.5c0 1.6.2 2.2.5 1.2.2-.9.2-2.3 0-3-.3-.6-.5.1-.5 1.8zm4.1 8c0 2.7.2 3.8.4 2.2.2-1.5.2-3.7 0-5-.2-1.2-.4 0-.4 2.8zm27.9 5.5c0 1.9.2 2.7.5 1.7.2-.9.2-2.5 0-3.5-.3-.9-.5-.1-.5 1.8zm5-.5c0 1.6.2 2.2.5 1.2.2-.9.2-2.3 0-3-.3-.6-.5.1-.5 1.8zm-38 4c0 1.6.2 2.2.5 1.2.2-.9.2-2.3 0-3-.3-.6-.5.1-.5 1.8zm39 13c0 1.6.2 2.2.5 1.2.2-.9.2-2.3 0-3-.3-.6-.5.1-.5 1.8zm-34.9 2c0 2.2.2 3 .4 1.7.2-1.2.2-3 0-4-.3-.9-.5.1-.4 2.3zm-5.1 1.5c0 1.9.2 2.7.5 1.7.2-.9.2-2.5 0-3.5-.3-.9-.5-.1-.5 1.8zm20.4-1.3c-.6 1.4-.5 1.5.5.6.7-.7 1-1.5.7-1.8-.3-.3-.9.2-1.2 1.2zm14.7 1.8c0 2.2.2 3 .4 1.7.2-1.2.2-3 0-4-.3-.9-.5.1-.4 2.3zm-51.7 8.2c-.6 1.4-.5 1.5.5.6.7-.7 1-1.5.7-1.8-.3-.3-.9.2-1.2 1.2zm-64.5 128c0 2.8.2 5.4.7 5.7.4.2.6-1.4.4-3.7-.5-6.8-1-7.6-1.1-2zm-47.1 6.8c-2.4 2.5-4.2 4.5-3.9 4.5.3 0 2.5-2 4.9-4.5 2.4-2.5 4.2-4.5 3.9-4.5-.3 0-2.5 2-4.9 4.5zm13-1c1.9 1.9 3.6 3.5 3.9 3.5.3 0-1-1.6-2.9-3.5s-3.6-3.5-3.9-3.5c-.3 0 1 1.6 2.9 3.5zm61 1.7c4.1 4.5 5 5.3 5 4.5 0-.2-2.1-2.3-4.7-4.7l-4.8-4.5 4.5 4.7zm5.1 7.4c0 1.1.3 1.4.6.6.3-.7.2-1.6-.1-1.9-.3-.4-.6.2-.5 1.3zm-83.1 2.7c0 .2 1.5 1.6 3.3 3.3l3.2 2.9-2.9-3.3c-2.8-3-3.6-3.7-3.6-2.9zm79.4 2.9-2.9 3.3 3.3-2.9c1.7-1.7 3.2-3.1 3.2-3.3 0-.8-.8-.1-3.6 2.9zm-38.6-1.5c.7.3 1.6.2 1.9-.1.4-.3-.2-.6-1.3-.5-1.1 0-1.4.3-.6.6zm-18.9 8-3.4 3.8 3.8-3.4c2-1.9 3.7-3.6 3.7-3.8 0-.8-.8 0-4.1 3.4zm38.1-.2c1.3 1.4 2.6 2.5 2.8 2.5.3 0-.5-1.1-1.8-2.5s-2.6-2.5-2.8-2.5c-.3 0 .5 1.1 1.8 2.5zm-65.7 7.2c1.5.2 3.9.2 5.5 0 1.5-.2.2-.4-2.8-.4s-4.3.2-2.7.4zm89 1c1.5.2 3.7.2 5 0 1.2-.2 0-.4-2.8-.4-2.7 0-3.8.2-2.2.4zm-95 9.3c0 3.6.2 5 .4 3.2.2-1.7.2-4.7 0-6.5-.2-1.7-.4-.3-.4 3.3zm105 .5c0 3.3.2 4.5.4 2.7.2-1.8.2-4.5 0-6s-.4 0-.4 3.3zm-79.1 1c0 1.6.2 2.2.5 1.2.2-.9.2-2.3 0-3-.3-.6-.5.1-.5 1.8zm-25.2 5.9c0 .2.8 1 1.8 1.7 1.5 1.3 1.6 1.2.3-.4s-2.1-2.1-2.1-1.3zm33 13.1c1.9 1.9 3.6 3.5 3.9 3.5.3 0-1-1.6-2.9-3.5s-3.6-3.5-3.9-3.5c-.3 0 1 1.6 2.9 3.5zm37.9.2-2.4 2.8 2.8-2.4c1.5-1.4 2.7-2.6 2.7-2.8 0-.8-.8-.1-3.1 2.4zm-58.3 3.2-3 3.6 3.4-3.2c1.9-1.8 3.2-3.4 2.9-3.6-.2-.2-1.7 1.2-3.3 3.2zm-3.5 5.7c0 1.1.3 1.4.6.6.3-.7.2-1.6-.1-1.9-.3-.4-.6.2-.5 1.3zm41.7-.9c.6.2 1.8.2 2.5 0 .6-.3.1-.5-1.3-.5-1.4 0-1.9.2-1.2.5zm-36.3 8.3c2.7 2.7 5.1 5 5.4 5 .3 0-1.7-2.3-4.4-5-2.7-2.8-5.1-5-5.4-5-.3 0 1.7 2.2 4.4 5zm73.5.5c-2.4 2.5-4.2 4.5-3.9 4.5.3 0 2.5-2 4.9-4.5 2.4-2.5 4.2-4.5 3.9-4.5-.3 0-2.5 2-4.9 4.5zm-61.1 1.2-2.4 2.8 2.7-2.4c1.6-1.3 3.2-2 3.9-1.6.8.5 1 .4.5-.3-1.1-1.8-2-1.5-4.7 1.5zm49.1.8c1.3 1.4 2.6 2.5 2.8 2.5.3 0-.5-1.1-1.8-2.5s-2.6-2.5-2.8-2.5c-.3 0 .5 1.1 1.8 2.5zm-34.7 6c0 2.2.2 3 .4 1.7.2-1.2.2-3 0-4-.3-.9-.5.1-.4 2.3zm39.5-2.8c.7.3 1.6.2 1.9-.1.4-.3-.2-.6-1.3-.5-1.1 0-1.4.3-.6.6zm-33.1 10c1.8.2 5 .2 7 0 2.1-.2.7-.4-3.2-.4-3.8 0-5.5.2-3.8.4zm291.1 53c13.9.2 36.4.2 50 0 13.6-.1 2.2-.2-25.3-.2s-38.6.1-24.7.2zm-26.6 6.9c1 1 2 1.6 2.2 1.3.3-.3-.5-1.1-1.7-1.8-2.1-1.3-2.1-1.2-.5.5zm-246.9 243.9c-.3.9-.3 1.8-.1 2.1.3.3.8-.4 1.1-1.6.6-2.3-.1-2.7-1-.5zm153.2 13.5c1.4 2.7 2.8 5 3 5 .3 0-.6-2.3-2-5-1.4-2.8-2.8-5-3-5-.3 0 .6 2.2 2 5zm-143 9c1.4 2.7 2.8 5 3 5 .3 0-.6-2.3-2-5-1.4-2.8-2.8-5-3-5-.3 0 .6 2.2 2 5zm156 16c1.4 2.7 2.8 5 3 5 .3 0-.6-2.3-2-5-1.4-2.8-2.8-5-3-5-.3 0 .6 2.2 2 5zm-143 9c1.4 2.7 2.8 5 3 5 .3 0-.6-2.3-2-5-1.4-2.8-2.8-5-3-5-.3 0 .6 2.2 2 5zm156.5 17c1.1 2.2 2.3 4 2.5 4 .3 0-.4-1.8-1.5-4s-2.3-4-2.5-4c-.3 0 .4 1.8 1.5 4zm-143.5 8c1.4 2.7 2.8 5 3 5 .3 0-.6-2.3-2-5-1.4-2.8-2.8-5-3-5-.3 0 .6 2.2 2 5zm12 22.7c.8 1.8 2 3.3 2.6 3.3.6 0 .6-.4-.1-1.3-.6-.6-1.7-2.1-2.6-3.2-1.3-1.7-1.2-1.5.1 1.2zm323 12.3c-1.6 1.7-3.4 3-4 3-.6 0-2.8 2.2-4.8 5l-3.7 5h13.8l1.1-7.7c.6-4.2 1-7.8.8-7.9-.2-.2-1.6 1-3.2 2.6zm-510.1 45.7c2.5 3.2 42 52.4 87.8 109.4l83.3 103.6 4.8-.1 4.7-.1 48.5-60.3c26.7-33.2 48.5-60.7 48.5-61.2 0-.6-17.4-22.6-38.6-49l-38.7-48H676.8l4.6 5.7zm215.8-3.9c.7 1.1 16.6 20.9 35.2 44.1l34 42.2 2.2-2.3c3-3.2 68.4-84.7 68.4-85.3 0-.3-31.8-.5-70.6-.5-68.4 0-70.5.1-69.2 1.8zm115.9 45.9c-21.1 26.3-38.4 48.3-38.5 49-.1.6 2.1 4 4.8 7.5l5 6.4 15-7.8c34.3-17.5 81.6-36.1 144.3-56.7 26.9-8.9 29.1-9.8 28.1-11.5-1.7-3.1-.1-10 5.2-21.9 2.7-6.1 5-11.5 5-11.9 0-.5-29.4-.8-65.3-.8h-65.3l-38.3 47.7zm-93.5 116.4c-25.8 32.1-47.5 59.1-48.2 59.9-1.1 1.3-1.1 2.4-.2 5.3.8 2.8.8 4.6 0 7.4l-1.1 3.7 23.5 29.3c13 16.1 23.9 29.3 24.2 29.3.4 0 4.6-6.4 9.4-14.3 4.8-7.8 13.9-22.2 20.1-32l11.4-17.8-1.8-9.2c-3.7-19.4-6-37.8-6.6-53.7-1.1-30 2.7-40.2 19.2-51.6 3-2 5.5-4 5.5-4.3 0-.3-2-2.8-4.3-5.5l-4.3-4.9-46.8 58.4zm198 54c-15.2 12.1-27.6 22.4-27.6 22.8 0 1.1 133.2 166.7 134.5 167.2 2.8 1.1 3.3-14 3.4-112.4l.1-99.7h-82.8l-27.6 22.1zm-140.8 133.5c-7.5 9.3-8.5 11.1-7.4 12.4.7.8 8.9 10.9 18.1 22.5 9.2 11.5 17.7 21.9 18.7 23 1.8 2 1.8 1.9.5-2.5-.8-2.5-4.4-13.5-8-24.5-3.6-11-8.1-24.9-9.9-30.9l-3.4-10.9-8.6 10.9z"/><path fill="#FFF" d="M833.2 522.2c-.9.9-1.2 8.1-1.2 26.4 0 21 .2 25.4 1.5 26.4.8.7 2.1 1 3 .7 1.1-.5 1.5-3.2 1.7-12.9l.3-12.3h15l.3 11.7c.2 8.7.6 11.9 1.7 12.8 1.2 1 1.8 1 3 0 1.3-1 1.5-5.3 1.5-26.5s-.2-25.5-1.5-26.5c-1.2-1-1.8-1-3 0-1.1.9-1.5 4-1.7 11.8l-.3 10.7h-15l-.3-11c-.2-7.2-.7-11.2-1.5-11.7-1.6-1-2.1-1-3.5.4zm34.1.4c-.8 2.2.6 3.2 5.2 3.6l4 .3.3 24.3c.2 20.8.5 24.4 1.8 24.9 3.4 1.3 3.9-1.3 4.4-25.5l.5-23.7 4-.3c4.3-.4 6-1.9 4.3-3.9-.7-.9-4.4-1.3-12.5-1.3-9.4 0-11.5.3-12 1.6zm34.9-.4c-.5.7-1.7 12.5-2.5 26.3-1.3 21.6-1.3 25.2-.1 26.5.9.9 1.7 1.1 2.3.5.5-.6 1.2-8.2 1.6-17 .3-8.8.8-18.9 1.2-22.5l.5-6.5 3.4 14c9.2 38.3 9.5 38.8 14.2 20.8 1.7-6.5 4.4-17 5.9-23.3l2.8-11.5.7 10c.4 5.5 1 15.8 1.3 22.8.6 9.9 1 13 2.2 13.4 3.3 1.3 3.4-1.2 1.8-27.2-.8-14.2-1.8-26.2-2.1-26.6-.8-1.3-4-1.1-5.2.4-1.1 1.3-5.8 19.3-8.7 33.2-.9 4.4-1.9 8.7-2.2 9.5-.2.8-3-8.4-6-20.5-3.1-12.1-6.1-22.3-6.7-22.7-1.6-1.1-3.2-1-4.4.4zm47.3 0c-.3.7-.4 13-.3 27.3l.3 26 8.8.3c5.8.2 9.4-.1 10.3-.9 2.6-2.2-.3-3.8-7.4-4.1l-6.7-.3-.5-24.5c-.5-22.3-.7-24.5-2.3-24.8-.9-.2-1.9.3-2.2 1zm146.3 96c-2.1 1.7-25 62.2-24.6 65 .5 3.1 4 5.1 6.2 3.5 1.4-1 25.6-62.3 25.6-64.9 0-1-3.7-4.8-4.8-4.8-.5 0-1.5.6-2.4 1.2zm-60.7 16.9c-7.6 8.1-13.1 14.8-13.1 16 0 3 25.6 29.9 28.5 29.9.2 0 1.1-.7 1.9-1.6 3.2-3.2 1.9-5.8-8.4-16.7-5.5-5.8-10-11-10-11.6 0-.6 4.3-5.7 9.6-11.4 11.4-12.1 12.5-13.9 9.9-16.7-1-1.1-2.6-2-3.5-2-1 0-7.7 6.3-14.9 14.1zm85.1-12.9c-2.9 2.9-1.2 5.9 9.1 17 5.6 6 10.2 11.3 10.2 11.8 0 .4-4.6 5.8-10.2 11.9-5.8 6.3-10.3 12-10.3 13.1 0 2.5 4.4 5.5 6.3 4.3.8-.4 6.9-6.7 13.5-13.8 8.5-9.1 12.2-13.7 12.2-15.4 0-1.5-1.9-4.4-5.2-8-20.6-22.3-22.6-23.9-25.6-20.9zm-321.6 75c-.9 1.2-1.6 4.3-1.6 6.8v4.6l-5.1 1.8-5.1 1.9-3.7-3.7c-2-2-4.6-3.6-5.7-3.6-2.1 0-12.4 9.9-12.4 11.9 0 .6 1.6 2.9 3.6 5.1l3.6 4-2.3 5.5-2.3 5.5h-5.1c-2.8 0-5.6.5-6.3 1.2-.7.7-1.2 4.1-1.2 8.4 0 6.4.3 7.5 2.2 8.8 1.2.9 3.9 1.6 5.9 1.6 3.5 0 3.7.2 5.7 5.7l2.1 5.8-2.9 3c-1.7 1.7-3 4-3 5.1 0 2.1 9.7 12.4 11.7 12.4.7 0 2.7-1.3 4.6-3l3.4-2.9 4.8 2.4c2.7 1.4 5.4 2.5 6.2 2.5.9 0 1.3 1.4 1.3 4.3 0 2.4.5 4.8 1.2 5.5.7.7 4.1 1.2 8.4 1.2 6.4 0 7.5-.3 8.8-2.2.9-1.2 1.6-3.7 1.6-5.5 0-2.3.5-3.3 1.5-3.3.8 0 3.6-1 6.1-2.1l4.5-2.2 2.8 2.7c1.5 1.4 3.6 2.6 4.8 2.6 2 0 12.3-9.9 12.3-11.9 0-.6-1.4-2.6-3.1-4.5l-3-3.5 2-4c1.2-2.2 2.1-4.7 2.1-5.6 0-1.1 1-1.5 3.8-1.5 2.1 0 4.8-.7 6-1.6 1.9-1.3 2.2-2.4 2.2-8.8 0-4.3-.5-7.7-1.2-8.4-.7-.7-3.4-1.2-6-1.2-2.7 0-4.8-.5-4.8-1 0-.6-.9-3-2-5.2-2.6-5.4-2.6-5.9 1-9.3 1.7-1.6 3-3.8 3-5 0-2.2-9.8-12.5-11.9-12.5-.6 0-2.9 1.6-5.1 3.6l-4 3.7-5.3-2-5.2-2-.3-5.4c-.2-2.9-.8-5.9-1.4-6.6-.7-.8-3.6-1.3-8.4-1.3-6.4 0-7.5.3-8.8 2.2zm19.9 26.8c10 4.3 15.5 12.9 15.5 24.5 0 15.6-11.1 26.8-26.5 26.8-10.7 0-19.3-5.2-24.3-14.8-3.1-6.1-3.5-16.7-.8-22.7 6-13.7 22.1-19.9 36.1-13.8zm248.7 130.2c-1.8 1.8-1.5 3.5 1 5.2 2 1.4 8.3 1.6 49.5 1.6 29 0 48.2-.4 49.8-1 2.1-.8 2.6-1.6 2.3-3.8l-.3-2.7-50.5-.3c-38.5-.2-50.9.1-51.8 1zm-245.5 248.5c-.4.3-.7 1.3-.7 2 0 2 48.7 95.5 50.3 96.5.6.4 26.9.7 58.2.6 33.6 0 52.9-.4 47-.8-15.1-1.1-21.2-2.1-23.2-3.6-1.7-1.3-1.6-1.6 1.9-4.7 4.8-4.3 18.9-12.3 25.3-14.3 4.8-1.5 5.7-1.5 15.5.4 5.8 1.1 10.6 1.9 10.6 1.8.3-.3-39.5-76.2-40.5-77.4-.9-.9-16.7-1.2-72.5-1.2-39.2 0-71.6.3-71.9.7z"/><path fill="gray" d="M838.4 533.5c0 5.5.1 7.6.3 4.7.2-2.9.2-7.4 0-10-.2-2.6-.3-.2-.3 5.3zm61.8-7.5c0 1.4.2 1.9.5 1.2.2-.6.2-1.8 0-2.5-.3-.6-.5-.1-.5 1.3zm-30.9.7c.9.2 2.5.2 3.5 0 .9-.3.1-.5-1.8-.5-1.9 0-2.7.2-1.7.5zm17 0c.9.2 2.5.2 3.5 0 .9-.3.1-.5-1.8-.5-1.9 0-2.7.2-1.7.5zm-9.9 24.8c0 12.6.2 17.7.3 11.2.2-6.5.2-16.8 0-23-.1-6.2-.3-.9-.3 11.8zm60.7-12.9c0 1.1.3 1.4.6.6.3-.7.2-1.6-.1-1.9-.3-.4-.6.2-.5 1.3zm-38 4c0 1.1.3 1.4.6.6.3-.7.2-1.6-.1-1.9-.3-.4-.6.2-.5 1.3zm-56.3 2.1c1.7.2 4.7.2 6.5 0 1.7-.2.3-.4-3.3-.4-3.6 0-5 .2-3.2.4zm61.4 6.3c0 1.4.2 1.9.5 1.2.2-.6.2-1.8 0-2.5-.3-.6-.5-.1-.5 1.3zm-61.4-.3c1.7.2 4.7.2 6.5 0 1.7-.2.3-.4-3.3-.4-3.6 0-5 .2-3.2.4zm-4.4 12.3c0 6.3.1 8.9.3 5.7.2-3.1.2-8.3 0-11.5-.2-3.1-.3-.5-.3 5.8zm93.8-9c0 1.4.2 1.9.5 1.2.2-.6.2-1.8 0-2.5-.3-.6-.5-.1-.5 1.3zm6 2c0 1.4.2 1.9.5 1.2.2-.6.2-1.8 0-2.5-.3-.6-.5-.1-.5 1.3zm-40.1 3.6c0 1.1.3 1.4.6.6.3-.7.2-1.6-.1-1.9-.3-.4-.6.2-.5 1.3zm5 13c0 1.1.3 1.4.6.6.3-.7.2-1.6-.1-1.9-.3-.4-.6.2-.5 1.3zm380.2 433.2c-7 5.1-17.7 15.3-20.7 19.9-2.3 3.5-5.2 14-6.1 22.3-.2 1.9-1.1 7.8-1.9 13-3 18.3-4.7 36.7-5.2 57.5l-.6 21 4.5 21.5c2.5 11.8 10 45.8 16.6 75.5 18.9 85.1 23 106.2 23.2 120.3.3 14.1-4.1 17.9-29.9 26.2-17.4 5.6-19.9 7.5-23.6 17.5-1.8 5.1-4.2 9.3-6.7 11.9l-3.8 4.1-23.8.7c-29.4.8-35.2 2.1-49.3 11.2-7.3 4.8-19.9 16-18.9 17 .3.4 27.3.6 59.9.6h59.2l7.7-4c30-15.7 55.9-50.8 70.7-96 9.9-30 15.1-65 16.1-109 2-91.5-12.7-172.6-38.6-211.5-4.9-7.5-16.2-20.3-17.9-20.4-.7-.1-1.5-.7-1.8-1.4-.8-2.3-3.8-1.6-9.1 2.1zm-473.5 93.4c1 1.8 14.2 27 29.2 56l27.4 52.8 78-.1 78.1-.1-9.5-2.4-9.5-2.3-66-.1c-36.3 0-66.5-.3-67.1-.8-1.9-1.2-50.4-95.3-50.4-97.7 0-1.3.7-2.6 1.6-2.9.9-.3 33.6-.6 72.8-.6 66.7 0 71.4.1 72.8 1.7.8 1 10.5 19.2 21.4 40.5 19.4 37.7 20 38.6 23.1 39l3.2.4-11.9-23.1c-6.6-12.6-16.6-32-22.4-43l-10.4-20-81.2-.3-81.2-.2 2 3.2zm-214.1 39.3c-1.8 1.9-2.8 4.4-3.6 9.3-.7 3.7-1.4 8.2-1.7 9.9l-.6 3.3h128.5l-.7-5.3c-1.4-10-2.9-15-5.2-17.4l-2.3-2.3H598.3l-2.6 2.5zm557.3 57.9c0 .2.8 1 1.8 1.7 1.5 1.3 1.6 1.2.3-.4s-2.1-2.1-2.1-1.3zm-202.9 230.2c0 1.1.3 1.4.6.6.3-.7.2-1.6-.1-1.9-.3-.4-.6.2-.5 1.3z"/><path fill="#8080BF" d="M954.4 546c0 12.9.2 18.2.3 11.7.2-6.4.2-17 0-23.5-.1-6.4-.3-1.1-.3 11.8zm-17.3-4.4c0 1.1.3 1.4.6.6.3-.7.2-1.6-.1-1.9-.3-.4-.6.2-.5 1.3zm-38 4c0 1.1.3 1.4.6.6.3-.7.2-1.6-.1-1.9-.3-.4-.6.2-.5 1.3zm5.1 1.4c0 1.4.2 1.9.5 1.2.2-.6.2-1.8 0-2.5-.3-.6-.5-.1-.5 1.3zm27.9 3.6c0 1.1.3 1.4.6.6.3-.7.2-1.6-.1-1.9-.3-.4-.6.2-.5 1.3zm-29 19c0 1.1.3 1.4.6.6.3-.7.2-1.6-.1-1.9-.3-.4-.6.2-.5 1.3zm30 2c0 1.1.3 1.4.6.6.3-.7.2-1.6-.1-1.9-.3-.4-.6.2-.5 1.3z"/><path fill="#804040" d="M1006.4 593c0 14.6.2 20.5.3 13.2.2-7.2.2-19.2 0-26.5-.1-7.2-.3-1.3-.3 13.3zm-5.5 36.7c-1.3 1.6-1.2 1.7.4.4.9-.7 1.7-1.5 1.7-1.7 0-.8-.8-.3-2.1 1.3zm251.6 195.5-35 35.3 35.3-35c32.7-32.5 35.6-35.5 34.9-35.5-.1 0-16 15.9-35.2 35.2zm-30.7 41.5c.7.3 1.6.2 1.9-.1.4-.3-.2-.6-1.3-.5-1.1 0-1.4.3-.6.6zm-173.7 74.9c0 1.1.3 1.4.6.6.3-.7.2-1.6-.1-1.9-.3-.4-.6.2-.5 1.3z"/><path fill="#80BFBF" fill-opacity=".3" d="M515.3 614.7c22.5.2 58.9.2 81 0 22.1-.1 3.8-.2-40.8-.2-44.5 0-62.6.1-40.2.2zm88.5 521c2.3.2 5.9.2 8 0 2-.2.1-.4-4.3-.4-4.4 0-6.1.2-3.7.4zm-12.1 26c1.8.2 5 .2 7 0 2.1-.2.7-.4-3.2-.4-3.8 0-5.5.2-3.8.4zm117 0c1.8.2 5 .2 7 0 2.1-.2.7-.4-3.2-.4-3.8 0-5.5.2-3.8.4zm725.4 510.9c0 1.1.3 1.4.6.6.3-.7.2-1.6-.1-1.9-.3-.4-.6.2-.5 1.3zm15.2 58.1c3.2.2 8.1.2 11 0 2.9-.2.3-.3-5.8-.3-6 0-8.4.1-5.2.3zm24 0c2.6.2 6.7.2 9 0s.2-.3-4.8-.3c-4.9 0-6.8.1-4.2.3z"/><path fill="#80BFBF" fill-opacity=".4" d="M916.5 713c0 20.6.1 29.1.2 18.7.2-10.3.2-27.1 0-37.5-.1-10.3-.2-1.8-.2 18.8zM505 1392.4c0 .2.8 1 1.8 1.7 1.5 1.3 1.6 1.2.3-.4s-2.1-2.1-2.1-1.3zm929.2 290.6c0 1.4.2 1.9.5 1.2.2-.6.2-1.8 0-2.5-.3-.6-.5-.1-.5 1.3zm31.6 47.7c.6.2 1.8.2 2.5 0 .6-.3.1-.5-1.3-.5-1.4 0-1.9.2-1.2.5z"/><path fill="#00BFBF" fill-opacity=".7" d="M365.5 1289c1 1.1 2 2 2.3 2 .3 0-.3-.9-1.3-2s-2-2-2.3-2c-.3 0 .3.9 1.3 2zm1163.4 214.7c-1.3 1.6-1.2 1.7.4.4.9-.7 1.7-1.5 1.7-1.7 0-.8-.8-.3-2.1 1.3z"/><path fill="#00BFBF" fill-opacity=".9" d="m641.9 631.7-2.4 2.8 2.8-2.4c1.5-1.4 2.7-2.6 2.7-2.8 0-.8-.8-.1-3.1 2.4zM1625 830.4c0 .2.8 1 1.8 1.7 1.5 1.3 1.6 1.2.3-.4s-2.1-2.1-2.1-1.3zM1414.5 845c1 1.1 2 2 2.3 2 .3 0-.3-.9-1.3-2s-2-2-2.3-2c-.3 0 .3.9 1.3 2zM722 883.5c3 3 5.7 5.5 5.9 5.5.3 0-1.9-2.5-4.9-5.5-3-3-5.7-5.5-5.9-5.5-.3 0 1.9 2.5 4.9 5.5zm691.9-3.8c-1.3 1.6-1.2 1.7.4.4 1.6-1.3 2.1-2.1 1.3-2.1-.2 0-1 .8-1.7 1.7zm-209 202c-1.3 1.6-1.2 1.7.4.4.9-.7 1.7-1.5 1.7-1.7 0-.8-.8-.3-2.1 1.3zm-869.8 159.9c0 1.1.3 1.4.6.6.3-.7.2-1.6-.1-1.9-.3-.4-.6.2-.5 1.3zm4.9 12.8c0 1.1 3 6.6 3.6 6.6.2 0-.3-1.5-1.2-3.3-1.9-3.6-2.4-4.4-2.4-3.3zm-4.9 16.2c0 1.1.3 1.4.6.6.3-.7.2-1.6-.1-1.9-.3-.4-.6.2-.5 1.3zm15.9 2.8c0 .2.8 1 1.8 1.7 1.5 1.3 1.6 1.2.3-.4s-2.1-2.1-2.1-1.3zm4 4.9c0 .2 1.5 1.6 3.3 3.3l3.2 2.9-2.9-3.3c-2.8-3-3.6-3.7-3.6-2.9zm10 11.2c1.9 1.9 3.6 3.5 3.9 3.5.3 0-1-1.6-2.9-3.5s-3.6-3.5-3.9-3.5c-.3 0 1 1.6 2.9 3.5zm10 9c1.9 1.9 3.6 3.5 3.9 3.5.3 0-1-1.6-2.9-3.5s-3.6-3.5-3.9-3.5c-.3 0 1 1.6 2.9 3.5zm7 6c1.3 1.4 2.6 2.5 2.8 2.5.3 0-.5-1.1-1.8-2.5s-2.6-2.5-2.8-2.5c-.3 0 .5 1.1 1.8 2.5zm5.5 4.5c1 1.1 2 2 2.3 2 .3 0-.3-.9-1.3-2s-2-2-2.3-2c-.3 0 .3.9 1.3 2zm-25.5 33.4c0 .2.8 1 1.8 1.7 1.5 1.3 1.6 1.2.3-.4s-2.1-2.1-2.1-1.3zm6 8c0 .2.8 1 1.8 1.7 1.5 1.3 1.6 1.2.3-.4s-2.1-2.1-2.1-1.3zm5 6.1c1.3 1.4 2.6 2.5 2.8 2.5.3 0-.5-1.1-1.8-2.5s-2.6-2.5-2.8-2.5c-.3 0 .5 1.1 1.8 2.5zm13 14c5.2 5.2 9.7 9.5 10 9.5.2 0-3.8-4.3-9-9.5s-9.7-9.5-10-9.5c-.2 0 3.8 4.3 9 9.5zm14 13c1.3 1.4 2.6 2.5 2.8 2.5.3 0-.5-1.1-1.8-2.5s-2.6-2.5-2.8-2.5c-.3 0 .5 1.1 1.8 2.5zm95.5 1.5c1 1.1 2 2 2.3 2 .3 0-.3-.9-1.3-2s-2-2-2.3-2c-.3 0 .3.9 1.3 2zm-90 3c1 1.1 2 2 2.3 2 .3 0-.3-.9-1.3-2s-2-2-2.3-2c-.3 0 .3.9 1.3 2zm1237.5 6.7-5.5 5.8 5.8-5.5c3.1-3 5.7-5.6 5.7-5.7 0-.8-1 .1-6 5.4zM410.5 1392c1 1.1 2 2 2.3 2 .3 0-.3-.9-1.3-2s-2-2-2.3-2c-.3 0 .3.9 1.3 2zm95.5 2.2c4.1 4.5 5 5.3 5 4.5 0-.2-2.1-2.3-4.7-4.7l-4.8-4.5 4.5 4.7zm1145.1-2.6c0 1.1.3 1.4.6.6.3-.7.2-1.6-.1-1.9-.3-.4-.6.2-.5 1.3zM417 1396.4c0 .2.8 1 1.8 1.7 1.5 1.3 1.6 1.2.3-.4s-2.1-2.1-2.1-1.3zm95 5c0 .2.8 1 1.8 1.7 1.5 1.3 1.6 1.2.3-.4s-2.1-2.1-2.1-1.3zm-79 6c0 .3.9 1 2 1.6 1.1.6 2 .8 2 .6 0-.3-.9-1-2-1.6-1.1-.6-2-.8-2-.6zm5 3c0 .3.9 1 2 1.6 1.1.6 2 .8 2 .6 0-.3-.9-1-2-1.6-1.1-.6-2-.8-2-.6zm1177.5 11.8-9 9.3 9.3-9c8.5-8.3 9.7-9.5 8.9-9.5-.1 0-4.3 4.2-9.2 9.2zM445 1414.4c0 .3.9 1 2 1.6 1.1.6 2 .8 2 .6 0-.3-.9-1-2-1.6-1.1-.6-2-.8-2-.6zm1206.1 1.2c0 1.1.3 1.4.6.6.3-.7.2-1.6-.1-1.9-.3-.4-.6.2-.5 1.3zM473 1428.4c0 .2.8 1 1.8 1.7 1.5 1.3 1.6 1.2.3-.4s-2.1-2.1-2.1-1.3zm1125.5 9.8-6 6.3 6.3-6c3.4-3.3 6.2-6.1 6.2-6.2 0-.8-1 .1-6.5 5.9zm-13.5 12.5-5.5 5.8 5.8-5.5c3.1-3 5.7-5.6 5.7-5.7 0-.8-1 .1-6 5.4zm-14 13-6.5 6.8 6.8-6.5c3.7-3.5 6.7-6.6 6.7-6.7 0-.8-1 .2-7 6.4zm-1036.9-2.1c0 1.1.3 1.4.6.6.3-.7.2-1.6-.1-1.9-.3-.4-.6.2-.5 1.3zm1008.4 29.6-20 20.3 20.3-20c11.1-11 20.2-20.1 20.2-20.2 0-.8-1.9 1.1-20.5 19.9zm-1008.4-10.6c0 1.1.3 1.4.6.6.3-.7.2-1.6-.1-1.9-.3-.4-.6.2-.5 1.3zm1092.4 9.4c-.9 1.6-1.3 3-1.1 3 .3 0 1.2-1.4 2.1-3 .9-1.7 1.3-3 1.1-3-.3 0-1.2 1.3-2.1 3zm-5.5 10c-.6 1.1-.8 2-.6 2 .3 0 1-.9 1.6-2 .6-1.1.8-2 .6-2-.3 0-1 .9-1.6 2zm-3 5c-.6 1.1-.8 2-.6 2 .3 0 1-.9 1.6-2 .6-1.1.8-2 .6-2-.3 0-1 .9-1.6 2zm-12.1 18.7c-1.3 1.6-1.2 1.7.4.4 1.6-1.3 2.1-2.1 1.3-2.1-.2 0-1 .8-1.7 1.7zm-10 14c-1.3 1.6-1.2 1.7.4.4.9-.7 1.7-1.5 1.7-1.7 0-.8-.8-.3-2.1 1.3zm-3.5 4.5-1.9 2.3 2.3-1.9c2.1-1.8 2.7-2.6 1.9-2.6-.2 0-1.2 1-2.3 2.2zm-4 5-1.9 2.3 2.3-1.9c2.1-1.8 2.7-2.6 1.9-2.6-.2 0-1.2 1-2.3 2.2zm-4 5-1.9 2.3 2.3-1.9c2.1-1.8 2.7-2.6 1.9-2.6-.2 0-1.2 1-2.3 2.2zm-5.5 6.5-2.4 2.8 2.8-2.4c1.5-1.4 2.7-2.6 2.7-2.8 0-.8-.8-.1-3.1 2.4zm-7 8-3.4 3.8 3.8-3.4c3.4-3.3 4.2-4.1 3.4-4.1-.2 0-1.9 1.7-3.8 3.7zm-20.9 22-16.5 16.8 16.8-16.5c9.2-9.1 16.7-16.6 16.7-16.7 0-.8-1.7.9-17 16.4zm-23 21.8c-2.4 2.5-4.2 4.5-3.9 4.5.3 0 2.5-2 4.9-4.5 2.4-2.5 4.2-4.5 3.9-4.5-.3 0-2.5 2-4.9 4.5zm-16.5 16.7-4 4.3 4.3-4c2.3-2.1 4.2-4 4.2-4.2 0-.8-.9 0-4.5 3.9zm-6.1 7-1.9 2.3 2.3-1.9c2.1-1.8 2.7-2.6 1.9-2.6-.2 0-1.2 1-2.3 2.2zm-3.5 4.5c-1.3 1.6-1.2 1.7.4.4 1.6-1.3 2.1-2.1 1.3-2.1-.2 0-1 .8-1.7 1.7zm-9.9 15.3c-.6 1.1-.8 2-.6 2 .3 0 1-.9 1.6-2 .6-1.1.8-2 .6-2-.3 0-1 .9-1.6 2z"/><g fill="#00BFBF" stroke-width="0"><path d="M470.9 617.3c-7 4.7-5.6 13.8 2.6 16.5 3 1 21.1 1.2 84.6 1l80.7-.3 2.7-2.5c3.9-3.6 4.8-6.5 3.1-10.5-2.9-6.8 1.4-6.5-88.9-6.5h-81.4l-3.4 2.3zm236.1 47c-3 1.6-5.1 3.7-6.7 6.7l-2.3 4.3v71.6c0 67.7.1 71.8 1.9 75.7 1 2.3 3.4 5.2 5.2 6.5l3.4 2.4 88.8.3 88.7.2v-39.3c0-32.3.3-39.7 1.4-41.3 1.3-1.7 2.9-1.9 15-2.2l13.6-.4v-36.7c0-36.5 0-36.8-2.3-41.1-1.6-3-3.7-5.1-6.7-6.7l-4.3-2.3H711.3l-4.3 2.3zm109.2 31.4c1.3 1.1 1.8 3 1.8 6.7v5.1l5.1 1.8 5.1 1.9 3.2-3.1c1.8-1.7 4.3-3.1 5.6-3.1 3 0 13 9.5 13 12.4 0 1.1-1.4 3.5-3.1 5.2l-3.2 3.3 2.3 5.5c2.2 5.6 2.2 5.6 6.5 5.6 6.3 0 7.5 1.7 7.5 10.5s-1.2 10.5-7.3 10.5c-4.2 0-4.2.1-6.4 5.8l-2.2 5.7 2.6 2.7c4 4.2 3.4 7.4-2.5 13-5.8 5.5-8.7 6-12.9 2.4l-2.7-2.4-4.4 1.9c-2.4 1.1-5 1.9-5.8 1.9-1 0-1.4 1.3-1.4 4.5 0 5.6-1.5 6.5-10.9 6.5-8.2 0-10.1-1.3-10.1-6.8 0-3.6-.2-3.8-5.8-6.3l-5.9-2.6-3.2 2.9c-1.7 1.5-3.9 2.8-4.8 2.8-2.6 0-12.3-10.3-12.3-13.1 0-1.2 1.3-3.7 3-5.4l2.9-3-2.1-5.8-2.1-5.7h-4.8c-3.8 0-5.1-.4-5.9-1.9-1.3-2.4-1.3-15.1 0-17.1.5-.9 3.1-1.7 6.5-2 5.6-.5 5.7-.5 7.7-5.2l2-4.8-3.6-4c-2-2.2-3.6-4.3-3.6-4.6 0-3.6 9.7-13.4 13.2-13.4 1.2 0 3.9 1.6 5.9 3.6l3.7 3.7 5.1-1.9 5.1-1.8v-5.2c0-7.3 1.4-8.4 10.2-8.4 5.2 0 7.6.4 9 1.7z"/><path d="M801.9 722.7c-5.6.9-13.3 6.6-16.6 12.2-5.6 9.3-5.6 17.9 0 27.3 9.7 16.2 33.2 16.6 43.9.7 8.8-13.1 3.5-31.7-11-38.1-4.4-2-11.8-2.9-16.3-2.1zM907 797.4c-1.6 2-.3 5.5 2.3 6.1 1.2.3 60 .4 130.6.3 121-.3 128.4-.4 129.5-2.1.8-1.2.8-2.2 0-3.5-1.1-1.6-8.6-1.7-131.1-2-112.8-.2-130.2 0-131.3 1.2zm.6 28.2c-2 1.9-2 3.8-.2 5.3 1 .8 36 1 131.1.9 122.4-.3 129.8-.4 130.9-2.1.8-1.2.8-2.2 0-3.5-1.1-1.6-8.5-1.7-130.7-2-116.8-.2-129.7-.1-131.1 1.4zm508.8 5.2c-5.3 4.2-5.7 9.1-1 13.8l3.4 3.4h101.1c111.5 0 105.8.3 108.5-6.1 1.8-4.2.9-7.4-2.6-10.4l-3-2.5h-102.1c-95.3 0-102.3.2-104.3 1.8zm-509.2 23.4c-1.8 1.8-1.5 3.5 1 5.2 2 1.4 10.2 1.6 69.3 1.6 72.2 0 71.1.1 70.3-5.1l-.3-2.4-69.5-.3c-53.3-.2-69.9.1-70.8 1zm-219.9 14.9c15.6 8.7 26.2 28.5 26 48.9-.1 17.1-7.8 37.9-34.8 94.5-10.5 21.8-23.5 52.1-23.5 54.6 0 1.3 5.4 2.9 9.8 2.9 8.4-.1 20.6-6.4 32.2-16.8 4.5-4.1 7.7-8.7 17-24.8 32-55.7 33.1-58.3 33.8-75.9.6-18.7-4.1-37.2-13.5-53.5-4.6-7.9-15.7-19.8-22.4-24.1-6.8-4.3-16.8-7.8-24.3-8.5l-6.1-.5 5.8 3.2z"/><path d="M688.2 872.9c5.3 6.2 6.1 9.5 5.6 22.5-.8 18.2-6.5 32.5-32.8 82.2-8.8 16.7-17.4 33.3-19.1 37.1-2.9 6.6-3 6.8-2 15.3 1.3 10.6 3.4 18.8 6.8 26.2 3.4 7.7 4.9 8.9 6.3 5.2 3.4-9 10-23.5 24.2-52.9 32.6-67.4 37.7-83.2 33.4-103.1-3.3-15-12.4-29-22.7-34.9l-3.4-1.9 3.7 4.3zm730.2 4.1c-2.9 1.1-6.4 5.8-6.4 8.4 0 4 3.7 8.4 7.9 9.6 2.7.7 35.1 1 103.3.8 109.3-.3 102.2.1 105.3-6.5 1.4-2.9 1.4-3.6.1-6.8-2.9-6.8 2.6-6.5-108.3-6.4-54.9 0-100.8.4-101.9.9zM907 968c-.8 1.4-.8 2.6 0 4 1.1 2 1.9 2 70.2 1.8 64.5-.3 69.2-.4 70.2-2.1.8-1.2.8-2.2 0-3.5-1-1.6-5.7-1.7-70.2-2-68.3-.2-69.1-.2-70.2 1.8zm326.8 93.8c-11.9 8.1-23.4 16.1-25.5 17.8l-3.8 3.1 5.8 2.8c11.4 5.3 19.7 16.8 23.3 32.1 1.3 5.6 1.5 11.2 1.1 30.4-.3 21.4-.6 24.2-2.9 31.7-3.3 10.9-6 15.2-26.3 40.7-17.8 22.3-21.7 28.5-29.4 46.7-4.6 10.8-5.4 17.5-2.3 20.2.9.9 5.2 3.2 9.5 5.3 7.6 3.6 7.9 3.6 13.5 2.5 30.3-6.1 48.8-36.7 54.2-89.4.9-8.6.7-13.3-.7-25.9-1.2-11-1.7-23.6-1.6-45.3 0-31.2 1.2-48.9 5.3-74.4 1.1-6.8 1.9-12.5 1.8-12.7-.2-.1-10.1 6.4-22 14.4zM335.3 1259c.8 24.3 4.6 39.7 15.1 61.5 19.3 40.1 60.7 77.9 113 103.1l11.3 5.4 25.8 37.8c14.2 20.7 26.2 38.1 26.7 38.7 1.5 1.4.1-14.8-2.3-27.1-5-26.3-16.8-49.6-35.6-70.6-15.5-17.4-29.9-28.9-67.8-54.1-14.8-9.9-30.6-20.8-35-24.2-16.3-12.7-31.4-30.5-39.5-46.5-3.6-7.2-8-18.4-8-20.3.1-.6 1.5 2.7 3.3 7.4 6.2 16.3 15.1 29.8 28.9 43.7 9.9 10.1 21.1 18.6 42.3 32.2 42.1 27.1 56.1 37.7 73.8 56 18.4 18.9 29 35.8 36.3 57.7 3.9 11.5 7.4 28 7.4 34.5 0 8.7 1.9 2 3.1-10.8 2.7-29.9-4.7-59.4-19.9-79.5-5.7-7.5-19.6-20.6-30.5-28.7-3.9-3-19.3-13.5-34.2-23.5-14.8-9.9-33-22.3-40.4-27.6-7.4-5.3-14.8-10.4-16.5-11.5-4.2-2.5-17.6-13.9-25.7-21.7-13.3-13-23.7-27.7-28.4-40.4-1.5-3.9-2.9-7.2-3.2-7.5-.3-.3-.3 6.9 0 16zm2.4-2.8c-.3.8-.6.5-.6-.6-.1-1.1.2-1.7.5-1.3.3.3.4 1.2.1 1.9zm1 4c-.3.8-.6.5-.6-.6-.1-1.1.2-1.7.5-1.3.3.3.4 1.2.1 1.9zm1296.8 142.7c-8.2 8.4-27.8 27.3-43.5 41.9-36.6 34.1-78.1 74.9-89.1 87.7-36.8 42.9-56.4 78.6-65 118.6-1.9 8.6-2.3 13.5-2.2 27.9 0 18.7 1 26.1 5.9 42.2l2.7 8.8h10c9 0 9.9-.2 9.2-1.8-.4-.9-1.9-6-3.3-11.2-2.4-8.9-2.6-10.9-2.6-31.5 0-19.2.3-23.3 2.2-32.5 7.5-34.3 19.7-63 39.6-93.5 16.1-24.5 33.7-43.7 60.6-66.1 26.7-22.2 47.2-43.2 64.2-65.9 10-13.3 12.8-16.6 7.8-9-16.5 24.8-40.9 50.8-73.5 78.6-9.3 8-21 18.8-25.9 24-36.1 38.2-62.5 89.9-70.2 137.5-3.6 22-2 48.4 3.9 64.9l2.2 6 8.4.3c7.7.3 8.3.1 7.6-1.5-4.6-10.9-5.9-32.3-3-46.2 3.1-14.9 11.1-31.2 23-46.7 3-3.9 16.8-18.1 30.7-31.5 27.5-26.7 39.1-39.1 53.7-57.4 34.9-43.6 55.7-85.9 61.6-125 1.6-10.4 1.9-24.5.7-30.5l-.7-3.5-15 15.4zm3.5 5.1c-.6 1.1-1.3 2-1.6 2-.2 0 0-.9.6-2s1.3-2 1.6-2c.2 0 0 .9-.6 2z"/></g><path fill="#40BFBF" fill-opacity=".6" d="M760.3 661.7c25.7.2 67.7.2 93.5 0 25.7-.1 4.6-.2-46.8-.2s-72.5.1-46.7.2zM722 882.5c1.3 1.4 2.6 2.5 2.8 2.5.3 0-.5-1.1-1.8-2.5s-2.6-2.5-2.8-2.5c-.3 0 .5 1.1 1.8 2.5zm-387.8 370c0 1.6.2 2.2.5 1.2.2-.9.2-2.3 0-3-.3-.6-.5.1-.5 1.8zm0 6.5c0 1.9.2 2.7.5 1.7.2-.9.2-2.5 0-3.5-.3-.9-.5-.1-.5 1.8zm51.3 112c2.1 2.2 4.1 4 4.4 4 .3 0-1.3-1.8-3.4-4-2.1-2.2-4.1-4-4.4-4-.3 0 1.3 1.8 3.4 4zm1266.7 32c0 1.4.2 1.9.5 1.2.2-.6.2-1.8 0-2.5-.3-.6-.5-.1-.5 1.3zm-102.3 79.7c-1.3 1.6-1.2 1.7.4.4.9-.7 1.7-1.5 1.7-1.7 0-.8-.8-.3-2.1 1.3zm9 99c-1.3 1.6-1.2 1.7.4.4.9-.7 1.7-1.5 1.7-1.7 0-.8-.8-.3-2.1 1.3zm-14.5 14.5-1.9 2.3 2.3-1.9c2.1-1.8 2.7-2.6 1.9-2.6-.2 0-1.2 1-2.3 2.2z"/><path fill="#00BFBF" fill-opacity=".8" d="M898.8 749.7c3.4.2 8.8.2 12 0 3.1-.2.3-.3-6.3-.3s-9.2.1-5.7.3zM701 826.4c0 .2.8 1 1.8 1.7 1.5 1.3 1.6 1.2.3-.4s-2.1-2.1-2.1-1.3zm769.8 2.3c27.7.2 72.7.2 100 0 27.3-.1 4.7-.2-50.3-.2s-77.4.1-49.7.2zM686.5 872c1 1.1 2 2 2.3 2 .3 0-.3-.9-1.3-2s-2-2-2.3-2c-.3 0 .3.9 1.3 2zm61.8 78c0 2.5.2 3.5.4 2.2.2-1.2.2-3.2 0-4.5-.2-1.2-.4-.2-.4 2.3zM361 1284.4c0 .2.8 1 1.8 1.7 1.5 1.3 1.6 1.2.3-.4s-2.1-2.1-2.1-1.3zm8.5 8.6c1 1.1 2 2 2.3 2 .3 0-.3-.9-1.3-2s-2-2-2.3-2c-.3 0 .3.9 1.3 2zM1631 1406.7l-6.5 6.8 6.8-6.5c3.7-3.5 6.7-6.6 6.7-6.7 0-.8-1 .2-7 6.4zm-25.1 24c-1.3 1.6-1.2 1.7.4.4.9-.7 1.7-1.5 1.7-1.7 0-.8-.8-.3-2.1 1.3zm-14 13c-1.3 1.6-1.2 1.7.4.4.9-.7 1.7-1.5 1.7-1.7 0-.8-.8-.3-2.1 1.3zm-28 26c-1.3 1.6-1.2 1.7.4.4.9-.7 1.7-1.5 1.7-1.7 0-.8-.8-.3-2.1 1.3zm-27.9 27-5.5 5.8 5.8-5.5c3.1-3 5.7-5.6 5.7-5.7 0-.8-1 .1-6 5.4zm-16.5 122.5-4 4.3 4.3-4c2.3-2.1 4.2-4 4.2-4.2 0-.8-.9 0-4.5 3.9z"/><path fill="#40BFBF" fill-opacity=".7" d="M756.3 832.7c24.1.2 63.3.2 87 0 23.8-.1 4.1-.2-43.8-.2-47.8 0-67.3.1-43.2.2zm-77 33c.9.2 2.5.2 3.5 0 .9-.3.1-.5-1.8-.5-1.9 0-2.7.2-1.7.5zm866.6 621-2.4 2.8 2.8-2.4c1.5-1.4 2.7-2.6 2.7-2.8 0-.8-.8-.1-3.1 2.4zm-20.5 20.5-1.9 2.3 2.3-1.9c2.1-1.8 2.7-2.6 1.9-2.6-.2 0-1.2 1-2.3 2.2zm26.6 81.5-5.5 5.8 5.8-5.5c5.3-5 6.2-6 5.4-6-.1 0-2.7 2.6-5.7 5.7z"/><path fill="#FF4040" d="m1174.4 1228.2-1.9 2.3 2.3-1.9c2.1-1.8 2.7-2.6 1.9-2.6-.2 0-1.2 1-2.3 2.2z"/><path fill="#FF8040" d="M1103.1 622.6c0 1.1.3 1.4.6.6.3-.7.2-1.6-.1-1.9-.3-.4-.6.2-.5 1.3zm26.9 2.9c1.3 1.4 2.6 2.5 2.8 2.5.3 0-.5-1.1-1.8-2.5s-2.6-2.5-2.8-2.5c-.3 0 .5 1.1 1.8 2.5zm-79.1 7.2-2.4 2.8 2.8-2.4c2.5-2.3 3.2-3.1 2.4-3.1-.2 0-1.4 1.2-2.8 2.7zm-16 1-2.4 2.8 2.8-2.4c2.5-2.3 3.2-3.1 2.4-3.1-.2 0-1.4 1.2-2.8 2.7zm93.6 6.3c1 1.1 2 2 2.3 2 .3 0-.3-.9-1.3-2s-2-2-2.3-2c-.3 0 .3.9 1.3 2zm15.5.5c1.3 1.4 2.6 2.5 2.8 2.5.3 0-.5-1.1-1.8-2.5s-2.6-2.5-2.8-2.5c-.3 0 .5 1.1 1.8 2.5zm-107.6 7.7-1.9 2.3 2.3-1.9c1.2-1.1 2.2-2.1 2.2-2.3 0-.8-.8-.2-2.6 1.9zm-.4 5.3c1.3 1.4 2.6 2.5 2.8 2.5.3 0-.5-1.1-1.8-2.5s-2.6-2.5-2.8-2.5c-.3 0 .5 1.1 1.8 2.5zm92.9 8.2-2.4 2.8 2.8-2.4c1.5-1.4 2.7-2.6 2.7-2.8 0-.8-.8-.1-3.1 2.4zm15.5-.5-1.9 2.3 2.3-1.9c2.1-1.8 2.7-2.6 1.9-2.6-.2 0-1.2 1-2.3 2.2zm-109.9 6.8c1 1.1 2 2 2.3 2 .3 0-.3-.9-1.3-2s-2-2-2.3-2c-.3 0 .3.9 1.3 2zm16 1c1 1.1 2 2 2.3 2 .3 0-.3-.9-1.3-2s-2-2-2.3-2c-.3 0 .3.9 1.3 2zm67.6 6.6c0 1.1.3 1.4.6.6.3-.7.2-1.6-.1-1.9-.3-.4-.6.2-.5 1.3zm12.3.6-1.9 2.3 2.3-1.9c2.1-1.8 2.7-2.6 1.9-2.6-.2 0-1.2 1-2.3 2.2zm113.4 346.1-7.5 9.2 3.7 1.8c2.1 1 5 3.5 6.4 5.6 1.5 2.1 3.7 4.8 5 6 2 1.9 2.5 2 3.8.8.8-.8 2-4.7 2.7-8.6.9-5.1 2.3-8.7 4.7-12.3 1.9-2.8 3.3-5.1 3.2-5.2-.2-.1-3.3-1.6-7.1-3.4-3.7-1.7-6.9-3.2-7.1-3.2-.2 0-3.7 4.2-7.8 9.3zm-103.1 156.2c-2 4.1-2.1 10.5-.7 22.5 1.4 11.3 3.6 18.9 7.8 28 2 4.1 3.6 8.1 3.5 8.7-.1 1.8 5.9 1.6 10.4-.2 5.2-2.2 11.5-7.7 17.8-15.5 3-3.7 5.5-6.9 5.5-7.2 0-.3-2.1-.8-4.6-1.2-14.9-2-34.2-20.6-36.2-34.9-.2-2-.8-3.7-1.1-3.7-.4 0-1.5 1.6-2.4 3.5z"/><path fill="#FFBFBF" d="m1044.9 623.7-2.4 2.8 2.8-2.4c1.5-1.4 2.7-2.6 2.7-2.8 0-.8-.8-.1-3.1 2.4zm7.1-2.3c0 .2.8 1 1.8 1.7 1.5 1.3 1.6 1.2.3-.4s-2.1-2.1-2.1-1.3zm80.5 7.6c2.7 2.7 5.1 5 5.4 5 .3 0-1.7-2.3-4.4-5-2.7-2.8-5.1-5-5.4-5-.3 0 1.7 2.2 4.4 5zm-81.6 2.7-2.4 2.8 2.8-2.4c1.5-1.4 2.7-2.6 2.7-2.8 0-.8-.8-.1-3.1 2.4zm-18.4 5.5-5 5.3 5.3-5c2.8-2.7 5.2-5.1 5.2-5.2 0-.8-.9.1-5.5 4.9zm93.5-1c4.1 4.5 5 5.3 5 4.5 0-.2-2.1-2.3-4.7-4.7l-4.8-4.5 4.5 4.7zm20 7c4.1 4.5 5 5.3 5 4.5 0-.2-2.1-2.3-4.7-4.7l-4.8-4.5 4.5 4.7zm-107 1.3c-2.4 2.5-4.2 4.5-3.9 4.5.3 0 2.5-2 4.9-4.5 2.4-2.5 4.2-4.5 3.9-4.5-.3 0-2.5 2-4.9 4.5zm98.4 4.2c1.9 2.2 1.9 2.4 0 4.5l-1.8 2.3 2.4-2.3 2.4-2.2-2.4-2.3-2.4-2.2 1.8 2.2zm13.8 2.3c0 1.4.2 1.9.5 1.2.2-.6.2-1.8 0-2.5-.3-.6-.5-.1-.5 1.3zm-112.7 6c2.7 2.7 5.1 5 5.4 5 .3 0-1.7-2.3-4.4-5-2.7-2.8-5.1-5-5.4-5-.3 0 1.7 2.2 4.4 5zm108 1.2-4 4.3 4.3-4c3.9-3.6 4.7-4.5 3.9-4.5-.2 0-2.1 1.9-4.2 4.2zm-114.5 6c4.1 4.5 5 5.3 5 4.5 0-.2-2.1-2.3-4.7-4.7l-4.8-4.5 4.5 4.7zm94.5 1-5 5.3 5.3-5c2.8-2.7 5.2-5.1 5.2-5.2 0-.8-.9.1-5.5 4.9zm-75.5 5.3c1.3 1.4 2.6 2.5 2.8 2.5.3 0-.5-1.1-1.8-2.5s-2.6-2.5-2.8-2.5c-.3 0 .5 1.1 1.8 2.5zm82 2c-2.4 2.5-4.2 4.5-3.9 4.5.3 0 2.5-2 4.9-4.5 2.4-2.5 4.2-4.5 3.9-4.5-.3 0-2.5 2-4.9 4.5zm-78.9 3.1c0 1.1.3 1.4.6.6.3-.7.2-1.6-.1-1.9-.3-.4-.6.2-.5 1.3zm-10.1 1.9c1.3 1.4 2.6 2.5 2.8 2.5.3 0-.5-1.1-1.8-2.5s-2.6-2.5-2.8-2.5c-.3 0 .5 1.1 1.8 2.5zm26.1 5.1c0 1.1.3 1.4.6.6.3-.7.2-1.6-.1-1.9-.3-.4-.6.2-.5 1.3zm-85.8 495.1c.9.2 2.5.2 3.5 0 .9-.3.1-.5-1.8-.5-1.9 0-2.7.2-1.7.5zm7.5 1c.6.2 1.8.2 2.5 0 .6-.3.1-.5-1.3-.5-1.4 0-1.9.2-1.2.5zm-20 3.4c-3.2 1.6-5.8 3.2-5.8 3.4 0 .5 11.9-5.2 12.9-6.1 1.3-1.2-2.2.1-7.1 2.7zm26-2.4c.7.3 1.6.2 1.9-.1.4-.3-.2-.6-1.3-.5-1.1 0-1.4.3-.6.6zm5 1c.7.3 1.6.2 1.9-.1.4-.3-.2-.6-1.3-.5-1.1 0-1.4.3-.6.6zm-43.3 8.7c-6.6 4.4-8.2 6.3-6.6 7.9 1 .9 1.1.8.6-.5-.5-1.3.5-2.6 4-5 6.7-4.7 8.1-5.7 7.5-5.8-.3 0-2.8 1.5-5.5 3.4zm-3.7 9.3c.7.3 1.6.2 1.9-.1.4-.3-.2-.6-1.3-.5-1.1 0-1.4.3-.6.6zm6.5 1c.9.2 2.3.2 3 0 .6-.3-.1-.5-1.8-.5-1.6 0-2.2.2-1.2.5zm10 1c1.5.2 3.7.2 5 0 1.2-.2 0-.4-2.8-.4-2.7 0-3.8.2-2.2.4zm16 1c1.5.2 3.7.2 5 0 1.2-.2 0-.4-2.8-.4-2.7 0-3.8.2-2.2.4z"/><path fill="#FFBF80" d="M979.8 1200.7c.7.3 1.6.2 1.9-.1.4-.3-.2-.6-1.3-.5-1.1 0-1.4.3-.6.6z"/><path fill="#FF8080" d="M1122.8 620.7c.7.3 1.6.2 1.9-.1.4-.3-.2-.6-1.3-.5-1.1 0-1.4.3-.6.6zm-83.9 9c-1.3 1.6-1.2 1.7.4.4 1.6-1.3 2.1-2.1 1.3-2.1-.2 0-1 .8-1.7 1.7zm8 7c-1.3 1.6-1.2 1.7.4.4 1.6-1.3 2.1-2.1 1.3-2.1-.2 0-1 .8-1.7 1.7zm84.1 5.7c0 .2.8 1 1.8 1.7 1.5 1.3 1.6 1.2.3-.4s-2.1-2.1-2.1-1.3zm-108 13c0 .2.8 1 1.8 1.7 1.5 1.3 1.6 1.2.3-.4s-2.1-2.1-2.1-1.3zm117.9 9.3c-1.3 1.6-1.2 1.7.4.4 1.6-1.3 2.1-2.1 1.3-2.1-.2 0-1 .8-1.7 1.7zm-94.9-.3c0 .2.8 1 1.8 1.7 1.5 1.3 1.6 1.2.3-.4s-2.1-2.1-2.1-1.3zm-9 6c0 .2.8 1 1.8 1.7 1.5 1.3 1.6 1.2.3-.4s-2.1-2.1-2.1-1.3zm192 299.3c-3.3 2.3-4.6 3.9-7.5 9.5-1.4 2.7-3 4.8-3.6 4.8-1.9 0-5.4-2.3-10.7-7.1-5.7-5.2-11.4-7.4-16.2-6.4l-2.8.6 1.9 7.1c4.6 16.4 10.8 30.1 19.2 42.4 7.6 10.9 10.5 13.7 13.7 13 1.4-.3 4.9-.9 7.8-1.3 5.4-.6 5.4-.6 13-10.1 7.1-8.7 7.5-9.6 5.8-10.6-5-2.9-12.3-9.5-14-12.8l-2-3.6 2.9-11.6c2.8-11.2 2.8-11.6 1-13.6-2.2-2.4-5.2-2.6-8.5-.3zm-256.1 213c-9.6 4.9-19.9 11.8-19.9 13.3 0 1.7 7.7 2.9 28 4.4l20.5 1.5 55 13.6c60.3 14.9 94.4 22.9 95 22.4.2-.2-1.3-3.8-3.3-7.9-5.7-11.6-9.1-27.5-9.2-42.4 0-5.1-.2-5.7-1.3-4.2-1.2 1.6-5.1 1.7-60.7 1.3l-59.5-.4-14.5-3.1c-8-1.8-15.9-3.2-17.6-3.2-1.7 0-7.3 2.1-12.5 4.7z"/><path fill="#BF4000" d="M1006.1 620.6c0 1.1.3 1.4.6.6.3-.7.2-1.6-.1-1.9-.3-.4-.6.2-.5 1.3zm-24.3 14.1c2.3.2 5.9.2 8 0 2-.2.1-.4-4.3-.4-4.4 0-6.1.2-3.7.4zm276.7 196.5-35 35.3 35.3-35c32.7-32.5 35.6-35.5 34.9-35.5-.1 0-16 15.9-35.2 35.2zm-284.2 86.5c35.7.2 93.7.2 129 0 35.3-.1 6.2-.2-64.8-.2-70.9 0-99.8.1-64.2.2zm-31.5 20c18.8.2 49.6.2 68.5 0 18.8-.1 3.4-.2-34.3-.2-37.7 0-53.1.1-34.2.2zm-35.6 6.9c1 1 2 1.6 2.2 1.3.3-.3-.5-1.1-1.7-1.8-2.1-1.3-2.1-1.2-.5.5zm-271.9 280.1c10.3.2 27.1.2 37.5 0 10.3-.1 1.8-.2-18.8-.2s-29.1.1-18.7.2zm90 1.3c-3 1.8-6 5.7-5 6.6.2.2 1-.7 1.7-2.1.7-1.4 1.6-2.5 1.9-2.5.8-.1 5.8-3.9 5.1-4-.3 0-1.9.9-3.7 2zm197.5-1.3c31 .2 81.4.2 112 0 30.6-.1 5.3-.2-56.3-.2-61.6 0-86.7.1-55.7.2zm-203.7 12.1c-.2 5.7 5.4 13.3 9.8 13.2.9-.1.2-.7-1.6-1.5-3.9-1.7-6.5-5.5-7.4-10.9-.6-3.9-.7-3.9-.8-.8zm-52.3 13.9c1.7.2 4.7.2 6.5 0 1.7-.2.3-.4-3.3-.4-3.6 0-5 .2-3.2.4zm217.9 0c1.8.2 5 .2 7 0 2.1-.2.7-.4-3.2-.4-3.8 0-5.5.2-3.8.4zm28.3 23.7c0 .2.8 1 1.8 1.7 1.5 1.3 1.6 1.2.3-.4s-2.1-2.1-2.1-1.3zm4 5c0 .2.8 1 1.8 1.7 1.5 1.3 1.6 1.2.3-.4s-2.1-2.1-2.1-1.3zm-9 4c0 .2.8 1 1.8 1.7 1.5 1.3 1.6 1.2.3-.4s-2.1-2.1-2.1-1.3zm13 1c0 .2.8 1 1.8 1.7 1.5 1.3 1.6 1.2.3-.4s-2.1-2.1-2.1-1.3zm-9 4c0 .2.8 1 1.8 1.7 1.5 1.3 1.6 1.2.3-.4s-2.1-2.1-2.1-1.3zm4 5c0 .2.8 1 1.8 1.7 1.5 1.3 1.6 1.2.3-.4s-2.1-2.1-2.1-1.3zm34 27c0 .2.8 1 1.8 1.7 1.5 1.3 1.6 1.2.3-.4s-2.1-2.1-2.1-1.3zm4 5c0 .2.8 1 1.8 1.7 1.5 1.3 1.6 1.2.3-.4s-2.1-2.1-2.1-1.3zm-9 4c0 .2.8 1 1.8 1.7 1.5 1.3 1.6 1.2.3-.4s-2.1-2.1-2.1-1.3zm13 1c0 .2.8 1 1.8 1.7 1.5 1.3 1.6 1.2.3-.4s-2.1-2.1-2.1-1.3zm-9 4c0 .2.8 1 1.8 1.7 1.5 1.3 1.6 1.2.3-.4s-2.1-2.1-2.1-1.3zm4 5c0 .2.8 1 1.8 1.7 1.5 1.3 1.6 1.2.3-.4s-2.1-2.1-2.1-1.3zm10 4c-2 2.8-2.8 3.2-4 2.3-1.3-1-1.3-1-.1.5.7 1 1.4 1.8 1.6 1.8.1 0 1.6-1.8 3.4-4 1.7-2.2 2.8-4 2.4-4-.4 0-1.9 1.6-3.3 3.4zm6.2 8.5c-1.8 2.3-2.8 4.2-2.2 4.6.6.3 1 .1 1-.6s1.2-2.5 2.7-4.1c1.4-1.5 2.4-3 2.1-3.3-.2-.3-1.9 1.3-3.6 3.4zM848 1472.8c-1.9 2-2.4 2.6-1 1.5 1.4-1.2 3.6-2.6 4.9-3.1 1.7-.6 2-1 1-1.4-.8-.3-2.9 1-4.9 3zm14.6-1.4c1.7.8 4 2.6 5.2 4.1 1.2 1.5 2.2 2.2 2.2 1.5 0-2-6-7-8.4-7-1.7.1-1.5.3 1 1.4zm3.7 22.2c-1.7 1.9-2.7 3.4-2.2 3.4 1.3 0 5.9-4.6 5.9-6 0-1.3.1-1.3-3.7 2.6zm-19.8.2c1.1 1.3 2.9 2.8 4 3.4 2.1 1.1 1.8.8-3-3.2-2.9-2.4-2.9-2.4-1-.2zm251.5 10.6c0 .2.8 1 1.8 1.7 1.5 1.3 1.6 1.2.3-.4s-2.1-2.1-2.1-1.3zm4 5c0 .2.8 1 1.8 1.7 1.5 1.3 1.6 1.2.3-.4s-2.1-2.1-2.1-1.3zm4 5c0 .2.8 1 1.8 1.7 1.5 1.3 1.6 1.2.3-.4s-2.1-2.1-2.1-1.3zm33 41c0 .2.8 1 1.8 1.7 1.5 1.3 1.6 1.2.3-.4s-2.1-2.1-2.1-1.3zm4 5c0 .2.8 1 1.8 1.7 1.5 1.3 1.6 1.2.3-.4s-2.1-2.1-2.1-1.3zm33 41c0 .2.8 1 1.8 1.7 1.5 1.3 1.6 1.2.3-.4s-2.1-2.1-2.1-1.3zm4 5c0 .2.8 1 1.8 1.7 1.5 1.3 1.6 1.2.3-.4s-2.1-2.1-2.1-1.3zm-214.1 9.3c-1.3 1.6-1.2 1.7.4.4.9-.7 1.7-1.5 1.7-1.7 0-.8-.8-.3-2.1 1.3zm-3 4c-1.3 1.6-1.2 1.7.4.4.9-.7 1.7-1.5 1.7-1.7 0-.8-.8-.3-2.1 1.3zm250.1 27.7c0 .2.8 1 1.8 1.7 1.5 1.3 1.6 1.2.3-.4s-2.1-2.1-2.1-1.3zm4 5c0 .2.8 1 1.8 1.7 1.5 1.3 1.6 1.2.3-.4s-2.1-2.1-2.1-1.3zm4 5c0 .2.8 1 1.8 1.7 1.5 1.3 1.6 1.2.3-.4s-2.1-2.1-2.1-1.3z"/><path fill="#400040" d="M943.8 946.7c18.9.2 49.5.2 68 0 18.5-.1 3.1-.2-34.3-.2s-52.6.1-33.7.2z"/><path fill="#804000" d="M1271.6 892.3c.3 1 .9 1.5 1.2 1.2.3-.3 0-1.1-.7-1.8-1-.9-1.1-.8-.5.6z"/><path fill="#40BFBF" fill-opacity=".5" d="M697.5 747c0 38.8.1 54.6.2 35.2.2-19.3.2-51.1 0-70.5-.1-19.3-.2-3.5-.2 35.3zm773.3 101.7c27.7.2 72.7.2 100 0 27.3-.1 4.7-.2-50.3-.2s-77.4.1-49.7.2zm181.3 550.9c0 1.1.3 1.4.6.6.3-.7.2-1.6-.1-1.9-.3-.4-.6.2-.5 1.3zm-217.9 278.9c0 1.6.2 2.2.5 1.2.2-.9.2-2.3 0-3-.3-.6-.5.1-.5 1.8z"/><path fill="#40BFBF" d="m769.5 709.2-4 4.3 4.3-4c3.9-3.6 4.7-4.5 3.9-4.5-.2 0-2.1 1.9-4.2 4.2zm56.5 21.2c0 .2.8 1 1.8 1.7 1.5 1.3 1.6 1.2.3-.4s-2.1-2.1-2.1-1.3zm-57 53.8c4.1 4.5 5 5.3 5 4.5 0-.2-2.1-2.3-4.7-4.7l-4.8-4.5 4.5 4.7zm75 .3c-2.4 2.5-4.2 4.5-3.9 4.5.3 0 2.5-2 4.9-4.5 2.4-2.5 4.2-4.5 3.9-4.5-.3 0-2.5 2-4.9 4.5zm-13.5 2.5c1 1.1 2 2 2.3 2 .3 0-.3-.9-1.3-2s-2-2-2.3-2c-.3 0 .3.9 1.3 2zm-54.7 2.7c.7.3 1.6.2 1.9-.1.4-.3-.2-.6-1.3-.5-1.1 0-1.4.3-.6.6zm476.3 281.9c0 1.1.3 1.4.6.6.3-.7.2-1.6-.1-1.9-.3-.4-.6.2-.5 1.3zm-1 8c0 1.1.3 1.4.6.6.3-.7.2-1.6-.1-1.9-.3-.4-.6.2-.5 1.3zm-1 10c0 1.1.3 1.4.6.6.3-.7.2-1.6-.1-1.9-.3-.4-.6.2-.5 1.3zm-.9 11.4c0 1.4.2 1.9.5 1.2.2-.6.2-1.8 0-2.5-.3-.6-.5-.1-.5 1.3zm-594.1 12.6c0 1.1.3 1.4.6.6.3-.7.2-1.6-.1-1.9-.3-.4-.6.2-.5 1.3zm593.3 13.9c0 6 .1 8.4.3 5.2.2-3.2.2-8.1 0-11-.2-2.9-.3-.3-.3 5.8zm-593.3 3.1c0 1.1.3 1.4.6.6.3-.7.2-1.6-.1-1.9-.3-.4-.6.2-.5 1.3zm516 151c0 1.1.3 1.4.6.6.3-.7.2-1.6-.1-1.9-.3-.4-.6.2-.5 1.3zm349.2 229.1c.4.3.1 1.3-.6 2.2-1.1 1.4-1 1.4.5.2 1.6-1.2 1.6-3.1.1-3.1-.4 0-.3.3 0 .7z"/><g fill="#80BFBF" stroke-width="0"><path d="M803.7 694.7c1.8.2 5 .2 7 0 2.1-.2.7-.4-3.2-.4-3.8 0-5.5.2-3.8.4zm26.7 14.5-2.9 3.3 3.3-2.9c1.7-1.7 3.2-3.1 3.2-3.3 0-.8-.8-.1-3.6 2.9zm15.1 62.8c1 1.1 2 2 2.3 2 .3 0-.3-.9-1.3-2s-2-2-2.3-2c-.3 0 .3.9 1.3 2zm524 208.6c-23.7 2.5-33.2 3.9-43 6.4-11.4 2.9-25.5 8.2-32.7 12.2l-3.7 2.1 2.7 2c3.6 2.7 14.2 13 14.2 13.8 0 .3 2.1 3.7 4.7 7.5 24.8 36.8 39.3 110 39.3 199.4 0 79.4-15.1 139.4-45.6 181-10.8 14.8-28.2 30.4-41.9 37.5l-6.6 3.5h61.8c49 0 62.9-.3 66.9-1.4 30.6-8.1 58.6-50.5 83.2-125.6 21.6-65.9 39.9-158.4 46.7-235.5 2.2-24.5 2-37.1-.6-44.7-9-26.9-46.5-48.8-95.9-56.3-10.3-1.5-41.6-2.7-49.5-1.9zm-784 6.4c-4 6.4-12 23.3-14.4 30.9-10 30.7-6 58.6 11.9 84.6 5.3 7.6 21.5 23.9 28.3 28.5 2 1.4 3.7 3.1 3.7 3.7 0 1 4.7 1.3 19.9 1.3h19.9l.7-7.4c1.4-14.6-2.1-31.7-9.5-47.1-4.5-9.4-14.3-23.4-16.5-23.5-1.2-.1-15.5-18-21.4-26.7-8.6-12.9-15.7-29.3-18.5-42.7l-1.2-6.1-2.9 4.5zm101.4 94.7c-1.3 1.6-1.2 1.7.4.4.9-.7 1.7-1.5 1.7-1.7 0-.8-.8-.3-2.1 1.3zm118.3 16.3c-1.2 1.2-2.2 2.5-2.2 2.9 0 .5 14.5 28.4 32.2 62l32.1 61.1 109.6-.1h109.6l-29.5-7.7-29.5-7.6-80.7-.3-80.6-.4-28.7-55.2c-15.8-30.4-29-55.5-29.4-56-.4-.4-1.7.2-2.9 1.3zm52.6 3.7c20 .2 52.4.2 72 0 19.6-.1 3.3-.2-36.3-.2-39.6 0-55.7.1-35.7.2zm-254.4 62c.3 1.6 2.4 14.7 4.8 29.2 3.5 22.2 4.5 26.8 6.4 28.8l2.2 2.3 37.7-.2 37.8-.3 1.8-2.5c1.4-1.8 3.1-10.2 6.4-30.3 2.5-15.3 4.5-28.2 4.5-28.7 0-.6-18.6-1-51.1-1h-51.1l.6 2.7z"/><path d="M903.8 1202.7c17.8.2 46.6.2 64 0 17.4-.1 2.9-.2-32.3-.2-35.2 0-49.5.1-31.7.2zm283 244 41.2.3v98.6c0 66.2-.4 100.9-1.1 105.7-1.1 7.3-4.2 16.6-8.2 24.7-3.6 7.2-11.8 15.1-32.9 31.6-11 8.6-20.2 16.3-20.5 17.2-.4.9.3 2.3 1.6 3.4 2.2 1.7 5.8 1.8 74.3 1.8 47.7 0 72.6-.3 73.9-1 4.7-2.6 2.6-4.9-19.7-22.5-23.3-18.2-28.7-23.8-34.1-35.2-7.2-14.9-6.7-6.7-7-121.6l-.4-103.7-54.2.2c-52.5.3-52.9.3-12.9.5z"/></g><path fill="#FF8080" fill-opacity=".3" d="M1207.6 1019.2c2.7 4.8 9.6 13.7 11 14.2.9.4.2-.8-1.5-2.6-1.8-1.8-4.6-5.4-6.3-8-1.6-2.7-3.2-4.8-3.5-4.8-.2 0-.1.6.3 1.2zm17.2 14.5c.7.3 1.6.2 1.9-.1.4-.3-.2-.6-1.3-.5-1.1 0-1.4.3-.6.6zm-209 150c.7.3 1.6.2 1.9-.1.4-.3-.2-.6-1.3-.5-1.1 0-1.4.3-.6.6zm8.5 1c.9.2 2.3.2 3 0 .6-.3-.1-.5-1.8-.5-1.6 0-2.2.2-1.2.5z"/><path fill="#FF8040" fill-opacity=".5" d="M1250 1044.5c1.3 1.4 2.6 2.5 2.8 2.5.3 0-.5-1.1-1.8-2.5s-2.6-2.5-2.8-2.5c-.3 0 .5 1.1 1.8 2.5z"/><path fill="#004080" fill-opacity=".8" d="M786.5 1638c-.3.6.1.7.9.4 1.8-.7 2.1-1.4.7-1.4-.6 0-1.3.4-1.6 1zm-.5 2.9c0 .6.4 1.3 1 1.6.6.3.7-.1.4-.9-.7-1.8-1.4-2.1-1.4-.7zm3.6 5.4c.3 1 .9 1.5 1.2 1.2.3-.3 0-1.1-.7-1.8-1-.9-1.1-.8-.5.6zm6.3 7.4c1.2 1.8 2.4 3.3 2.7 3.3.9 0-1.5-3.7-3.3-5.1-1.2-1-1.1-.5.6 1.8zm15.1 15.6c0 .1 2.1 2 4.8 4.2 4.3 3.5 4.5 3.6 1.7.6-2.6-2.9-6.5-5.8-6.5-4.8zm192.1 14c-1.3 2.1-1.2 2.1.5.5 1-1 1.6-2 1.3-2.2-.3-.3-1.1.5-1.8 1.7zm-178.1-1c0 .2 1.5 1.4 3.3 2.7 2 1.5 2.7 1.7 1.8.6-1.3-1.6-5.1-4.1-5.1-3.3zm164.5 8.7c-.3.6.1.7.9.4 1.8-.7 2.1-1.4.7-1.4-.6 0-1.3.4-1.6 1zm-154.4.3c.2.1 1.3.9 2.4 1.7 1.9 1.4 1.9 1.4.6-.3-.7-.9-1.8-1.7-2.4-1.7-.6 0-.8.1-.6.3zm147.4 2.7c-.3.6.1.7.9.4 1.8-.7 2.1-1.4.7-1.4-.6 0-1.3.4-1.6 1zm-7 3c-.3.6.1.7.9.4 1.8-.7 2.1-1.4.7-1.4-.6 0-1.3.4-1.6 1zm-132.4 1.3c.2.1 1.3.9 2.4 1.7 1.9 1.4 1.9 1.4.6-.3-.7-.9-1.8-1.7-2.4-1.7-.6 0-.8.1-.6.3zm6.9 6.1c0 .2.7.7 1.6 1 .8.3 1.2.2.9-.4-.6-1-2.5-1.4-2.5-.6zm6 5c0 .2.7.7 1.6 1 .8.3 1.2.2.9-.4-.6-1-2.5-1.4-2.5-.6zm6 4c0 .2.8 1 1.8 1.7 1.5 1.3 1.6 1.2.3-.4s-2.1-2.1-2.1-1.3zm9 8c0 .2.7.7 1.6 1 .8.3 1.2.2.9-.4-.6-1-2.5-1.4-2.5-.6z"/><path fill="#004080" d="M886.4 802c0 16.8.2 23.6.3 15.2.2-8.3.2-22.1 0-30.5-.1-8.3-.3-1.5-.3 15.3zm86.8 2.7c35.7.2 93.9.2 129.6 0 35.6-.1 6.4-.2-64.8-.2s-100.4.1-64.8.2zm0 19c35.7.2 93.9.2 129.6 0 35.6-.1 6.4-.2-64.8-.2s-100.4.1-64.8.2zm-29.9 151c19.2.2 50.2.2 69 0 18.8-.1 3.2-.2-34.8-.2-37.9 0-53.3.1-34.2.2zm-155.6 663.6c-1.7 1.1-1.5 1.6 1.5 6.2 6.3 9.6 37.6 39.3 66.8 63.6 14.5 12.1 27.8 21.9 29.5 21.9 1.5 0 8.7-8 8.3-9.2-.6-1.8-101.1-83.8-102.7-83.8-.9 0-2.5.6-3.4 1.3zm81.4 0c-1.4 1.4-28.5 1.7-35.8.4-4.3-.7-4.3-.7-4.3 2.2 0 3.7 3.4 6.6 10.3 8.6 5.9 1.8 18.5 2 24.2.4 4.9-1.4 12.5-4.9 12.5-5.8-.1-.3-1.3-2.1-2.9-3.8-2.2-2.6-3-3-4-2zm139.4 29.5c-.1 14.1-2.7 16.8-26.2 26.8l-13.5 5.8 2.8 2.3c4.2 3.4 7 3.8 13.2 1.8 8.6-2.7 30.9-14.3 33.6-17.6 2.4-2.9 3-5.2 4.4-16.9.7-6.1.7-6.5-1.3-6.6-4.6-.3-9.9-1.4-10.9-2.4-1.8-1.8-2.1-1.1-2.1 6.8zm-79.5 57.1c-2.8 5.4-7.6 5.1 77.6 5.1h78.5l-.3-3.3-.3-3.2-77.2-.3c-75.5-.2-77.2-.2-78.3 1.7z"/><g fill="teal" stroke-width="0"><path d="M973.2 795.7c35.7.2 93.9.2 129.6 0 35.6-.1 6.4-.2-64.8-.2s-100.4.1-64.8.2zm196.9 3.9c0 1.1.3 1.4.6.6.3-.7.2-1.6-.1-1.9-.3-.4-.6.2-.5 1.3zm0 29c0 1.1.3 1.4.6.6.3-.7.2-1.6-.1-1.9-.3-.4-.6.2-.5 1.3zm-196.9 4.1c35.7.2 93.9.2 129.6 0 35.6-.1 6.4-.2-64.8-.2s-100.4.1-64.8.2zm-66.3 21c-1.3 1.7-1.3 1.7.6.3 1.1-.8 2.2-1.6 2.4-1.7.2-.2 0-.3-.6-.3s-1.7.8-2.4 1.7zM683 867.4c0 .3 1.4 1.2 3 2.1 1.7.9 3 1.3 3 1.1 0-.3-1.3-1.2-3-2.1-1.6-.9-3-1.3-3-1.1zm12.7 9.3c13.7 13.7 19.3 35.2 14.3 54.9-4.2 16.4-9.9 29.8-32.2 75.9-12.3 25.3-18.1 37.9-24.9 54.5l-1.1 2.5-2.3-2.9c-4.3-5.3-6.7-13.6-10.2-34.1l-.9-5-2.2 6.5c-2.8 8.5-5.2 20.1-5.2 25.3 0 3.6.8 5.1 5.1 10.2 6.2 7.4 14.2 23.4 17.1 34 1.6 6.3 2.1 11.1 2.2 22.2l.1 14.3h19l2.7-7.3c3-7.7 12.5-25.6 15.9-29.7l2.1-2.5-2 3.5c-1 1.9-3.3 6-5 9-2.8 5.2-9.1 19.7-10.7 24.7l-.6 2.3h15.5c15.1 0 15.6-.1 15.6-2.1 0-5.9 2.3-32.6 3.5-40.9.8-5.2 2.5-13.3 3.9-18 1.3-4.7 2.3-8.7 2-8.9-.7-.8-8.8 2-13.1 4.5-2.3 1.3-7.6 5.1-11.7 8.4l-7.6 6 1.6-3.8c.8-2 4.3-9.2 7.7-16 3.4-6.7 6.4-12.8 6.6-13.3.2-.6-3 1.7-7 5-4 3.4-10.9 8-15.3 10.2-7.5 3.8-8.6 4-14.8 3.7-3.7-.2-7.3-.9-8-1.6-1.7-1.7 5.6-19.5 24.7-60.2 23.7-50.4 30.8-68.8 32.5-83.6 2.1-19.6-6.6-41.8-20.3-51.6-1.7-1.3-.4.5 3 3.9zm247.6 89c18.5.2 48.9.2 67.5 0 18.5-.1 3.3-.2-33.8-.2-37.1 0-52.3.1-33.7.2zm254.5 122.5c-14.2 13.9-47.7 65.4-52.5 80.5-1.5 4.9-1.5 5.6.1 11.5 3.3 12.1 13.2 23.3 26.1 29.5 9.3 4.4 15.2 4.5 20.5.3l3.9-3.1-.5 3.8c-1.3 9.8-3.8 20.3-5.9 25.8-1.4 3.2-2.3 6-2.1 6.2.1.2 4.4-5 9.4-11.5 5.1-6.4 13.4-17.1 18.6-23.7 16.7-21.2 18.7-27.2 19.3-60 .4-18.9.2-24.2-1.1-29.9-4-17-14.8-30-28.3-34-1.7-.5-3.3.4-7.5 4.6zm394 83.6c1 14.3-3.2 48.1-8.8 69.5-11.8 45.9-32.8 86.7-67 130.7-25.5 32.8-39.3 60.5-49.6 99.7-3.1 11.9-7.5 32.5-7 33 .2.2 17.3-7.4 32.1-14.2 5.7-2.6 7.6-4.5 9.5-9.5 3.5-9.4 18.2-36.4 28.5-52.5 12-18.6 21.4-36.1 28.3-52.5 10.2-24.2 20.1-56.1 26.7-86 1.8-8.5 3.4-14.8 3.4-13.9.1 2.4-4.3 23.5-7.9 37.9-11.7 46.8-26.6 82.7-48.4 116.4-4 6.1-9.6 15.2-12.4 20.3-6.4 11.1-16.5 32.3-15.8 33 1.1 1.2 29.2-15.3 43.6-25.5 3.6-2.6 6.6-4.4 6.7-4.2.3.8 13.1-24.5 19-37.5 14.8-32.5 24.1-60.1 30.3-89.5 5.1-24.4 6.4-37.3 6.5-63.5 0-25.6-1-36.8-5.2-57-2.3-11.1-10.5-38-12.2-39.8-.4-.4-.5 1.9-.3 5.1zm2.9 56.4c-.3.7-.5.2-.5-1.2s.2-1.9.5-1.3c.2.7.2 1.9 0 2.5zm-1 10.5c-.3 1-.5.4-.5-1.2 0-1.7.2-2.4.5-1.8.2.7.2 2.1 0 3zm-1 8c-.3 1-.5.4-.5-1.2 0-1.7.2-2.4.5-1.8.2.7.2 2.1 0 3zm-1 8c-.3 1-.5.4-.5-1.2 0-1.7.2-2.4.5-1.8.2.7.2 2.1 0 3zm-1 6c-.3 1-.5.4-.5-1.2 0-1.7.2-2.4.5-1.8.2.7.2 2.1 0 3zm-1.2 8.8c-.4 2.5-.9 4.4-1.2 4.1-.2-.2-.1-2.5.2-5.1.4-2.5.9-4.4 1.2-4.1.2.2.1 2.5-.2 5.1zm-337.9-67c-.4 3.3-1.4 10.7-2.2 16.5-6.5 44-24.9 70.8-52.4 76.3l-6.5 1.3 9.6 3.2c14.8 4.9 35.8 9.7 54.5 12.6 9.3 1.5 18.1 2.8 19.7 3.1 2.4.4 2.7.2 2.2-1.8-.2-1.2-.9-5.1-1.5-8.7-2.1-12.5-5.2-26.7-11-51-4.9-20.4-9.7-43.6-11.3-55-.2-1.4-.6.1-1.1 3.5zm-889.9 27.8c6.7 23.7 14.4 44.1 23.2 61.3 12.9 25 12.3 24.1 19.2 29.1 3.5 2.6 20.8 14.4 38.4 26.1 17.6 11.8 36.4 24.8 41.8 28.8l9.9 7.4-4.8-8.8c-26.3-48.2-64.8-95.5-116-142.3l-15.1-13.8 3.4 12.2zm43.9 58.4c14.7 22.7 33.3 53.7 32.7 54.3-.9.9-4.3-4.2-13.7-20.5-8.2-14.2-24-40.2-29-47.8-1-1.5-1.6-2.7-1.3-2.7.3 0 5.4 7.5 11.3 16.7zm-61.6-12.2c0 1.7 8 15.7 12.8 22.5 7.2 10.1 20.6 23.5 32.7 32.5 6.1 4.5 21.6 15.2 34.5 23.7 29.4 19.4 43.4 30.2 58 44.8 13.7 13.7 23.1 26.5 30.5 41.5 8.7 17.7 13.7 35.8 15 54.5.4 4.7.9 9.6 1.1 11 .5 2.3.6 2.3 1.6.6 1.4-2.6 1.1-14.9-.7-24.7-6-32.3-18.6-56.6-41.9-80.8-16.1-16.6-30.4-27.6-68.1-52-13.3-8.7-28-18.7-32.6-22.2-16.3-12.3-29.5-27.5-38.3-43.9-2.5-4.7-4.6-8.1-4.6-7.5zm1284.9 145.2c-1.3 1.6-1.2 1.7.4.4.9-.7 1.7-1.5 1.7-1.7 0-.8-.8-.3-2.1 1.3zm-4.5 6c-1.5 2-2.3 3.3-1.6 2.9 1.3-.8 5.6-6.6 4.9-6.6-.3 0-1.7 1.7-3.3 3.7z"/><path d="M1612.2 1442.8c-11.7 13.8-34.3 35.9-50.2 49.2-19.4 16.2-26.5 22.7-35.7 33-33.7 37.5-57.4 83.5-66.3 128.6-3.1 15.3-3.8 40.5-1.6 53.4 2.4 13.7 5.5 23 7.8 23 2.2 0 2.2-.7.2-5.5-.8-2.1-2.4-7.8-3.5-12.6-12-55.3 17.2-135.8 69.3-190.5 5.7-5.9 17.9-17.3 27.2-25.3 26.6-22.8 43.4-39.7 58.6-58.9 7.1-8.8 3.9-5.8-5.8 5.6zm-105.9 84.4c-5.4 6.2-11.7 13.5-13.9 16.3-10.9 13.7-7.3 10.3 6.5-6 5.5-6.6 11.9-14.1 14.2-16.8 2.3-2.6 3.9-4.7 3.6-4.7-.3 0-5 5.1-10.4 11.2z"/><path d="M1481.7 1557.2c-7.3 9.2-26.7 40-26.7 42.5 0 .4 3.1-4.4 6.8-10.7 7.5-12.8 13.4-21.7 19.9-30.3 5.1-6.6 5.1-7.8 0-1.5z"/></g><g fill="#004040" stroke-width="0"><path d="M690 1103c-.6 1.1-.8 2-.6 2 .3 0 1-.9 1.6-2 .6-1.1.8-2 .6-2-.3 0-1 .9-1.6 2z"/><path d="M684.6 1112.2c-5.6 10.2-10.5 22.8-8.8 22.8.5 0 2.2-3.5 3.7-7.8 1.5-4.2 4.3-10.7 6.1-14.5 4.3-8.4 3.6-8.8-1-.5zm908.5 125.4c0 1.1.3 1.4.6.6.3-.7.2-1.6-.1-1.9-.3-.4-.6.2-.5 1.3zm-1 8c0 1.1.3 1.4.6.6.3-.7.2-1.6-.1-1.9-.3-.4-.6.2-.5 1.3zm-1 8c0 1.1.3 1.4.6.6.3-.7.2-1.6-.1-1.9-.3-.4-.6.2-.5 1.3zm-.9 6.4c0 1.4.2 1.9.5 1.2.2-.6.2-1.8 0-2.5-.3-.6-.5-.1-.5 1.3zm-1 6c0 1.4.2 1.9.5 1.2.2-.6.2-1.8 0-2.5-.3-.6-.5-.1-.5 1.3zm-1 6c0 1.4.2 1.9.5 1.2.2-.6.2-1.8 0-2.5-.3-.6-.5-.1-.5 1.3zm-1.1 5.6c0 1.1.3 1.4.6.6.3-.7.2-1.6-.1-1.9-.3-.4-.6.2-.5 1.3zm-.9 5.4c0 1.4.2 1.9.5 1.2.2-.6.2-1.8 0-2.5-.3-.6-.5-.1-.5 1.3zm-3.1 13.2c-7.1 31.7-18.2 65.3-30.6 92.3-5.1 11.1-13.4 25.8-23.2 40.7-10.5 16.2-20 33.4-25.4 45.7-2.3 5.3-4.9 10.4-5.8 11.5-2 2.3-5.4 4-23.9 12.2-8 3.6-14.8 6.6-14.9 6.8-.2.1-1 5-1.8 10.7-2.3 16-3.9 52.5-3 68.2l.7 13.9 6.9-11.8c10.8-18.3 27-40 44.1-59.3 6.7-7.5 14-17.1 19.4-25.8 12.3-19.3 28.5-46.5 28-47-.2-.2-3.7 2-7.9 5-13.1 9.5-41.1 25.6-42.3 24.4-1.3-1.3 17.2-36.6 28-53.6 19.8-31.1 32.4-59.2 43.5-97.7 4.7-16.2 11.4-44.1 10.9-45.6-.2-.5-1.4 3.7-2.7 9.4zM406 1291c.6 1.1 1.3 2 1.6 2 .2 0 0-.9-.6-2s-1.3-2-1.6-2c-.2 0 0 .9.6 2zm3.4 5.2c.9 1.5 4 6.7 6.9 11.5 2.9 4.8 8.6 14.5 12.6 21.5 4 7.1 7.7 12.8 8.3 12.8.5 0-.3-2.1-1.8-4.8-6.2-10.7-24-39.4-25.8-41.5l-1.8-2.2 1.6 2.7zm847.4 17.5c.7.3 1.6.2 1.9-.1.4-.3-.2-.6-1.3-.5-1.1 0-1.4.3-.6.6zm-27.9 70c-1.3 1.6-1.2 1.7.4.4.9-.7 1.7-1.5 1.7-1.7 0-.8-.8-.3-2.1 1.3zM871 1637.1c0 .3 1.4 2.3 3 4.4 1.7 2.1 3 3.4 3 2.8 0-1-5.9-8.1-6-7.2zm-42.8 2.9c0 1.4.2 1.9.5 1.2.2-.6.2-1.8 0-2.5-.3-.6-.5-.1-.5 1.3zm.8 4.4c0 .2.8 1 1.8 1.7 1.5 1.3 1.6 1.2.3-.4s-2.1-2.1-2.1-1.3zm-21 5c0 .2.8 1 1.8 1.7 1.5 1.3 1.6 1.2.3-.4s-2.1-2.1-2.1-1.3zm43.3 2.3c.9.2 2.3.2 3 0 .6-.3-.1-.5-1.8-.5-1.6 0-2.2.2-1.2.5zm158.2 8.7c1.1.7 3.1 1.6 4.5 2 1.4.4.8-.2-1.4-1.4-4.6-2.3-5.9-2.6-3.1-.6zm-1.4 2.2c0 1.1.3 1.4.6.6.3-.7.2-1.6-.1-1.9-.3-.4-.6.2-.5 1.3zm12.7 1.1c.7.3 1.6.2 1.9-.1.4-.3-.2-.6-1.3-.5-1.1 0-1.4.3-.6.6zm-189.8 4.7c0 .2.8 1 1.8 1.7 1.5 1.3 1.6 1.2.3-.4s-2.1-2.1-2.1-1.3zm17 14c0 .2.8 1 1.8 1.7 1.5 1.3 1.6 1.2.3-.4s-2.1-2.1-2.1-1.3zm169.9 5.3c-1.3 1.6-1.2 1.7.4.4 1.6-1.3 2.1-2.1 1.3-2.1-.2 0-1 .8-1.7 1.7zM871 1701.4c0 .2.8 1 1.8 1.7 1.5 1.3 1.6 1.2.3-.4s-2.1-2.1-2.1-1.3zm17 14c0 .2.8 1 1.8 1.7 1.5 1.3 1.6 1.2.3-.4s-2.1-2.1-2.1-1.3zm81.3 7.3c21.4.2 56 .2 77 0 21-.1 3.6-.2-38.8-.2-42.3 0-59.5.1-38.2.2z"/></g><path fill="#0080BF" d="M943.3 852.7c18.5.2 48.9.2 67.5 0 18.5-.1 3.3-.2-33.8-.2-37.1 0-52.3.1-33.7.2zm-606.2 402.9c0 1.1.3 1.4.6.6.3-.7.2-1.6-.1-1.9-.3-.4-.6.2-.5 1.3zm1 4c0 1.1.3 1.4.6.6.3-.7.2-1.6-.1-1.9-.3-.4-.6.2-.5 1.3zm1.3 4.9c.4 1.6 1.2 3.4 1.7 4 .5.5.4-.6-.2-2.5-1.5-4.5-2.4-5.4-1.5-1.5zm27.6 45.9c0 .2.8 1 1.8 1.7 1.5 1.3 1.6 1.2.3-.4s-2.1-2.1-2.1-1.3zm6 6c0 .2.8 1 1.8 1.7 1.5 1.3 1.6 1.2.3-.4s-2.1-2.1-2.1-1.3zm102 77c0 .2.8 1 1.8 1.7 1.5 1.3 1.6 1.2.3-.4s-2.1-2.1-2.1-1.3zm11 11c0 .2.8 1 1.8 1.7 1.5 1.3 1.6 1.2.3-.4s-2.1-2.1-2.1-1.3zm1152 3.6c-.6 1.1-.8 2-.6 2 .3 0 1-.9 1.6-2 .6-1.1.8-2 .6-2-.3 0-1 .9-1.6 2zm-37.1 48.7c-1.3 1.6-1.2 1.7.4.4.9-.7 1.7-1.5 1.7-1.7 0-.8-.8-.3-2.1 1.3zm-24.6 24c0 .9.4 1 1.4.2.7-.6 1.3-1.2 1.3-1.4 0-.1-.6-.2-1.3-.2-.8 0-1.4.6-1.4 1.4zm-8 6.8c0 .8.4 1.2.9.9.5-.3.6-1 .3-1.5-.9-1.3-1.2-1.1-1.2.6zm-1037.2 12.1c0 1.1.3 1.4.6.6.3-.7.2-1.6-.1-1.9-.3-.4-.6.2-.5 1.3zm995.8 24.1c-1.3 1.6-1.2 1.7.4.4.9-.7 1.7-1.5 1.7-1.7 0-.8-.8-.3-2.1 1.3z"/><path d="M1229.8 872.5c-13.7 2.6-24.9 8.2-31.8 16.1-4.2 4.9-9.1 15.3-9.8 20.9-.4 4-.8 4.5-3.6 5.1-8.9 1.8-18.6 9.6-23 18.2-3 5.9-5.6 18.2-5.6 26.6 0 9.3 2.5 16 7.8 20.9l3 2.9 5.1-4c7.5-5.9 15.6-9.5 21.6-9.5 6.1 0 7.9.9 16.2 7.9 6.7 5.7 8.8 6.5 9.7 3.6 1.3-4.1 6.7-11.2 9.6-12.7 4.2-2.2 8.8-1.2 10.1 2.2.7 1.9.2 5.3-1.8 13.4-2.7 10.9-2.7 10.9-.8 14.5 2.5 4.6 11.9 11.7 22.3 16.7l8.2 4 5.9-5.6c3.1-3 9.3-7.8 13.7-10.7 4.3-2.8 8-5.3 8.2-5.5.2-.1 1-3.2 1.8-6.6.8-3.5 3.7-11.2 6.4-17 9.6-20.7 11.3-33.6 5.5-43.4-2.9-5-9.8-12.5-13-14.3-1.9-1-1.8-1.3 2.1-5.9 2.3-2.6 5.4-5.5 7-6.3 1.6-.8 3.1-1.6 3.4-1.8 1.2-.8-2.9-2.2-6.3-2.2-5.1 0-9 2.2-11.7 6.5-1.2 1.9-2.3 3.5-2.5 3.5-.2 0-.3-4.4-.3-9.8.1-15.2-4.1-23.7-13.4-27.6-3.3-1.4-7.8-2.1-7.8-1.3 0 .2.9 2.1 1.9 4.3 2.2 4.5 3.9 10.7 5.1 17.7.9 6-.1 5-2.3-2.4-4.9-16.3-18.8-22.5-40.9-18.4z"/><path fill="#400000" d="M1272 895.9c0 .6.4 1.3 1 1.6.6.3.7-.1.4-.9-.7-1.8-1.4-2.1-1.4-.7zm15.2 8.1c0 1.9.2 2.7.5 1.7.2-.9.2-2.5 0-3.5-.3-.9-.5-.1-.5 1.8zm-94.4 65.7c.7.3 1.6.2 1.9-.1.4-.3-.2-.6-1.3-.5-1.1 0-1.4.3-.6.6zm17.2 8.7c0 .2.8 1 1.8 1.7 1.5 1.3 1.6 1.2.3-.4s-2.1-2.1-2.1-1.3z"/><path fill="#BF8080" d="M1236 968.4c0 .2.8 1 1.8 1.7 1.5 1.3 1.6 1.2.3-.4s-2.1-2.1-2.1-1.3zm-12.1 5.3c-1.3 1.6-1.2 1.7.4.4.9-.7 1.7-1.5 1.7-1.7 0-.8-.8-.3-2.1 1.3zm-16.9 2.6c0 .2 1.5 1.6 3.3 3.3l3.2 2.9-2.9-3.3c-2.8-3-3.6-3.7-3.6-2.9zm10.5 6.7c-1.6.7-1.7.9-.3.9.9.1 2-.4 2.3-.9.7-1.1.7-1.1-2 0zm16.7 11.5c0 1.6.2 2.2.5 1.2.2-.9.2-2.3 0-3-.3-.6-.5.1-.5 1.8zm4.8 9c1.9 1.9 3.6 3.5 3.9 3.5.3 0-1-1.6-2.9-3.5s-3.6-3.5-3.9-3.5c-.3 0 1 1.6 2.9 3.5zm18.1 37.1c0 1.1.3 1.4.6.6.3-.7.2-1.6-.1-1.9-.3-.4-.6.2-.5 1.3zm-245.3 142.1c.7.3 1.6.2 1.9-.1.4-.3-.2-.6-1.3-.5-1.1 0-1.4.3-.6.6zm-6 21c.7.3 1.6.2 1.9-.1.4-.3-.2-.6-1.3-.5-1.1 0-1.4.3-.6.6zm4 1c.7.3 1.6.2 1.9-.1.4-.3-.2-.6-1.3-.5-1.1 0-1.4.3-.6.6zm4 1c.7.3 1.6.2 1.9-.1.4-.3-.2-.6-1.3-.5-1.1 0-1.4.3-.6.6zm12 3c.7.3 1.6.2 1.9-.1.4-.3-.2-.6-1.3-.5-1.1 0-1.4.3-.6.6zm4 1c.7.3 1.6.2 1.9-.1.4-.3-.2-.6-1.3-.5-1.1 0-1.4.3-.6.6zm25 6c.7.3 1.6.2 1.9-.1.4-.3-.2-.6-1.3-.5-1.1 0-1.4.3-.6.6zm4 1c.7.3 1.6.2 1.9-.1.4-.3-.2-.6-1.3-.5-1.1 0-1.4.3-.6.6zm124.1 1c-1.3 1.6-1.2 1.7.4.4.9-.7 1.7-1.5 1.7-1.7 0-.8-.8-.3-2.1 1.3zm-120.1 0c.7.3 1.6.2 1.9-.1.4-.3-.2-.6-1.3-.5-1.1 0-1.4.3-.6.6zm4 1c.7.3 1.6.2 1.9-.1.4-.3-.2-.6-1.3-.5-1.1 0-1.4.3-.6.6zm4 1c.7.3 1.6.2 1.9-.1.4-.3-.2-.6-1.3-.5-1.1 0-1.4.3-.6.6zm4 1c.7.3 1.6.2 1.9-.1.4-.3-.2-.6-1.3-.5-1.1 0-1.4.3-.6.6zm4 1c.7.3 1.6.2 1.9-.1.4-.3-.2-.6-1.3-.5-1.1 0-1.4.3-.6.6zm100.1 1c-1.3 1.6-1.2 1.7.4.4.9-.7 1.7-1.5 1.7-1.7 0-.8-.8-.3-2.1 1.3zm-489.6 28c7.6.2 19.8.2 27 0 7.3-.1 1.1-.3-13.8-.3-14.8 0-20.8.2-13.2.3zm276.3 106.1c-.3.5.1.9.9.9s1.2-.4.9-.9c-.3-.4-.7-.8-.9-.8-.2 0-.6.4-.9.8z"/><path fill="#408080" d="M1300.5 1011c2.7 2.7 5.1 5 5.4 5 .3 0-1.7-2.3-4.4-5-2.7-2.8-5.1-5-5.4-5-.3 0 1.7 2.2 4.4 5zm-29 4.2-4 4.3 4.3-4c3.9-3.6 4.7-4.5 3.9-4.5-.2 0-2.1 1.9-4.2 4.2zm-603.2 120.5c7.6.2 19.8.2 27 0 7.3-.1 1.1-.3-13.8-.3-14.8 0-20.8.2-13.2.3zm579.8 4.8c0 1.6.4 10.6.9 20 1.9 30.9 6.5 59.5 14.6 91.8 9.7 38.6 14.4 65.2 15.1 85.7.7 19.4-.6 26.1-6 31.5-3 3-4 3.3-14 4.4-13.4 1.5-22.1 4.1-26.9 8.1-3.4 2.8-9.8 13.7-9.8 16.7 0 .7-1 1.3-2.1 1.3-1.2 0-24.9 1.6-52.8 3.5l-50.6 3.6-16 10.2c-31.6 20.3-43.5 28.2-43.5 28.9 0 .5 19.9.7 44.3.6 24.3-.1 42.3-.3 40-.5-2.4-.2-4.3-.8-4.3-1.2 0-1.6 12.4-12.4 19.1-16.7 14-9.1 19.9-10.4 49.2-11.2l23.8-.7 3.8-4.1c2.5-2.6 4.9-6.8 6.7-11.9 3.7-10 6.2-11.9 23.6-17.5 25.8-8.3 30.2-12.1 29.9-26.2-.2-14.1-4.3-35.2-23.2-120.3-6.6-29.7-14-63.7-16.5-75.5-4.9-23.6-5.2-24.9-5.3-20.5zm-65.8 73.2c.9.2 2.5.2 3.5 0 .9-.3.1-.5-1.8-.5-1.9 0-2.7.2-1.7.5z"/><path fill="teal" fill-opacity=".9" d="M630.1 1056.6c0 1.1.3 1.4.6.6.3-.7.2-1.6-.1-1.9-.3-.4-.6.2-.5 1.3zm64.9 5.4c-.6 1.1-.8 2-.6 2 .3 0 1-.9 1.6-2 .6-1.1.8-2 .6-2-.3 0-1 .9-1.6 2zm21.8 2.7c.7.3 1.6.2 1.9-.1.4-.3-.2-.6-1.3-.5-1.1 0-1.4.3-.6.6zm-20.9 10c-1.3 1.6-1.2 1.7.4.4.9-.7 1.7-1.5 1.7-1.7 0-.8-.8-.3-2.1 1.3zm-5 4c-1.3 1.6-1.2 1.7.4.4.9-.7 1.7-1.5 1.7-1.7 0-.8-.8-.3-2.1 1.3zm510 6c-1.3 1.6-1.2 1.7.4.4.9-.7 1.7-1.5 1.7-1.7 0-.8-.8-.3-2.1 1.3zm-9.5 9.5-1.9 2.3 2.3-1.9c2.1-1.8 2.7-2.6 1.9-2.6-.2 0-1.2 1-2.3 2.2zm-4.5 5.5c-1.3 1.6-1.2 1.7.4.4.9-.7 1.7-1.5 1.7-1.7 0-.8-.8-.3-2.1 1.3zm-3 4c-1.3 1.6-1.2 1.7.4.4.9-.7 1.7-1.5 1.7-1.7 0-.8-.8-.3-2.1 1.3zm-474.7 8.3c0 1.4.2 1.9.5 1.2.2-.6.2-1.8 0-2.5-.3-.6-.5-.1-.5 1.3zm-1.1 14.6c0 1.1.3 1.4.6.6.3-.7.2-1.6-.1-1.9-.3-.4-.6.2-.5 1.3zm883.1 44.4c0 1.9.2 2.7.5 1.7.2-.9.2-2.5 0-3.5-.3-.9-.5-.1-.5 1.8zm0 12c0 1.9.2 2.7.5 1.7.2-.9.2-2.5 0-3.5-.3-.9-.5-.1-.5 1.8zM365 1224.5c1.9 1.9 3.6 3.5 3.9 3.5.3 0-1-1.6-2.9-3.5s-3.6-3.5-3.9-3.5c-.3 0 1 1.6 2.9 3.5zm1242.1-.9c0 1.1.3 1.4.6.6.3-.7.2-1.6-.1-1.9-.3-.4-.6.2-.5 1.3zM374 1232.2c4.1 4.5 5 5.3 5 4.5 0-.2-2.1-2.3-4.7-4.7l-4.8-4.5 4.5 4.7zm1234.1-.6c0 1.1.3 1.4.6.6.3-.7.2-1.6-.1-1.9-.3-.4-.6.2-.5 1.3zM398 1255.5c9.6 9.6 17.7 17.5 18 17.5.3 0-7.4-7.9-17-17.5s-17.7-17.5-18-17.5c-.3 0 7.4 7.9 17 17.5zm1211.2-13.5c0 1.4.2 1.9.5 1.2.2-.6.2-1.8 0-2.5-.3-.6-.5-.1-.5 1.3zM421 1279.5c1.9 1.9 3.6 3.5 3.9 3.5.3 0-1-1.6-2.9-3.5s-3.6-3.5-3.9-3.5c-.3 0 1 1.6 2.9 3.5zm1188.2 3c0 1.6.2 2.2.5 1.2.2-.9.2-2.3 0-3-.3-.6-.5.1-.5 1.8zm-1180.2 6c1.3 1.4 2.6 2.5 2.8 2.5.3 0-.5-1.1-1.8-2.5s-2.6-2.5-2.8-2.5c-.3 0 .5 1.1 1.8 2.5zm6 7c1.3 1.4 2.6 2.5 2.8 2.5.3 0-.5-1.1-1.8-2.5s-2.6-2.5-2.8-2.5c-.3 0 .5 1.1 1.8 2.5zm1173.1-.9c0 1.1.3 1.4.6.6.3-.7.2-1.6-.1-1.9-.3-.4-.6.2-.5 1.3zM439.5 1301c1 1.1 2 2 2.3 2 .3 0-.3-.9-1.3-2s-2-2-2.3-2c-.3 0 .3.9 1.3 2zm-49.5 2c.6 1.1 1.3 2 1.6 2 .2 0 0-.9-.6-2s-1.3-2-1.6-2c-.2 0 0 .9.6 2zm1217.1-.4c0 1.1.3 1.4.6.6.3-.7.2-1.6-.1-1.9-.3-.4-.6.2-.5 1.3zM443 1305.4c0 .2.8 1 1.8 1.7 1.5 1.3 1.6 1.2.3-.4s-2.1-2.1-2.1-1.3zm-49.4 3.9c.3 1 .9 1.5 1.2 1.2.3-.3 0-1.1-.7-1.8-1-.9-1.1-.8-.5.6zm1212.5.3c0 1.1.3 1.4.6.6.3-.7.2-1.6-.1-1.9-.3-.4-.6.2-.5 1.3zm-1160.1-.2c0 .2.8 1 1.8 1.7 1.5 1.3 1.6 1.2.3-.4s-2.1-2.1-2.1-1.3zm4 5c0 .2.8 1 1.8 1.7 1.5 1.3 1.6 1.2.3-.4s-2.1-2.1-2.1-1.3zm3 4c0 .2.8 1 1.8 1.7 1.5 1.3 1.6 1.2.3-.4s-2.1-2.1-2.1-1.3zm1073.9 38.3c-1.3 1.6-1.2 1.7.4.4.9-.7 1.7-1.5 1.7-1.7 0-.8-.8-.3-2.1 1.3zm-3 4c-1.3 1.6-1.2 1.7.4.4.9-.7 1.7-1.5 1.7-1.7 0-.8-.8-.3-2.1 1.3zm-3 4c-1.3 1.6-1.2 1.7.4.4.9-.7 1.7-1.5 1.7-1.7 0-.8-.8-.3-2.1 1.3zm-3.5 4.5-1.9 2.3 2.3-1.9c2.1-1.8 2.7-2.6 1.9-2.6-.2 0-1.2 1-2.3 2.2zm-4 5-1.9 2.3 2.3-1.9c2.1-1.8 2.7-2.6 1.9-2.6-.2 0-1.2 1-2.3 2.2zm-3.5 4.5c-1.3 1.6-1.2 1.7.4.4.9-.7 1.7-1.5 1.7-1.7 0-.8-.8-.3-2.1 1.3zm-3 4c-1.3 1.6-1.2 1.7.4.4.9-.7 1.7-1.5 1.7-1.7 0-.8-.8-.3-2.1 1.3zm68.7 26.8c-.9 2.6-.7 3.2.5 1.2.6-1 .9-2.1.6-2.3-.2-.3-.7.2-1.1 1.1zm-5 11c-.9 2.6-.7 3.2.5 1.2.6-1 .9-2.1.6-2.3-.2-.3-.7.2-1.1 1.1zm-11.1 22.5c-.9 1.6-1.3 3-1.1 3 .3 0 1.2-1.4 2.1-3 .9-1.7 1.3-3 1.1-3-.3 0-1.2 1.3-2.1 3zm-1029.9 65.7c-.6 1.4-.5 1.5.5.6.7-.7 1-1.5.7-1.8-.3-.3-.9.2-1.2 1.2zm924.5 41.9c0 1.1.3 1.4.6.6.3-.7.2-1.6-.1-1.9-.3-.4-.6.2-.5 1.3z"/><path fill="#40BF80" d="M1250.1 1092.6c0 1.1.3 1.4.6.6.3-.7.2-1.6-.1-1.9-.3-.4-.6.2-.5 1.3zm-.9 12.9c0 1.6.2 2.2.5 1.2.2-.9.2-2.3 0-3-.3-.6-.5.1-.5 1.8z"/><path fill="teal" fill-opacity=".8" d="m1195.9 1088.7-2.4 2.8 2.8-2.4c2.5-2.3 3.2-3.1 2.4-3.1-.2 0-1.4 1.2-2.8 2.7zm395.3 88.3c0 1.9.2 2.7.5 1.7.2-.9.2-2.5 0-3.5-.3-.9-.5-.1-.5 1.8zm-137.1 412.6c0 1.1.3 1.4.6.6.3-.7.2-1.6-.1-1.9-.3-.4-.6.2-.5 1.3z"/><path fill="#408080" fill-opacity=".7" d="M1610.3 1262c0 3 .2 4.3.4 2.7.2-1.5.2-3.9 0-5.5-.2-1.5-.4-.2-.4 2.8z"/><path fill="#408080" fill-opacity=".6" d="M394.5 1251c1 1.1 2 2 2.3 2 .3 0-.3-.9-1.3-2s-2-2-2.3-2c-.3 0 .3.9 1.3 2zm7.5 7.2c4.1 4.5 5 5.3 5 4.5 0-.2-2.1-2.3-4.7-4.7l-4.8-4.5 4.5 4.7zm1208.1 10.4c0 1.1.3 1.4.6.6.3-.7.2-1.6-.1-1.9-.3-.4-.6.2-.5 1.3zm-156 325c0 1.1.3 1.4.6.6.3-.7.2-1.6-.1-1.9-.3-.4-.6.2-.5 1.3z"/><path fill="#BFBF80" d="M766.8 1250.7c21 .2 55.4.2 76.5 0 21-.1 3.8-.2-38.3-.2-42.1 0-59.3.1-38.2.2zm164 0c20 .2 52.4.2 72 0 19.6-.1 3.3-.2-36.3-.2-39.6 0-55.7.1-35.7.2zm154 0c18.4.2 48.1.2 66 0 18-.1 3-.2-33.3-.2s-51 .1-32.7.2z"/><path fill="#BF4000" fill-opacity=".9" d="M729.8 1224.7c.6.2 1.8.2 2.5 0 .6-.3.1-.5-1.3-.5-1.4 0-1.9.2-1.2.5z"/><path fill="#BF0000" d="M542.5 1225c-4.5 1-7.3 3.1-9 6.6-2 4.4-1.9 8.3.5 12.2 4 6.5-.4 6.2 101.1 6.2h92.2l-2.7-2.1c-7.3-5.7-7.2-17.1.2-21.6 2.8-1.7-.6-1.8-88.2-1.9-50.1-.1-92.4.2-94.1.6zm341.7 27.7c.8 1 11.8 14.6 24.3 30.3 12.6 15.7 29.4 36.5 37.3 46.3l14.4 17.8 2.9-3.7 2.9-3.6-2.3-2.8c-1.2-1.6-17.3-21.5-35.7-44.4l-33.4-41.6h-6c-5.5 0-5.8.1-4.4 1.7zm86.5 99.1c-1.5 1.5-2.7 3.4-2.7 4.1 0 .7 1.8 3.5 4.1 6.2l4 4.8 3.5-2.2c1.8-1.2 3.4-2.6 3.4-3.1 0-.7-2-3.4-9-11.9-.3-.4-1.8.6-3.3 2.1zm-119.2 119.6c-11.2 5.1-10.4 21.8 1.2 25.7 11.9 3.9 22.7-9.3 16.3-19.8-3.7-6.1-11.4-8.7-17.5-5.9zm234.8 23.1c-.7.8-2 1.8-3 2.3-1.5.9-1.5 1.2-.2 3.1 2.9 4.2 136.4 170 136.9 170.1.3 0 1.3-2.1 2.3-4.6l1.7-4.7-38.2-47.6c-21.1-26.2-51.3-63.9-67.3-83.8-15.9-19.9-29.4-36.2-30-36.2-.5 0-1.6.6-2.2 1.4z"/><path fill="#004040" fill-opacity=".8" d="M833.8 1638.7c.7.3 1.6.2 1.9-.1.4-.3-.2-.6-1.3-.5-1.1 0-1.4.3-.6.6zm-42.8 9.7c0 .2.8 1 1.8 1.7 1.5 1.3 1.6 1.2.3-.4s-2.1-2.1-2.1-1.3zm13.5 14.6c3.3 3.3 6.2 6 6.4 6 .3 0-2.1-2.7-5.4-6-3.3-3.3-6.2-6-6.4-6-.3 0 2.1 2.7 5.4 6zm17.5 16.5c1.3 1.4 2.6 2.5 2.8 2.5.3 0-.5-1.1-1.8-2.5s-2.6-2.5-2.8-2.5c-.3 0 .5 1.1 1.8 2.5zm10.5 9.5c1 1.1 2 2 2.3 2 .3 0-.3-.9-1.3-2s-2-2-2.3-2c-.3 0 .3.9 1.3 2zm8 7c1 1.1 2 2 2.3 2 .3 0-.3-.9-1.3-2s-2-2-2.3-2c-.3 0 .3.9 1.3 2zm6.5 5.4c0 .2.8 1 1.8 1.7 1.5 1.3 1.6 1.2.3-.4s-2.1-2.1-2.1-1.3zm6 5c0 .2.8 1 1.8 1.7 1.5 1.3 1.6 1.2.3-.4s-2.1-2.1-2.1-1.3zm6 5c0 .2.8 1 1.8 1.7 1.5 1.3 1.6 1.2.3-.4s-2.1-2.1-2.1-1.3z"/></svg>